<svg width="28" height="28" viewBox="0 0 28 28" fill="none" xmlns="http://www.w3.org/2000/svg">
<path fill-rule="evenodd" clip-rule="evenodd" d="M21.4702 6.57184C20.4999 5.5952 19.3455 4.82081 18.0738 4.29351C16.8022 3.76622 15.4385 3.4965 14.0618 3.5C8.28917 3.5 3.58983 8.19817 3.5875 13.9732C3.5875 15.8188 4.06933 17.6202 4.98517 19.2092L3.5 24.6353L9.05217 23.1782C10.588 24.0142 12.3086 24.4526 14.0572 24.4533H14.0618C19.8333 24.4533 24.5327 19.7552 24.535 13.9802C24.539 12.6041 24.2701 11.2408 23.7441 9.96924C23.218 8.69765 22.4452 7.54294 21.4702 6.57184ZM14.0618 22.6858H14.0583C12.4991 22.686 10.9686 22.2665 9.62733 21.4713L9.31 21.2823L6.01533 22.1468L6.89383 18.935L6.68733 18.606C5.81559 17.2182 5.35411 15.6121 5.35617 13.9732C5.3585 9.1735 9.26333 5.26867 14.0653 5.26867C15.209 5.26613 16.3417 5.49043 17.3981 5.9286C18.4545 6.36676 19.4134 7.01009 20.2195 7.82134C21.0299 8.62872 21.6722 9.58871 22.1094 10.6458C22.5465 11.703 22.7698 12.8362 22.7663 13.9802C22.764 18.7798 18.8592 22.6858 14.0618 22.6858ZM18.837 16.1653C18.5745 16.0335 17.2888 15.4012 17.0485 15.3137C16.8093 15.2262 16.6355 15.183 16.4605 15.4443C16.2855 15.7057 15.7838 16.2948 15.631 16.4698C15.4782 16.6448 15.3253 16.6658 15.064 16.5352C14.8027 16.4045 13.9592 16.128 12.9593 15.2367C12.1812 14.5425 11.6562 13.6862 11.5033 13.4237C11.3505 13.1612 11.487 13.02 11.6188 12.8893C11.7367 12.7727 11.8802 12.5837 12.0108 12.4308C12.1415 12.278 12.1847 12.1695 12.2722 11.9945C12.3597 11.8195 12.3165 11.6667 12.25 11.536C12.1847 11.4042 11.6608 10.1162 11.4427 9.59234C11.2315 9.08484 11.0157 9.1525 10.8547 9.1455C10.6879 9.13868 10.521 9.13557 10.3542 9.13617C10.2215 9.13955 10.0909 9.17031 9.97064 9.22653C9.85038 9.28274 9.74304 9.36319 9.65533 9.46284C9.415 9.72534 8.7395 10.3577 8.7395 11.6457C8.7395 12.9337 9.6775 14.1785 9.80817 14.3535C9.93883 14.5285 11.6538 17.171 14.2788 18.305C14.9042 18.5745 15.3918 18.7355 15.771 18.8568C16.3975 19.0563 16.968 19.0272 17.4195 18.9607C17.9223 18.886 18.9677 18.3283 19.1858 17.717C19.404 17.1057 19.404 16.5818 19.3387 16.4722C19.2733 16.3625 19.0972 16.296 18.837 16.1653Z" fill="#010F14"/>
</svg>
