<svg width="28" height="28" viewBox="0 0 28 28" fill="none" xmlns="http://www.w3.org/2000/svg">
<path d="M22.4694 7.90625V7.14453H19.4082V3.81623C19.3562 3.77052 17.8764 0.999898 14 1C10.1162 1.0001 8.63622 3.77723 8.59184 3.81623V7.14453H5.53061V7.90625C5.53061 10.8777 5.16607 12.6918 4.78015 14.6123C4.39658 16.5211 4 18.4949 4 21.6172V27H24V21.6172C24 18.4949 23.6034 16.5211 23.2198 14.6123C22.8339 12.6918 22.4694 10.8777 22.4694 7.90625ZM10.1224 4.28895C10.9615 3.17948 12.393 2.52349 14 2.52344C15.607 2.52339 17.0384 3.17938 17.8776 4.28895V7.14453H10.1224V4.28895ZM22.4694 25.4766H5.53061V21.6172C5.53061 18.6457 5.89515 16.8317 6.28107 14.9111C6.63245 13.1624 6.9948 11.3589 7.05311 8.66797H8.59184V10.1914H10.1224V8.66797H17.8776V10.1914H19.4082V8.66797H20.9469C21.0052 11.3589 21.3676 13.1624 21.7189 14.9111C22.1048 16.8317 22.4694 18.6457 22.4694 21.6172V25.4766Z" fill="#010F14"/>
<path d="M19.4559 19.75C19.4559 17.1073 17.4161 14.9148 14.7721 14.5528V13H13.2279V14.5528C10.5839 14.9148 8.54412 17.1073 8.54412 19.75V20.5H7V22H21V20.5H19.4559V19.75ZM17.9118 20.5H10.0882V19.75C10.0882 17.6823 11.843 16 14 16C16.157 16 17.9118 17.6823 17.9118 19.75V20.5Z" fill="#010F14"/>
</svg>
