<svg width="67" height="62" viewBox="0 0 67 62" fill="none" xmlns="http://www.w3.org/2000/svg">
    <path fill-rule="evenodd" clip-rule="evenodd"
          d="M30.0552 17.7411L30.6935 19.2634C31.2754 19.2634 31.8949 19.2634 32.552 19.2634L31.8198 17.5344C31.2003 17.572 30.5996 17.6472 30.0552 17.7411ZM27.0703 18.9063C27.0703 19.1882 27.9902 19.2634 29.3982 19.2822L28.8725 18.023C27.7649 18.3049 27.0703 18.662 27.0703 18.9063ZM33.0964 17.5156L33.8285 19.2822C34.5043 19.2822 35.1238 19.2822 35.687 19.2822L35.0112 17.6472C34.4293 17.572 33.791 17.5156 33.0964 17.5156ZM32.8899 41.5902C33.6783 41.5902 34.2415 41.0828 34.2415 41.0828L34.6358 38.3201L33.7159 38.7711L32.8899 37.6999L32.0639 38.7711L31.144 38.3201L31.5382 41.0828C31.5195 41.0828 32.1014 41.5902 32.8899 41.5902ZM60.9364 38.3953C60.9364 38.3953 59.9978 38.2637 59.4721 37.6059C60.6548 38.2073 62.4382 37.3052 62.5133 37.0985C62.5133 37.0985 61.1804 37.3052 60.5046 36.4407L60.4483 36.3844L60.6173 36.4783C62.2317 37.2865 64.1841 35.238 64.1841 34.9748C64.1841 34.9748 62.87 35.7078 61.8187 35.05C61.6873 34.9748 61.5559 34.8809 61.4245 34.8057L61.8187 34.9185C63.6397 35.3883 65.1978 32.8512 65.1603 32.5881C65.1603 32.5881 63.9776 33.6217 62.7574 33.1707C62.5696 33.1143 62.3819 33.0391 62.2129 32.9827H62.6259C64.7848 32.9451 65.7234 29.6563 65.592 29.3744C65.592 29.3744 64.5971 30.8778 63.114 30.7651C62.9075 30.7463 62.7198 30.7463 62.5321 30.7275V30.7087C64.6534 30.2952 65.1227 26.9688 64.935 26.7057C64.8036 26.5177 64.4281 28.6602 62.6259 28.4535C63.3769 27.495 64.8411 24.9391 64.1278 20.3534C63.8837 21.575 62.87 22.4583 62.87 22.4583C63.3018 20.936 63.6209 18.8875 61.875 15.8806C62.2505 17.3653 62.0252 18.3425 61.1804 19.8836C61.1804 19.8836 61.6685 17.0834 59.397 14.5086C59.8663 15.5611 59.7162 17.3277 59.4346 18.6996C59.4346 18.6996 58.7212 16.2376 57.0692 14.8469C57.6512 19.0191 57.332 22.4019 55.9804 26.3486C55.0605 28.9797 54.5912 31.7423 58.3082 34.1855C52.545 31.0282 56.3371 26.7245 56.7313 22.7966C56.0179 21.6314 54.4973 21.3683 55.6049 17.478C53.7464 18.0794 53.5212 19.752 53.5212 20.936C52.9767 20.5038 52.3948 19.2822 52.8641 18.0606C51.2497 18.8124 51.6251 21.2743 52.3197 21.7066C51.8879 21.7066 50.6489 21.9321 50.1608 22.5899C49.3536 23.6987 46.8756 24.1309 46.35 24.4129C45.5615 24.8263 45.7868 25.9163 45.937 26.3486C46.0871 26.7808 46.3687 27.2319 46.7817 27.2695C47.4951 27.3447 48.3211 27.495 49.0345 28.04C49.6915 28.5474 51.137 28.2655 50.8742 28.773C50.7052 29.0737 48.6778 29.9382 47.1947 32.4753C46.6315 33.4338 46.0496 34.0915 45.7305 34.0915C44.2286 34.1291 42.6705 33.3774 41.5066 33.6593C40.7557 33.8096 40.2488 34.3922 40.0611 34.9748L43.3275 34.9936V36.2152C44.2286 36.5347 45.0546 36.9482 45.8055 37.1361C46.2749 37.1549 47.1009 36.9106 48.1709 37.5871C46.4626 36.7978 43.8907 37.5308 43.459 39.1846C43.2149 39.6356 44.2474 41.2519 44.6792 44.3904C44.7355 44.8039 45.8619 46.4577 45.8619 46.4577C45.8619 46.4577 46.7817 45.518 46.9507 44.7099C46.9882 44.4844 46.6503 44.3716 46.5001 44.2025C46.3312 44.2401 45.8806 44.3716 45.7868 44.4468L45.7305 44.3528C45.8619 44.2589 46.2561 44.1085 46.425 44.0709C46.4438 43.9394 46.5377 43.6763 46.5189 43.3944C46.5001 42.9245 45.1297 40.9512 45.4489 40.3874C45.9745 39.4477 48.7716 39.5229 49.3911 40.2182C49.072 40.0679 47.2698 39.7296 47.2323 40.0303C47.2511 40.1431 47.2886 40.2746 47.3074 40.3874C47.3261 40.4626 47.3449 40.5189 47.3637 40.5941C47.6077 41.421 48.0207 42.3231 48.4337 43.0937L48.4525 43.1125C49.0908 44.2965 49.7103 45.2173 49.7103 45.2173C48.4337 45.6308 47.42 45.8751 47.2135 47.7733C47.0258 49.5399 48.6215 51.532 48.3586 53.3174C48.0583 55.2155 45.355 55.0652 44.3037 57.0385L46.35 57.6211C48.9031 54.6705 50.4612 55.2155 51.1558 54.7269C51.7377 54.2946 51.1933 53.5429 50.9493 52.716C50.2359 50.2164 52.6764 49.9345 53.3334 50.0285C53.3522 50.0285 53.6338 50.0473 53.4461 50.0285C53.6526 48.2243 54.9667 45.7999 55.3233 45.6496C54.4598 47.1343 52.6576 51.9079 55.3609 53.2046C56.6938 53.9376 58.9277 54.7457 58.984 55.8733C59.0779 57.7714 56.9378 58.9179 56.1306 61.1355L58.0266 61.9436C58.571 60.365 60.0353 57.8654 61.5747 56.2304C62.1191 55.6478 61.875 54.539 61.0678 53.7308C60.2606 52.9227 59.7349 51.7199 59.7349 50.4983V49.2768C59.7349 49.2768 60.8613 52.9603 63.9213 51.9454C68.5018 50.442 58.6086 41.064 62.7761 39.88C63.527 39.6732 64.1465 40.6317 63.6209 42.5674C62.5696 46.4577 67 47.4914 67 47.4914C64.3718 44.4844 67.0563 38.8651 62.9639 38.9403C61.6122 38.9591 60.3169 39.9175 60.6923 42.605C61.1804 46.157 64.7097 49.8594 63.1516 50.1976C60.636 50.7426 61.3869 43.8078 58.3082 40.6881C57.332 39.692 58.0078 38.6396 58.1768 38.6396C58.4208 38.696 60.6548 38.8463 60.9364 38.3953ZM22.3771 39.4853C21.2883 37.4368 20.1244 37.324 18.2284 37.4744C19.0544 37.0985 20.4811 37.2489 20.9316 37.6059C21.476 37.1549 21.8327 36.779 22.6775 36.4032V34.9748H25.8876C25.3808 34.1479 24.7988 33.7157 23.8039 33.6405C22.4147 33.6405 20.8378 34.8433 18.585 35.3319C18.0969 33.4338 16.52 32.2686 16.4262 32.1934C14.7929 30.8778 15.1308 30.0885 15.6002 29.8818C16.5013 29.4683 18.9042 29.2804 18.9042 29.2804C18.9042 29.2804 19.2796 28.5662 18.3598 28.1716C18.2659 28.134 18.1345 28.0964 18.0219 28.0776C18.0969 27.7581 18.172 27.2883 18.2096 26.762C19.0919 26.7433 19.8428 26.6305 20.1432 26.2546C20.7251 25.5217 20.3685 23.9618 19.8804 24.1122C19.4486 24.2437 19.167 24.6384 17.9843 24.488C17.6652 23.304 16.9706 22.0261 15.6377 20.8609C15.5626 20.8045 15.4688 20.8045 15.3937 20.8609C15.3186 20.9172 15.2998 21.0112 15.3373 21.1052C15.863 22.0637 16.1446 23.0409 16.276 23.9618C15.6565 23.5671 15.3937 23.0221 14.2861 22.4959C13.385 22.0637 11.2637 22.3268 11.2637 22.3268C10.2499 20.3159 6.57047 20.1467 6.57047 20.1467L7.45279 22.3268H4.01737C5.42533 22.853 5.27515 24.6384 6.73942 25.4653C6.57047 25.5781 6.0636 25.8036 5.78201 26.1607C5.55674 26.4426 5.81956 26.5741 5.57551 27.0064C5.4441 27.2319 4.97478 27.589 4.84337 27.8333C4.73074 28.04 4.89969 28.5286 4.80583 28.7542C4.73074 28.9233 4.31774 28.9609 4.37405 29.13C4.52424 29.5999 4.54301 29.7314 4.35528 29.9382C4.22387 30.0697 3.81087 30.2201 3.96105 30.4456C4.05492 30.5771 4.09246 30.8778 4.01737 31.0282C3.86719 31.3477 3.51051 31.592 3.67946 31.9303C3.7921 32.1558 3.88596 32.3625 3.7921 32.5129C3.66069 32.7196 3.52928 32.9263 3.69824 33.1143C3.77333 33.1894 3.51051 33.4714 3.52928 33.5465C3.56683 33.7721 4.01737 34.0352 3.86719 34.2231C3.54805 34.6178 3.96105 35.144 4.16755 35.4259C4.26142 35.5574 3.97983 35.8018 4.37405 35.8581C4.74951 35.9145 4.26142 36.6287 4.6181 36.9858C4.80583 37.1737 4.86215 37.4932 4.8246 37.7939C4.76828 38.0758 5.21883 38.1698 5.06865 38.4329C5.0311 38.4892 5.2376 38.6772 5.31269 38.9591C5.36901 39.147 5.2376 39.3725 5.29392 39.5981C5.33147 39.7296 5.40656 39.88 5.50042 39.9927C5.6506 40.1431 5.57551 40.331 5.57551 40.5002C5.57551 40.6505 5.74447 40.8008 5.74447 40.8572C5.80078 41.1391 5.87588 41.421 5.91342 41.6841C5.95097 41.8721 5.98851 42.06 6.00729 42.2667C6.02606 42.4547 6.0636 42.6426 6.0636 42.8306C6.08238 43.0373 6.10115 43.244 6.10115 43.4695C6.11992 44.2589 6.0636 45.067 5.8571 45.8939C5.51919 47.2283 4.84337 47.8109 3.56683 48.2243C4.35528 47.3974 4.39283 43.4507 1.98991 43.5071C0.769683 43.5447 0 45.0858 0 46.6081C0 47.8672 0.525638 49.1452 1.70832 49.5211C1.35164 50.3856 1.20146 51.0246 1.87728 52.2461C2.7596 53.806 1.67078 55.084 1.67078 55.084C1.67078 55.084 3.90474 54.6329 3.84842 52.4904C3.81087 50.6863 2.49678 50.9118 2.66573 49.6338C4.50546 49.615 5.2376 49.07 5.2376 49.07C5.2376 49.07 5.29392 50.348 5.81956 52.1146C6.49538 54.3698 3.52928 54.9148 3.5856 56.1928C3.62314 56.9257 4.52424 57.1513 6.10115 59.2749C7.07733 60.5905 7.88456 62 7.88456 62L10.3626 60.91C9.53656 58.8803 5.20006 58.6547 7.47156 56.813C9.78061 54.9336 13.9482 55.3471 11.0947 49.3519C11.7142 50.2728 11.8268 50.6299 12.0521 51.3253C12.7467 50.6863 14.8868 51.1561 14.5301 53.9C14.4175 54.7833 13.6666 55.629 14.2673 56.0612C14.9807 56.5687 16.2009 55.2155 18.9229 57.8278L21.5887 57.0573C20.0681 54.445 17.515 55.535 17.2709 54.4638C17.0269 53.3737 20.3872 49.4459 18.6226 47.3598C16.8016 45.2173 14.1359 47.2846 13.8168 46.4201C13.5164 45.5556 15.5063 44.1649 16.6514 43.0749C17.3273 42.4359 18.3973 41.0076 18.6414 40.0867C17.8717 39.8236 17.2146 40.1243 16.5951 40.4062C15.3561 40.97 17.4774 38.8087 20.2746 40.3686C20.9692 40.6693 19.6739 43.0749 19.5612 43.4507C19.4674 43.7514 19.7114 43.9394 19.8428 44.1837C20.3309 44.0709 20.9692 43.6951 20.4999 44.1649L19.8991 44.3904C19.7302 45.9691 21.7201 46.4013 21.7201 46.4013C21.7201 46.4013 21.4948 44.7663 21.5511 44.334C21.9454 41.5526 22.6212 39.9363 22.3771 39.4853ZM35.0675 45.7811C34.9924 45.3113 34.9173 44.8415 34.8235 44.3904H33.0213V45.7811H35.0675ZM31.7635 53.6932C31.8762 53.6932 31.9512 53.7872 31.9512 53.8812C31.9512 53.9939 31.8574 54.0691 31.7635 54.0691C31.6509 54.0691 31.5758 53.9751 31.5758 53.8812C31.5758 53.7684 31.6697 53.6932 31.7635 53.6932ZM33.9787 53.6932C34.0913 53.6932 34.1664 53.7872 34.1664 53.8812C34.1664 53.9939 34.0726 54.0691 33.9787 54.0691C33.8661 54.0691 33.791 53.9751 33.791 53.8812C33.791 53.7684 33.8661 53.6932 33.9787 53.6932ZM36.1939 53.6932C36.3065 53.6932 36.3816 53.7872 36.3816 53.8812C36.3816 53.9939 36.2878 54.0691 36.1939 54.0691C36.0813 54.0691 36.0062 53.9751 36.0062 53.8812C35.9874 53.7684 36.0813 53.6932 36.1939 53.6932ZM29.5483 53.6932C29.661 53.6932 29.7361 53.7872 29.7361 53.8812C29.7361 53.9939 29.6422 54.0691 29.5483 54.0691C29.4357 54.0691 29.3606 53.9751 29.3606 53.8812C29.3606 53.7684 29.4545 53.6932 29.5483 53.6932ZM31.7635 46.0255C31.8762 46.0255 31.9512 46.1194 31.9512 46.2134C31.9512 46.3262 31.8574 46.4013 31.7635 46.4013C31.6509 46.4013 31.5758 46.3074 31.5758 46.2134C31.5758 46.1006 31.6697 46.0255 31.7635 46.0255ZM33.9787 46.0255C34.0913 46.0255 34.1664 46.1194 34.1664 46.2134C34.1664 46.3262 34.0726 46.4013 33.9787 46.4013C33.8661 46.4013 33.791 46.3074 33.791 46.2134C33.791 46.1006 33.8661 46.0255 33.9787 46.0255ZM36.1939 46.0255C36.3065 46.0255 36.3816 46.1194 36.3816 46.2134C36.3816 46.3262 36.2878 46.4013 36.1939 46.4013C36.0813 46.4013 36.0062 46.3074 36.0062 46.2134C35.9874 46.1006 36.0813 46.0255 36.1939 46.0255ZM29.5483 46.0255C29.661 46.0255 29.7361 46.1194 29.7361 46.2134C29.7361 46.3262 29.6422 46.4013 29.5483 46.4013C29.4357 46.4013 29.3606 46.3074 29.3606 46.2134C29.3606 46.1006 29.4545 46.0255 29.5483 46.0255ZM30.9187 44.3904C30.8249 44.8415 30.7498 45.3113 30.6747 45.7811H32.7209V44.3904H30.9187ZM30.5621 46.6456C30.4494 47.6793 30.3931 48.7505 30.3931 49.8218C30.3931 51.0058 30.4682 52.2085 30.5996 53.4489H32.7209V46.6456H30.5621ZM30.7122 54.3134C30.7686 54.7645 30.8437 55.2343 30.9375 55.7042H32.7397V54.3134H30.7122ZM30.6372 55.7042C30.5621 55.2343 30.487 54.7645 30.4307 54.3134H28.7411C28.9288 54.8209 29.1541 55.2907 29.4169 55.7042H30.6372ZM30.318 53.4489C30.1866 52.2085 30.1115 51.0058 30.1115 49.8218C30.1115 48.7317 30.1678 47.6793 30.2805 46.6456H28.4595C28.4407 46.7396 28.4032 46.8524 28.3844 46.9464C28.1404 47.9048 28.009 48.9573 28.009 50.0473C28.009 51.1561 28.1404 52.1898 28.3844 53.1482C28.4032 53.2422 28.4407 53.355 28.4595 53.4489H30.318ZM30.3931 45.7811C30.4682 45.3113 30.5433 44.8415 30.6372 44.3904H29.4169C29.1541 44.8039 28.9288 45.2737 28.7411 45.7811H30.3931ZM35.1051 44.3904C35.1989 44.8415 35.274 45.3113 35.3491 45.7811H37.0011C36.8134 45.2737 36.5881 44.8039 36.3253 44.3904H35.1051ZM35.4618 46.6456C35.5744 47.6793 35.6307 48.7505 35.6307 49.8218C35.6307 51.0058 35.5556 52.2085 35.4242 53.4489H37.2827C37.3015 53.355 37.339 53.2422 37.3578 53.1482C37.6018 52.1898 37.7333 51.1373 37.7333 50.0473C37.7333 48.9385 37.6018 47.886 37.3578 46.9464C37.339 46.8524 37.3015 46.7396 37.2827 46.6456H35.4618ZM35.3303 54.3134C35.274 54.7645 35.1989 55.2343 35.1238 55.7042H36.3441C36.6069 55.2907 36.8322 54.8209 37.0199 54.3134H35.3303ZM34.8235 55.7042C34.8986 55.2343 34.9737 54.7645 35.0488 54.3134H33.0401V55.7042H34.8235ZM35.1426 53.4489C35.274 52.2085 35.3491 51.0058 35.3491 49.8218C35.3491 48.7317 35.2928 47.6793 35.1802 46.6456H33.0213V53.4489H35.1426ZM36.4192 17.8915L36.9823 19.2634C37.9961 19.2258 38.6156 19.1319 38.6156 18.9063C38.6344 18.6244 37.7708 18.211 36.4192 17.8915ZM53.7652 12.6105C54.4598 11.8963 54.5537 10.4116 52.7702 9.6599C52.9955 11.2574 52.0006 12.5353 50.9493 11.9527C48.8467 10.9191 47.4012 11.7272 46.6128 12.7232C44.8857 10.017 44.8669 8.62625 45.7117 8.06244C46.5189 7.53622 47.7204 7.87451 48.1521 9.41558C49.4099 8.00606 49.1283 6.91604 48.3023 6.4274C49.3911 5.39376 48.7153 4.60443 49.241 3.68354C48.1897 4.097 47.4012 3.02577 46.1059 4.52925C45.6929 3.90906 44.5478 3.15732 43.046 4.81115C44.6604 5.14944 45.4489 6.20188 44.7167 6.95362C43.947 7.74295 43.6842 8.45711 43.6655 9.6411C43.1023 9.47196 42.7456 9.0773 42.5579 8.41952C42.051 10.7687 43.3088 10.4116 44.2286 12.0655C44.698 12.8924 44.9608 13.7005 45.0171 14.4711C45.0922 15.3356 44.9608 16.1061 44.698 16.7639C43.6279 16.8954 42.6329 15.6926 43.2712 14.3019C42.3701 14.7154 41.6943 15.5987 42.2763 16.9894C41.0185 16.0685 40.0048 16.5008 39.3853 17.3089C41.394 16.8954 42.4077 19.301 40.5679 20.1467C40.0799 20.3346 39.7607 20.3346 39.4979 20.3346H26.2819C26.0191 20.3346 25.6999 20.3346 25.2118 20.1467C23.3721 19.3198 24.3858 16.8954 26.3945 17.3089C25.775 16.5008 24.7613 16.0685 23.5035 16.9894C24.0667 15.5987 23.4096 14.7154 22.5085 14.3019C23.1656 15.6926 22.1519 16.8954 21.0818 16.7639C20.8002 16.1061 20.6688 15.3356 20.7627 14.4711C20.8378 13.7005 21.1006 12.8924 21.5511 12.0655C22.471 10.4116 23.7288 10.7687 23.2219 8.41952C23.0154 9.0773 22.6775 9.47196 22.1143 9.6411C22.0955 8.45711 21.8515 7.74295 21.063 6.95362C20.3309 6.20188 21.1006 5.14944 22.7338 4.81115C21.232 3.13853 20.0869 3.90906 19.6739 4.52925C18.3785 3.02577 17.6089 4.097 16.5388 3.68354C17.0644 4.60443 16.3886 5.39376 17.4774 6.4274C16.6514 6.89724 16.3511 8.00606 17.6276 9.41558C18.0594 7.85571 19.2609 7.53622 20.0869 8.06244C20.9316 8.62625 20.9316 10.017 19.1858 12.7232C18.3973 11.7084 16.9518 10.9003 14.8493 11.9527C13.798 12.5541 12.803 11.2761 13.0283 9.6599C11.2449 10.4116 11.3388 11.8963 12.0333 12.6105C10.2124 13.381 10.9821 14.4523 10.2499 15.3168C11.2824 15.11 11.8268 15.9933 13.1409 15.298C13.3287 16.3128 14.2485 16.9518 15.9944 16.1813C14.9056 15.2228 14.5113 13.9448 15.2998 13.4562C16.4262 12.7608 18.6226 13.1555 18.9042 16.7075C19.3359 22.1388 23.541 21.6502 23.8977 25.4089C28.4407 24.6384 29.079 28.1904 27.5209 28.6226C26.7512 28.8293 25.9815 28.0212 26.4508 27.2131C25.9064 27.1755 25.3996 27.3447 25.3996 27.9273C24.6674 27.8145 24.2169 27.9836 23.541 28.0964C22.5836 28.2843 21.7576 27.7017 21.9454 26.4238C20.3121 27.2319 20.6313 28.3595 21.2132 28.8857C19.7489 29.5623 20.406 30.408 19.8428 31.141C20.6876 30.9342 21.1381 31.6484 22.2082 31.0282C22.3959 31.8739 23.1656 32.3437 24.5548 31.6672C23.6349 30.9154 23.4284 29.7314 24.2544 29.4307C25.1555 29.1112 26.0191 29.5811 25.7375 31.2537C27.0328 31.4604 28.4971 32.0994 28.9476 34.4862H36.926C37.3953 32.0994 38.8409 31.4417 40.1362 31.2537C39.8546 29.5999 40.7181 29.1112 41.6192 29.4307C42.4452 29.7314 42.2387 30.9342 41.3189 31.6672C42.708 32.3437 43.4777 31.8739 43.6655 31.0282C44.7167 31.6484 45.1861 30.9342 46.0308 31.141C45.4676 30.408 46.1247 29.5623 44.6604 28.8857C45.2236 28.3407 45.5615 27.2131 43.9283 26.4238C44.116 27.7017 43.29 28.2655 42.3326 28.0964C41.6568 27.9648 41.2062 27.8145 40.4741 27.9273C40.4741 27.3447 39.9672 27.1567 39.4228 27.2131C39.8921 28.0024 39.1224 28.8293 38.3528 28.6226C36.7946 28.1904 37.4329 24.6384 41.9759 25.4089C42.3138 21.6314 46.5377 22.12 46.9695 16.7075C47.2511 13.1555 49.4475 12.7608 50.5738 13.4562C51.3623 13.9448 50.9493 15.2228 49.8792 16.1813C51.6063 16.9518 52.5262 16.3128 52.7327 15.298C54.0656 15.9933 54.5912 15.11 55.6237 15.3356C54.8165 14.4523 55.5862 13.3622 53.7652 12.6105ZM35.0675 2.85662C36.7383 9.02092 36.6632 10.9567 35.0675 16.4256C35.0112 16.6323 34.8047 16.7451 34.5982 16.6887C34.3917 16.6323 34.2791 16.4256 34.3354 16.2189C35.4618 12.3662 35.4618 7.17915 34.3354 3.04456C34.2791 2.83783 34.4105 2.64989 34.5982 2.59351C34.8047 2.55593 35.0112 2.66869 35.0675 2.85662ZM38.0899 7.36708C38.7282 12.0279 38.6531 12.836 36.8885 16.8015C36.8134 16.9894 36.5693 17.0646 36.3816 16.9894C36.1939 16.8954 36.1 16.6887 36.1939 16.5008C37.339 14.02 37.7896 10.468 37.339 7.47984C37.3015 7.27311 37.4517 7.08518 37.6582 7.06638C37.8647 7.01 38.0712 7.16035 38.0899 7.36708ZM27.7086 7.36708C27.0703 12.0279 27.1454 12.836 28.9101 16.8015C29.0039 16.9894 29.2292 17.0646 29.4169 16.9894C29.6047 16.8954 29.6985 16.6887 29.6047 16.5008C28.4595 14.02 28.009 10.468 28.4595 7.47984C28.4971 7.27311 28.3469 7.08518 28.1404 7.06638C27.9339 7.01 27.7274 7.16035 27.7086 7.36708ZM30.7122 2.85662C29.0415 9.02092 29.1166 10.9567 30.7122 16.4256C30.7686 16.6323 30.9751 16.7451 31.1816 16.6887C31.3881 16.6323 31.5007 16.4256 31.4444 16.2189C30.318 12.3662 30.318 7.17915 31.4444 3.04456C31.5007 2.83783 31.3693 2.64989 31.1816 2.59351C30.9751 2.55593 30.7498 2.66869 30.7122 2.85662ZM32.5144 0.375871C32.5144 0.375871 32.1014 12.3098 32.5144 16.1625C32.5332 16.3128 32.6834 16.5383 32.8899 16.5383C33.0964 16.5383 33.2466 16.3504 33.2653 16.1625C33.7159 12.3286 33.2653 0.375871 33.2653 0.375871C33.2653 0.169142 33.0964 0 32.8899 0C32.6834 0 32.5144 0.169142 32.5144 0.375871ZM23.71 35.7266V47.341C23.71 53.9751 28.4407 56.7378 32.8523 61.0791C32.8523 61.0791 39.0286 55.3471 40.4365 53.3174C41.8257 51.2877 41.9571 49.4459 41.9571 47.3222V35.7078H23.71V35.7266ZM41.0748 42.5299H24.705V36.7226H41.0748V42.5299ZM27.9714 41.5902C28.7599 41.5902 29.3231 41.0828 29.3231 41.0828L29.7173 38.3201L28.7974 38.7711L27.9714 37.6999L27.1454 38.7711L26.2256 38.3201L26.6198 41.0828C26.5822 41.0828 27.183 41.5902 27.9714 41.5902ZM37.8271 41.5902C38.6156 41.5902 39.1788 41.0828 39.1788 41.0828L39.573 38.3201L38.6531 38.7711L37.8271 37.6999L37.0011 38.7711L36.0813 38.3201L36.4755 41.0828C36.4379 41.0828 37.0387 41.5902 37.8271 41.5902ZM14.0796 23.7551C14.3048 23.7551 14.4926 23.8866 14.4926 24.037C14.4926 24.1873 14.4363 24.4316 13.9669 24.2813C13.4976 24.1309 13.4601 24.0182 13.4788 23.8866C13.4976 23.7551 13.8543 23.7551 14.0796 23.7551ZM2.04623 44.4092C2.66573 44.2401 3.3791 45.2361 3.19137 46.2134C2.64696 48.9385 1.4455 49.0136 0.844774 46.4765C0.657047 45.7624 1.40796 44.5972 2.04623 44.4092ZM14.2673 28.6038C13.2723 27.8521 14.042 26.7057 15.6189 26.7057C15.8254 26.7057 16.0507 26.7057 16.276 26.7245C16.1821 27.5138 16.0132 28.134 15.9193 28.4535C15.2247 28.6602 14.5677 28.8293 14.2673 28.6038ZM50.8179 23.6987C50.8179 23.9806 51.8692 23.9618 51.8504 23.4168C51.8504 23.2664 51.5876 23.304 51.3811 23.3792C51.1182 23.4544 50.8179 23.4732 50.8179 23.6987Z"
          fill="#d3d3d3"/>
</svg>
