<svg width="80" height="104" viewBox="0 0 80 104" fill="none" xmlns="http://www.w3.org/2000/svg">
<path d="M78.4746 43.695C78.0546 42.96 77.9496 42.225 77.7396 41.49C77.5296 40.125 77.4246 38.655 77.0046 37.29C76.5846 35.61 76.4796 33.825 75.7446 32.25C75.6396 32.04 75.6396 31.725 75.6396 31.515C75.8496 30.465 75.7446 29.415 75.4296 28.365C75.2196 27.84 75.0096 27.42 74.7996 27C74.4846 26.265 73.9596 25.53 73.3296 25.005C72.9096 24.69 72.6996 24.165 72.4896 23.85C72.2796 23.64 72.1746 23.22 72.3846 22.8C72.4896 22.59 72.3846 22.38 72.2796 22.275C71.9646 21.645 71.6496 21.015 71.3346 20.385C70.7046 18.705 69.9696 17.13 69.3396 15.45C69.1296 14.82 68.7096 14.295 68.4996 13.56C68.3946 12.93 67.9746 12.3 67.7646 11.775C67.5546 11.355 67.1346 10.935 66.7146 10.515C65.8746 9.46503 65.1396 8.31003 64.0896 7.36503C63.5646 6.84003 62.9346 6.31503 62.1996 6.10503C61.9896 6.10503 61.8846 6.00003 61.7796 5.79003C61.2546 5.26503 60.7296 4.84503 59.9946 4.63503C59.2596 4.42503 58.6296 4.11003 57.9996 3.79503C57.2646 3.37503 56.4246 3.27003 55.5846 2.95503C54.7446 2.64003 53.9046 2.53503 53.1696 2.32503C51.8046 1.90503 50.5446 2.01003 49.1796 1.80003C48.6546 1.69503 48.0246 1.69503 47.4996 1.48503C46.8696 1.27503 46.1346 1.06503 45.5046 1.06503C44.5596 1.06503 43.7196 1.06503 42.7746 0.960034C41.7246 0.855034 40.7796 0.960035 39.7296 0.750035C38.4696 0.540035 37.3146 0.855034 36.0546 0.645034C35.2146 0.540034 34.1646 0.540034 33.3246 0.645034C32.4846 0.855034 31.5396 0.960034 30.6996 1.17003C28.7046 1.80003 26.7096 2.11503 24.7146 2.74503C24.2946 2.85003 23.7696 2.74503 23.3496 2.95503C22.7196 3.16503 22.1946 3.58503 21.5646 3.69003C20.4096 4.00503 19.2546 4.32003 18.0996 4.95003C17.0496 5.47503 15.9996 6.10504 14.8446 6.63004C14.1096 6.94504 13.5846 7.57503 12.9546 7.99503C12.3246 8.41503 11.7996 8.83503 11.2746 9.36003C10.8546 9.78003 10.4346 10.095 10.1196 10.62C9.59464 11.565 9.17463 12.51 8.64963 13.455C7.59963 15.24 7.07463 17.235 6.54963 19.23C6.44463 19.755 6.23463 20.175 6.02463 20.7C5.70963 21.435 5.28963 22.17 5.18463 23.01C5.07963 24.27 4.65963 25.425 3.81963 26.475C3.60963 26.685 3.39963 27 3.18963 27.21C2.55963 28.05 2.13963 28.995 1.92963 30.045C1.61463 31.305 1.29963 32.565 1.71963 33.825C1.92963 34.35 1.92963 34.875 1.71963 35.295C1.29963 36.345 1.19463 37.5 1.08963 38.55C0.984633 39.6 0.879633 40.545 0.669633 41.595C0.564633 42.435 0.354634 43.38 0.354634 44.22C0.249634 45.48 0.354634 46.845 0.354634 48.21C0.354634 48.945 0.669633 49.68 0.564633 50.415C0.459633 51.57 0.354634 52.83 0.249634 53.985C0.144634 55.035 0.144634 56.085 0.354634 57.24C0.774634 59.235 1.08963 61.23 1.50963 63.225C1.61463 63.645 1.71963 64.065 1.71963 64.485C2.03463 66.165 2.24463 67.74 2.34963 69.42C2.34963 69.525 2.34963 69.63 2.34963 69.63C1.92963 70.68 2.45463 71.73 2.03463 72.78C2.24463 73.2 2.45463 73.62 2.55963 74.145C2.76963 75.195 3.08463 76.245 3.60963 77.19C4.13463 78.135 4.86963 79.08 5.39463 80.025C5.91963 80.865 6.54963 81.705 6.65463 82.755C6.75963 84.33 7.38963 85.695 8.22963 87.06C8.54463 87.585 9.06964 88.11 9.38463 88.635C9.69964 89.475 10.3296 90.105 10.7496 90.84C10.7496 90.945 10.9596 91.05 10.9596 91.05C11.4846 90.735 11.3796 91.26 11.4846 91.365C11.6946 91.575 11.5896 91.995 11.7996 92.1C12.4296 92.415 12.5346 93.045 12.8496 93.57C12.9546 93.78 13.1646 94.095 13.3746 94.305C14.1096 95.04 14.9496 95.67 15.7896 96.195C16.4196 96.615 16.9446 97.245 17.6796 97.56C18.5196 97.98 19.5696 98.19 20.3046 98.925C20.6196 99.24 21.0396 99.45 21.4596 99.66C22.0896 99.975 22.6146 100.29 23.3496 100.5C24.3996 100.71 25.3446 100.815 26.3946 101.13C27.4446 101.445 28.3896 101.76 29.5446 101.97C29.7546 102.075 29.9646 102.075 30.1746 101.865C30.3846 102.285 30.8046 102.075 31.1196 102.18C32.4846 102.39 33.8496 102.81 35.2146 103.125C37.1046 103.545 38.9946 103.545 40.8846 103.545C41.6196 103.545 42.4596 103.545 43.2996 103.44C44.8746 103.23 46.3446 103.125 47.9196 102.915C48.1296 102.915 48.2346 102.705 48.5496 102.705C49.1796 102.81 49.9146 102.705 50.5446 102.6C51.6996 102.39 52.7496 102.18 53.9046 101.865C54.6396 101.655 55.3746 101.55 55.8996 101.025C56.4246 100.605 57.2646 100.29 57.7896 100.29C57.7896 100.29 57.8946 100.29 57.8946 100.185C57.9996 99.66 58.5246 99.765 58.8396 99.66C60.0996 99.345 61.3596 98.925 62.4096 98.19C63.3546 97.56 64.2996 96.825 65.2446 96.3C65.4546 96.195 65.7696 95.985 65.9796 95.775C66.3996 95.46 66.7146 95.04 67.1346 94.83C68.1846 94.41 68.8146 93.57 69.4446 92.73C69.8646 92.205 70.0746 91.575 70.4946 91.05C71.5446 89.475 72.5946 88.005 73.4346 86.325C74.1696 84.855 74.7996 83.49 75.4296 81.915C75.8496 80.76 76.1646 79.5 76.3746 78.24C76.5846 77.4 76.8996 76.665 76.6896 75.72C76.6896 75.51 76.7946 75.405 76.8996 75.195C77.3196 74.25 77.7396 73.2 78.1596 72.15C78.4746 71.415 78.4746 70.575 78.7896 69.945C79.3146 68.79 79.6296 67.635 79.3146 66.375C79.2096 65.85 79.2096 65.325 79.1046 64.905C78.9996 64.59 78.7896 64.17 78.8946 63.855C78.9996 63.015 78.8946 62.175 78.8946 61.335C78.8946 61.02 78.7896 60.6 78.7896 60.285C78.9996 58.185 78.8946 55.98 78.9996 53.88C79.1046 51.99 78.8946 50.1 78.5796 48.21C78.4746 47.055 78.1596 45.9 78.4746 44.745C78.6846 44.64 78.6846 44.115 78.4746 43.695ZM67.2396 21.96C67.5546 22.695 67.7646 23.535 67.9746 24.27C68.0796 24.585 68.0796 24.795 67.7646 25.005C67.2396 25.215 66.9246 25.635 66.3996 25.95C66.1896 26.055 65.9796 26.37 65.8746 26.79C65.4546 26.265 65.5596 25.635 65.3496 25.215C65.0346 24.48 64.8246 23.64 64.4046 22.905C64.1946 22.485 64.1946 22.17 64.7196 22.065C65.2446 21.96 65.6646 21.75 66.0846 21.435C66.5046 21.225 67.0296 21.54 67.2396 21.96ZM15.9996 10.725C16.2096 10.305 16.6296 9.88503 17.1546 9.67504C18.4146 9.04504 19.6746 8.52003 20.9346 7.99503C21.8796 7.57503 22.9296 7.47004 23.7696 7.05003C25.1346 6.31503 26.4996 6.21003 27.9696 6.00003C29.2296 5.79003 30.5946 5.79003 31.8546 5.58003C32.4846 5.47503 33.0096 5.58003 33.6396 5.26503C33.9546 5.16003 34.3746 5.26503 34.7946 5.26503C35.7396 5.26503 36.6846 5.05503 37.6296 5.26503C38.0496 5.37003 38.4696 4.95003 38.8896 4.95003C39.8346 4.84503 40.6746 4.84503 41.6196 4.95003C42.2496 4.95003 42.9846 4.84503 43.6146 5.05503C44.6646 5.26503 45.7146 5.26503 46.7646 5.47503C48.0246 5.68503 49.2846 5.79003 50.6496 5.79003C51.3846 5.79003 52.2246 5.89503 52.9596 6.21003C53.6946 6.63003 54.5346 6.73503 55.3746 6.84003C56.1096 6.94503 56.6346 7.36503 57.2646 7.47003C58.6296 7.78503 59.5746 8.73003 60.7296 9.46503C61.2546 9.78003 61.2546 9.78003 61.1496 10.515C61.1496 10.83 61.1496 11.145 61.2546 11.46C61.2546 11.775 61.0446 11.88 60.9396 11.67C60.3096 11.145 59.6796 10.935 58.9446 10.725C58.3146 10.515 57.7896 10.095 57.0546 10.095C55.6896 9.99004 54.4296 9.57003 53.0646 9.25504C51.5946 8.94003 50.0196 8.94003 48.4446 8.94003C47.6046 8.94003 46.7646 8.52003 45.9246 8.62504C44.9796 8.73003 44.1396 8.31004 43.1946 8.73004C42.8796 8.83504 42.4596 8.62504 42.1446 8.62504C40.7796 8.52003 39.3096 8.52003 37.9446 8.52003C37.8396 8.52003 37.6296 8.52003 37.6296 8.41503C37.4196 8.10003 37.3146 8.31003 37.2096 8.41503C36.9996 8.62503 36.6846 8.52003 36.3696 8.52003C35.7396 8.41503 35.2146 8.94003 34.5846 8.94003C33.6396 8.83503 32.6946 8.94003 31.7496 9.04503C30.9096 9.15003 29.9646 8.94003 29.1246 9.25504C29.0196 9.25504 29.0196 9.25504 28.9146 9.25504C27.7596 9.15003 26.8146 9.36003 25.8696 9.99003C25.6596 10.095 25.2396 10.2 25.0296 10.095C24.7146 9.99004 24.5046 10.095 24.2946 10.2C23.5596 10.41 22.7196 10.515 22.0896 10.935C21.1446 11.46 20.0946 11.565 19.1496 12.09C18.8346 12.3 18.5196 12.615 18.2046 12.72C17.9946 12.72 17.8896 13.14 17.5746 12.825C17.5746 12.825 17.2596 12.93 17.1546 13.035C16.8396 13.56 16.2096 13.665 15.7896 14.085C15.5796 14.295 15.4746 14.085 15.4746 13.98C15.4746 13.77 15.4746 13.56 15.3696 13.35C15.1596 12.405 15.5796 11.565 15.9996 10.725ZM58.4196 15.765C58.3146 15.66 58.1046 15.345 57.7896 15.555C57.0546 16.08 56.4246 16.605 55.5846 17.025C55.0596 17.34 54.6396 17.76 54.1146 17.97C53.4846 18.285 52.9596 18.705 52.4346 19.02C52.2246 19.125 52.0146 19.23 51.9096 19.44C51.8046 19.545 51.6996 19.755 51.4896 19.545C51.1746 19.335 50.8596 19.65 50.7546 19.755C50.2296 20.07 49.5996 19.965 49.0746 20.07C47.9196 20.385 46.7646 20.49 45.6096 20.595C44.7696 20.7 43.8246 21.12 42.9846 20.91C42.7746 20.805 42.8796 21.12 42.6696 21.12C42.6696 20.91 42.5646 20.805 42.8796 20.7C43.8246 20.385 44.5596 19.65 45.2946 19.125C46.1346 18.6 46.7646 17.865 47.7096 17.655H47.8146C48.5496 16.92 49.5996 16.395 50.4396 15.87C50.6496 15.765 50.8596 15.555 50.9646 15.345C50.9646 15.24 51.3846 15.135 51.5946 15.135C51.9096 15.135 52.1196 15.03 52.2246 14.82C52.5396 14.505 52.8546 14.19 53.1696 13.98C53.5896 13.665 54.1146 13.35 54.1146 12.615C54.5346 12.825 54.8496 13.035 55.1646 13.14L55.2696 13.245C55.6896 13.035 56.0046 13.455 56.4246 13.455C56.5296 13.455 56.5296 13.455 56.6346 13.455C57.1596 13.98 57.9996 13.98 58.5246 14.505C58.7346 14.715 58.9446 15.135 58.9446 15.555C58.8396 16.08 58.7346 16.5 58.5246 17.025C58.4196 17.445 57.8946 17.445 57.5796 17.55C56.9496 17.76 56.4246 18.18 55.6896 18.39C55.6896 17.97 55.5846 17.655 56.1096 17.655C56.4246 17.655 56.3196 17.235 56.5296 17.13C57.0546 16.815 57.4746 16.29 57.9996 16.08C58.3146 16.08 58.5246 15.975 58.4196 15.765ZM23.9796 18.495C24.7146 17.97 25.5546 17.55 26.2896 17.13C26.7096 16.92 27.1296 16.395 27.7596 16.395C27.9696 16.395 28.0746 16.29 28.1796 16.08C28.2846 15.87 28.3896 15.765 28.5996 15.87C28.7046 15.87 28.8096 15.87 28.8096 15.765C29.0196 15.24 29.5446 15.345 29.7546 15.135C30.1746 14.61 31.0146 14.715 31.3296 14.085C32.2746 14.085 32.9046 13.245 33.7446 12.825C33.9546 12.72 34.2696 12.615 34.2696 12.405C34.3746 11.775 34.7946 11.985 35.2146 11.88C36.7896 11.775 38.2596 11.67 39.8346 11.565C40.2546 11.565 40.5696 11.46 40.8846 11.67C40.9896 11.67 41.5146 11.775 41.7246 11.565C41.9346 11.46 42.0396 11.565 42.0396 11.67C42.0396 11.775 42.1446 11.985 41.9346 12.09C41.3046 12.195 40.8846 12.72 40.2546 13.035C39.4146 13.56 38.4696 13.98 37.6296 14.505C36.9996 14.925 36.3696 15.345 35.7396 15.66C34.6896 16.185 33.7446 17.025 32.7996 17.655C32.1696 18.075 31.4346 18.39 30.8046 18.705C30.4896 18.81 30.1746 19.23 29.8596 19.44C29.4396 19.755 28.9146 19.86 28.4946 20.28C28.0746 20.7 27.4446 20.49 26.8146 20.385C26.3946 20.28 25.8696 20.07 25.4496 20.07C24.7146 20.175 24.1896 19.86 23.6646 19.44C23.4546 19.335 23.1396 19.545 23.1396 19.125C23.4546 19.02 23.7696 18.705 23.9796 18.495ZM23.0346 17.655C22.7196 17.97 22.4046 18.18 21.9846 18.285C21.6696 18.39 21.2496 18.285 21.0396 18.81C21.0396 18.915 20.6196 18.915 20.4096 18.705C19.9896 18.495 19.7796 18.075 19.2546 17.97C18.9396 17.865 19.0446 17.55 19.1496 17.34C19.4646 16.71 19.8846 16.185 20.5146 15.66C21.0396 15.345 21.5646 15.24 22.0896 14.925C22.8246 15.03 23.2446 14.715 23.8746 14.4C24.7146 13.875 25.6596 13.56 26.6046 13.35C27.1296 13.245 27.4446 12.825 27.9696 12.825C28.4946 12.825 29.0196 12.615 29.5446 12.51C30.0696 12.405 30.6996 12.195 31.3296 12.3C31.5396 12.3 31.7496 12.405 31.6446 12.72C31.6446 12.93 31.4346 13.14 31.2246 13.14C30.4896 13.245 29.7546 13.56 29.2296 14.085C29.1246 14.19 29.0196 14.4 28.8096 14.19C28.5996 13.98 28.3896 14.4 28.2846 14.505C27.8646 14.82 27.2346 15.345 26.7096 15.45C26.6046 15.45 26.6046 15.66 26.4996 15.66C26.3946 15.765 26.3946 15.87 26.0796 15.765C25.6596 15.555 25.4496 16.185 25.1346 16.29C24.6096 16.5 24.0846 16.815 23.5596 17.13C23.3496 17.445 23.1396 17.55 23.0346 17.655ZM31.1196 21.015C31.7496 20.7 32.3796 20.175 33.0096 19.86C33.3246 19.65 33.6396 19.335 34.0596 19.02C35.1096 18.18 36.2646 17.655 37.4196 17.025C37.6296 16.92 37.8396 16.71 37.9446 16.5C38.3646 15.765 39.4146 15.87 39.8346 15.135C40.2546 14.4 40.8846 14.19 41.6196 13.77C42.2496 13.455 42.7746 13.035 43.4046 12.825C43.7196 12.72 43.7196 12.3 43.7196 11.985C43.7196 11.775 43.7196 11.67 44.0346 11.775C44.9796 11.985 45.9246 11.985 46.8696 11.985C47.2896 11.985 47.6046 12.3 48.1296 12.195H48.9696C49.1796 11.88 49.1796 12.195 49.2846 12.3C49.9146 12.3 50.5446 12.51 51.1746 12.405C51.4896 12.3 51.8046 12.405 52.1196 12.195C52.3296 12.09 52.3296 12.195 52.3296 12.405C52.3296 12.51 52.3296 12.72 52.2246 12.72C51.6996 12.825 51.3846 13.245 50.8596 13.35C50.3346 13.455 50.0196 13.875 49.7046 14.295C49.7046 14.4 49.5996 14.505 49.5996 14.505C49.0746 14.4 48.7596 14.82 48.3396 15.03C47.9196 15.345 47.6046 15.87 47.1846 15.975C46.3446 16.185 45.8196 16.815 45.1896 17.235C44.4546 17.76 43.6146 18.075 42.9846 18.705C42.5646 19.125 41.9346 19.44 41.4096 19.755C40.6746 20.07 40.0446 20.595 39.2046 20.91C38.5746 21.12 37.9446 21.33 37.4196 21.645C37.3146 21.645 37.2096 21.75 37.2096 21.75C36.5796 21.33 35.7396 21.54 35.0046 21.54C34.0596 21.54 33.1146 21.645 32.1696 21.435C31.8546 21.33 31.5396 21.33 31.2246 21.435C31.0146 21.435 30.9096 21.54 30.9096 21.33C30.9096 21.225 31.0146 21.12 31.1196 21.015ZM11.9046 15.03C12.0096 14.925 12.1146 14.715 12.3246 15.03H12.4296C12.6396 15.135 12.6396 15.345 12.7446 15.555C12.7446 15.555 12.7446 15.555 12.7446 15.66C12.8496 15.765 12.8496 15.87 12.9546 15.975C13.2696 15.975 13.5846 16.29 13.4796 16.71C13.5846 16.815 13.5846 16.92 13.6896 17.025C13.7946 17.235 13.8996 17.445 14.0046 17.76C15.7896 19.545 18.8346 20.805 20.6196 21.435C20.7246 21.435 20.9346 21.54 21.0396 21.54C21.1446 21.54 21.2496 21.54 21.3546 21.645C21.4596 21.645 21.6696 21.75 21.7746 21.855C21.9846 21.855 22.0896 21.96 22.2996 21.96C22.4046 21.96 22.5096 21.96 22.6146 21.855C22.6146 21.855 22.7196 21.96 22.8246 21.96C22.8246 22.065 22.9296 22.065 22.9296 22.065C24.5046 22.38 25.9746 22.695 27.5496 23.01C27.6546 23.01 27.7596 22.905 27.8646 22.905C27.8646 23.01 27.9696 23.01 27.9696 23.115C28.3896 23.22 28.7046 23.325 29.0196 23.43C29.6496 23.43 30.2796 23.85 30.9096 23.745C31.2246 23.745 31.6446 23.745 31.9596 23.745C32.5896 23.85 33.2196 24.06 33.8496 24.06C34.1646 24.06 34.5846 24.06 34.8996 23.955C36.1596 23.85 37.4196 23.955 38.6796 23.955C39.6246 23.85 40.4646 23.745 41.4096 23.535C42.0396 23.43 42.7746 23.43 43.4046 23.325C44.0346 23.115 44.7696 23.115 45.5046 22.905C45.8196 22.8 46.0296 22.905 46.3446 22.8C46.8696 22.695 47.3946 22.485 47.9196 22.695C48.0246 22.695 48.4446 22.485 48.7596 22.38C49.3896 21.96 50.1246 21.96 50.7546 21.855C51.5946 21.855 52.4346 21.75 53.0646 21.435C53.5896 21.225 54.2196 21.12 54.7446 20.91C55.2696 20.7 55.6896 20.91 56.1096 20.805C56.8446 20.595 57.6846 20.7 58.4196 20.28C58.4196 20.28 58.5246 20.28 58.6296 20.385H58.7346C58.7346 20.175 58.8396 20.07 59.1546 19.965C59.9946 19.65 60.7296 19.23 61.3596 18.705C61.4646 18.6 61.7796 18.495 61.9896 18.39C62.6196 17.97 63.3546 17.55 63.8796 17.025C64.5096 16.395 65.1396 15.87 65.4546 14.925C65.6646 15.24 65.7696 15.45 65.5596 15.66C65.2446 15.975 65.1396 16.5 65.0346 16.92V17.025C65.3496 17.13 65.5596 17.445 65.2446 17.76C62.5146 20.385 58.7346 21.645 55.1646 22.695C52.2246 23.535 49.0746 24.375 45.9246 24.795C44.6646 24.9 43.4046 25.32 42.1446 25.53C41.8296 25.635 41.1996 25.74 40.5696 25.74C40.4646 25.845 40.3596 25.845 40.1496 25.845C36.5796 25.425 33.0096 26.265 29.4396 25.53C28.1796 25.32 26.8146 25.11 25.5546 24.795C25.4496 24.9 25.2396 24.795 25.0296 24.69C23.7696 24.48 22.5096 24.165 21.2496 23.745C21.1446 23.745 20.9346 23.64 20.8296 23.64C20.5146 24.06 20.0946 23.535 19.7796 23.43C19.4646 23.325 19.2546 23.115 18.9396 23.01C18.7296 23.01 18.5196 22.905 18.4146 22.695C18.2046 22.59 17.9946 22.485 17.8896 22.38C17.3646 22.275 17.0496 21.75 16.5246 21.54C15.9996 21.435 15.4746 20.91 15.1596 20.49C15.0546 20.28 14.8446 20.175 14.7396 19.965C13.6896 19.335 12.6396 18.495 12.5346 17.34C12.1146 16.815 11.7996 16.185 11.6946 15.45C11.5896 15.345 11.6946 15.135 11.9046 15.03ZM64.4046 28.05C64.2996 28.575 63.8796 28.785 63.4596 28.995C62.7246 29.31 62.0946 29.73 61.3596 30.15C60.9396 30.36 60.5196 30.57 59.9946 30.675C59.7846 30.675 59.5746 30.78 59.3646 30.885C59.1546 30.99 58.9446 31.095 58.8396 30.885C58.7346 30.78 58.6296 30.78 58.5246 30.78C58.1046 30.99 57.5796 30.78 57.2646 31.305C57.0546 31.62 56.5296 31.83 56.2146 32.04C55.8996 32.04 55.8996 31.725 55.7946 31.62C55.3746 30.255 54.9546 28.785 54.5346 27.42C54.4296 27.21 54.3246 27 54.3246 26.79C54.3246 26.475 54.3246 26.265 54.7446 26.37C55.0596 26.475 55.2696 26.37 55.4796 26.16C55.6896 26.055 55.8996 25.95 56.1096 26.055C56.2146 26.055 56.3196 26.16 56.4246 26.055C57.1596 25.53 58.2096 25.425 59.0496 25.11C59.5746 24.9 60.0996 24.48 60.7296 24.27C61.1496 24.165 61.4646 23.955 61.7796 23.745C62.1996 23.325 62.4096 23.535 62.6196 24.06C63.2496 25.32 63.6696 26.58 64.0896 27.84C64.2996 27.735 64.2996 27.84 64.4046 28.05ZM40.9896 28.365C41.0946 28.05 41.0946 27.945 41.4096 27.945C42.1446 27.945 42.7746 27.945 43.5096 27.945C44.1396 27.945 44.7696 27.84 45.5046 27.735C46.5546 27.63 47.6046 27.42 48.6546 27.315C49.9146 27.105 51.1746 26.895 52.5396 26.58C52.5396 27.21 52.6446 27.945 52.5396 28.575C52.4346 29.31 52.7496 30.045 52.8546 30.885C52.9596 31.41 52.9596 31.935 53.3796 32.355C53.4846 32.46 53.5896 32.88 53.0646 32.775C52.8546 32.67 52.6446 32.88 52.5396 32.88C51.1746 33.3 49.8096 33.405 48.4446 33.72C46.7646 34.035 45.0846 34.245 43.4046 34.245C42.9846 34.245 42.6696 34.14 42.2496 34.455C41.9346 34.665 41.7246 34.455 41.6196 34.035C41.4096 33.09 41.0946 32.145 41.0946 31.095C41.0946 30.15 40.7796 29.31 40.9896 28.365ZM38.8896 33.93C38.8896 34.35 38.7846 34.56 38.3646 34.56C37.2096 34.56 35.9496 34.56 34.7946 34.665C34.0596 34.665 33.3246 34.77 32.5896 34.77C32.1696 34.77 31.8546 34.56 31.5396 34.56C30.5946 34.665 29.6496 34.245 28.7046 34.035C28.3896 33.93 28.0746 34.035 27.8646 34.035C27.4446 34.14 27.0246 33.615 26.6046 33.93C26.4996 34.035 26.3946 33.825 26.2896 33.615C25.8696 32.67 25.9746 31.83 26.0796 30.885C26.1846 30.15 26.1846 29.415 26.2896 28.68C26.2896 28.26 26.3946 27.945 27.0246 28.05C27.5496 28.26 28.2846 28.155 28.8096 28.05C29.7546 27.84 30.6996 28.26 31.5396 28.365C32.7996 28.575 34.1646 28.575 35.4246 28.365C36.3696 28.26 37.2096 28.365 38.1546 28.26C38.4696 28.26 38.4696 28.365 38.5746 28.68C38.5746 29.1 38.6796 29.625 38.6796 30.045H38.5746C38.5746 31.41 38.6796 32.67 38.8896 33.93ZM24.3996 28.155C24.1896 28.47 24.1896 28.995 24.1896 29.415C24.1896 29.73 24.1896 30.045 24.0846 30.36C23.8746 31.41 23.7696 32.46 23.7696 33.51C23.7696 33.825 23.6646 33.825 23.4546 33.825C22.5096 33.93 21.7746 33.3 20.9346 33.09C20.0946 32.985 19.1496 32.67 18.4146 32.355C17.1546 31.83 15.9996 31.2 14.8446 30.465L14.7396 30.36C14.4246 30.15 14.0046 30.255 13.8996 29.835C13.7946 29.31 13.7946 28.785 13.7946 28.365C14.0046 27.315 14.2146 26.37 14.3196 25.32C14.3196 24.795 14.7396 24.48 14.6346 23.85C15.4746 24.27 16.1046 24.795 16.8396 25.11C18.2046 25.845 19.5696 26.475 21.2496 26.685C22.4046 26.79 23.4546 27.315 24.5046 27.63C24.5046 27.63 24.7146 27.735 24.3996 28.155ZM8.96463 25.95C9.27963 24.69 9.69963 23.535 10.0146 22.275C10.1196 22.065 10.1196 21.75 10.2246 21.54C10.4346 20.805 10.4346 20.7 10.9596 21.33C11.2746 21.645 11.6946 21.96 12.1146 22.275C12.4296 22.485 12.5346 23.01 12.6396 23.43C12.3246 24.375 12.3246 25.425 12.1146 26.37C12.0096 26.58 12.0096 26.895 12.0096 27.105C12.0096 27.735 11.6946 28.26 11.4846 28.785C11.3796 28.995 11.2746 28.89 11.1696 28.785C10.6446 28.155 9.90963 27.63 9.48963 26.895C9.48963 26.79 9.27963 26.685 9.17463 26.685C8.85963 26.475 8.85963 26.265 8.96463 25.95ZM6.23463 30.675C6.33963 30.36 6.44463 30.045 6.86463 30.465C6.96963 30.57 7.07463 30.675 7.17963 30.57C7.49463 30.15 7.70463 30.57 7.91463 30.78C8.22963 31.305 8.75463 31.515 9.17463 31.83C9.69963 32.145 10.2246 32.355 10.7496 32.775C10.8546 32.88 10.8546 32.985 10.9596 32.775C11.0646 32.565 11.1696 32.67 11.2746 32.88C11.6946 33.405 12.4296 33.615 12.9546 33.72C13.2696 33.72 13.5846 33.93 13.7946 34.035C14.6346 34.455 15.6846 34.665 16.5246 34.98C17.0496 35.19 17.5746 35.4 18.2046 35.505C18.5196 35.505 18.9396 35.715 19.2546 35.82C19.7796 36.135 20.4096 36.24 21.0396 36.135C21.2496 36.135 21.3546 36.24 21.5646 36.345C22.1946 36.45 22.8246 36.555 23.3496 36.765C23.4546 36.765 23.4546 36.87 23.5596 36.765C24.6096 36.135 25.5546 36.66 26.4996 36.87C27.0246 36.975 27.4446 37.08 27.9696 37.08C28.7046 37.08 29.2296 37.395 29.9646 37.605C31.4346 37.815 32.7996 38.13 34.2696 38.025C36.2646 37.815 38.2596 37.92 40.2546 37.815C40.9896 37.815 41.8296 37.815 42.5646 37.71C43.5096 37.605 44.4546 37.29 45.3996 37.185C46.4496 37.08 47.4996 36.87 48.5496 36.765C49.7046 36.66 50.7546 36.345 51.8046 36.03C52.2246 35.925 52.7496 35.82 53.1696 35.82C54.2196 35.61 55.2696 35.4 56.3196 35.085C56.8446 34.98 57.4746 34.665 58.1046 34.455C58.7346 34.14 59.5746 34.14 60.2046 33.825C61.0446 33.405 61.8846 33.09 62.7246 32.565C63.0396 32.355 63.4596 32.145 63.8796 32.04C64.1946 31.935 64.5096 31.83 64.7196 31.62C65.1396 31.2 65.7696 31.095 66.2946 30.885C66.6096 30.78 66.9246 30.675 67.0296 30.465C67.5546 29.94 68.3946 30.045 68.9196 29.52C69.0246 29.415 69.0246 29.52 69.1296 29.52C69.5496 30.045 69.7596 29.625 69.9696 29.31C70.1796 28.995 70.2846 29.1 70.3896 29.31C70.7046 29.94 71.0196 30.465 71.2296 31.095C71.3346 31.41 71.2296 31.935 70.9146 32.04C70.4946 32.145 70.5996 32.46 70.3896 32.775C70.2846 32.985 70.3896 33.405 69.8646 33.09C69.7596 33.09 69.7596 33.09 69.7596 33.195C69.7596 33.825 69.1296 33.825 68.7096 34.035C67.9746 34.35 67.2396 34.77 66.7146 35.4C66.5046 35.61 66.2946 35.82 65.9796 35.82C65.9796 35.925 65.8746 35.925 65.7696 35.925C64.0896 36.87 62.3046 37.71 60.4146 38.34C60.3096 38.445 60.0996 38.55 59.7846 38.655C59.2596 38.76 58.6296 39.075 58.1046 39.18C57.5796 39.285 57.0546 39.39 56.6346 39.6C56.2146 39.705 55.8996 39.81 55.4796 39.81C54.7446 40.02 54.0096 40.125 53.2746 40.335C53.0646 40.65 52.7496 40.86 52.2246 40.86C51.8046 40.86 51.3846 41.175 50.8596 40.965C50.7546 40.965 50.6496 40.965 50.6496 40.965C50.4396 41.07 50.1246 41.07 49.9146 41.175H49.8096C49.8096 41.175 49.8096 41.175 49.7046 41.175C48.5496 41.49 47.2896 41.7 46.1346 42.015C46.0296 42.015 45.9246 42.015 45.8196 42.015C45.7146 42.015 45.5046 42.015 45.3996 42.015C44.8746 42.015 44.2446 42.225 43.7196 42.33C42.7746 42.435 41.8296 42.75 40.7796 42.645C39.8346 42.54 38.8896 42.75 37.9446 42.96C37.5246 43.065 37.2096 42.96 36.7896 42.855C34.2696 43.17 31.6446 43.275 29.2296 42.855C29.1246 42.96 29.0196 42.96 28.8096 42.75C28.3896 42.645 27.8646 42.54 27.4446 42.435C27.2346 42.435 27.1296 42.435 27.0246 42.435C26.6046 42.435 26.0796 42.435 25.6596 42.33C24.1896 42.015 22.7196 41.7 21.2496 41.28C20.3046 41.07 19.3596 40.65 18.5196 40.335C17.5746 40.02 16.6296 39.705 15.6846 39.39C15.2646 39.285 14.9496 39.075 14.6346 38.865C14.4246 38.76 14.2146 38.55 13.8996 38.655C13.5846 38.655 13.2696 38.55 13.0596 38.235C12.9546 38.13 12.9546 38.025 12.7446 38.025C11.9046 38.235 11.2746 37.71 10.6446 37.29C9.90964 36.765 9.06963 36.345 8.43963 35.715C7.70463 34.98 7.07464 34.245 6.75963 33.195C6.54963 32.67 6.12963 32.25 6.12963 31.62C6.12963 31.095 6.12963 30.885 6.23463 30.675ZM69.4446 55.665C69.2346 57.135 69.6546 58.5 69.4446 59.97C69.3396 60.705 69.3396 61.335 69.0246 61.965C68.9196 62.07 68.9196 62.28 69.0246 62.385C69.3396 63.855 69.1296 65.22 68.9196 66.69C68.8146 67.635 68.6046 68.475 68.3946 69.42C68.3946 69.525 68.3946 69.63 68.2896 69.63C67.5546 69.735 67.4496 70.68 66.8196 70.89C66.2946 71.1 65.7696 71.205 65.2446 71.415C64.2996 71.835 63.3546 72.045 62.3046 72.15C61.9896 72.15 61.6746 72.255 61.4646 72.675C61.2546 72.255 61.4646 72.045 61.4646 71.73C61.5696 71.31 61.5696 70.785 61.5696 70.365C61.4646 69.21 61.5696 68.055 61.6746 66.9C61.7796 66.165 61.6746 65.43 61.5696 64.695C61.4646 63.855 61.4646 63.015 61.4646 62.28C61.4646 60.81 61.4646 59.445 61.4646 57.975C61.3596 55.455 60.9396 52.935 60.5196 50.52C59.9946 48 59.4696 45.585 59.0496 43.065C59.0496 42.96 59.0496 42.96 59.0496 42.855C58.7346 41.91 58.7346 42.015 59.6796 41.7C60.4146 41.49 61.0446 41.28 61.6746 40.755C61.9896 40.545 62.5146 40.545 62.8296 40.335C63.8796 39.915 64.9296 39.39 65.8746 38.865C66.1896 38.76 66.5046 38.865 66.7146 38.34C67.2396 40.65 67.6596 42.75 68.0796 44.85C68.6046 47.475 69.0246 50.205 69.2346 52.83C69.3396 53.67 69.5496 54.72 69.4446 55.665ZM59.3646 59.97C59.3646 60.705 59.2596 61.44 59.3646 62.175C59.4696 63.12 59.5746 64.065 59.5746 65.01C59.5746 65.955 59.5746 66.795 59.4696 67.74C59.2596 68.79 59.1546 69.945 58.8396 70.995C58.7346 71.31 58.8396 71.73 58.9446 72.15C59.1546 73.095 58.9446 73.515 57.8946 73.515C57.3696 73.515 56.7396 73.725 56.2146 73.83C55.6896 74.04 55.0596 73.935 54.5346 74.04C53.9046 74.145 53.1696 74.355 52.5396 74.46C52.1196 74.565 51.6996 74.67 51.2796 74.67C50.8596 74.565 50.3346 74.775 49.9146 74.88C49.0746 74.985 48.3396 74.985 47.4996 74.985C47.0796 74.985 46.5546 74.985 46.1346 75.09C45.8196 75.195 45.8196 74.985 45.8196 74.775C45.9246 74.355 45.8196 73.83 45.8196 73.41C45.8196 72.255 45.6096 71.1 45.6096 70.05C45.6096 68.895 45.3996 67.74 45.1896 66.48C45.0846 65.745 45.3996 65.01 45.1896 64.275C44.7696 62.49 45.0846 60.705 44.8746 59.025C44.7696 57.765 44.8746 56.505 44.4546 55.245C44.2446 54.615 44.2446 53.88 44.1396 53.145C44.0346 52.095 43.7196 51.15 43.6146 50.1C43.5096 48.84 43.4046 47.475 43.6146 46.215C43.6146 46.005 43.6146 45.795 43.5096 45.585C43.1946 45.06 43.2996 44.955 43.9296 44.955C45.1896 44.85 46.4496 44.535 47.7096 44.745C48.7596 44.85 49.8096 44.43 50.8596 44.535C51.2796 44.535 51.6996 44.325 52.0146 44.22C52.6446 43.905 53.3796 44.01 54.0096 43.8C54.9546 43.38 55.8996 43.17 56.9496 42.75C57.0546 42.75 57.2646 42.645 57.2646 42.75C57.2646 43.275 57.8946 43.59 57.5796 44.22C57.3696 44.535 57.4746 44.85 57.5796 45.06C57.8946 46.005 58.1046 46.95 58.2096 47.895C58.3146 49.155 58.8396 50.31 58.7346 51.57C58.7346 52.62 58.7346 53.67 58.8396 54.825C58.8396 55.035 58.8396 55.35 59.1546 55.455C59.3646 55.455 59.3646 55.77 59.3646 55.875C58.9446 57.24 59.2596 58.605 59.3646 59.97ZM41.9346 58.185C42.0396 59.13 42.1446 60.075 42.2496 61.02C42.3546 62.385 42.5646 63.645 42.5646 64.905C42.6696 67.845 42.7746 70.89 43.1946 73.83C43.1946 73.935 43.1946 74.145 43.1946 74.25C43.1946 74.565 43.2996 74.985 42.9846 75.09C42.7746 75.195 42.4596 74.985 42.1446 75.09C40.9896 75.3 39.9396 75.3 38.7846 75.615C38.4696 75.72 38.0496 75.51 37.6296 75.51C36.1596 75.405 34.7946 75.72 33.4296 75.615C32.5896 75.615 31.6446 75.405 30.8046 75.405C30.2796 75.405 29.7546 75.3 29.2296 75.405C28.8096 75.51 28.7046 75.195 28.7046 74.88C28.5996 74.355 28.5996 73.83 28.4946 73.305C28.1796 71.835 27.8646 70.365 27.7596 68.895C27.6546 67.95 27.3396 66.9 27.2346 65.955C27.1296 65.01 27.0246 64.065 26.9196 63.12C26.7096 61.44 26.9196 59.76 26.7096 58.08C26.6046 56.82 26.7096 55.56 26.7096 54.3C26.7096 52.41 26.4996 50.52 26.6046 48.525C26.7096 47.475 26.9196 46.425 26.7096 45.375C26.6046 45.06 26.9196 44.85 27.2346 45.06C27.6546 45.27 28.0746 45.27 28.4946 45.27C29.0196 45.27 29.5446 45.27 29.9646 45.585C30.2796 45.795 30.0696 45.27 30.3846 45.375C30.8046 45.585 31.3296 45.48 31.7496 45.585C32.7996 45.69 33.8496 45.795 34.8996 45.795C36.1596 45.795 37.4196 45.9 38.5746 45.795C39.2046 45.795 39.7296 45.9 40.3596 45.69C40.5696 45.69 40.6746 45.48 40.8846 45.48C40.7796 46.95 41.3046 48.42 41.4096 49.89C41.4096 50.835 41.3046 51.78 41.8296 52.725C41.9346 53.04 41.6196 53.355 41.7246 53.67C41.7246 55.14 41.8296 56.715 41.9346 58.185ZM23.9796 48.105C24.0846 48.84 24.1896 49.47 23.9796 50.205C23.9796 50.31 23.8746 50.415 23.9796 50.52C24.1896 51.78 23.9796 53.04 24.0846 54.195C24.1896 55.35 24.1896 56.61 24.2946 57.765C24.3996 58.815 24.3996 59.97 24.3996 61.02C24.3996 61.23 24.3996 61.44 24.5046 61.545C24.6096 61.65 24.5046 61.65 24.3996 61.86C24.1896 62.07 24.2946 62.385 24.3996 62.595C24.6096 63.015 24.7146 63.435 24.5046 63.96C24.2946 64.485 24.3996 65.22 24.5046 65.745C24.6096 66.27 24.7146 67.005 24.6096 67.425C24.2946 68.58 25.0296 69.42 25.0296 70.47C25.0296 71.52 25.3446 72.57 25.5546 73.515C25.6596 73.935 25.9746 74.355 25.9746 74.985C25.3446 74.67 24.8196 74.67 24.2946 74.67C23.8746 74.67 23.3496 74.46 22.9296 74.46C22.1946 74.565 21.4596 74.145 20.8296 73.935C19.9896 73.725 19.1496 73.515 18.3096 73.095C17.9946 72.885 17.4696 72.885 17.1546 72.78C16.6296 72.675 16.2096 72.255 15.6846 72.255C15.4746 72.255 15.3696 71.94 15.2646 71.835C14.9496 70.68 14.5296 69.63 14.4246 68.475C14.3196 67.635 14.2146 66.69 13.8996 65.85C13.8996 65.745 13.8996 65.64 13.7946 65.535C13.6896 63.75 13.1646 62.07 13.0596 60.285C12.9546 57.555 12.4296 54.93 12.6396 52.2C12.8496 50.415 12.6396 48.735 12.7446 46.95C12.8496 45.27 13.0596 43.485 13.2696 41.805C13.2696 41.595 13.3746 41.49 13.5846 41.595C14.4246 42.015 15.2646 42.225 16.2096 42.33C16.7346 42.435 17.1546 42.645 17.6796 42.75C19.0446 42.96 20.3046 43.485 21.6696 43.695C22.1946 43.8 22.7196 44.01 23.3496 43.8C23.6646 43.695 23.8746 44.01 23.7696 44.43C23.6646 45.9 23.7696 46.95 23.9796 48.105ZM5.60463 59.025C5.60463 57.87 5.39463 56.715 5.28963 55.455C5.18463 54.405 5.07963 53.25 4.97463 52.2C4.86963 49.995 4.76463 47.685 5.18463 45.48C5.28963 45.06 5.28963 44.745 5.18463 44.325C4.86963 43.17 5.07963 42.12 5.39463 41.07C5.60463 40.125 5.91963 39.18 6.12963 38.13C6.86463 38.865 7.80963 39.18 8.64963 39.705C9.27963 40.02 10.0146 40.335 10.6446 40.65C11.1696 40.965 11.0646 41.49 11.0646 42.015C11.0646 42.225 10.9596 42.33 11.0646 42.54C11.2746 43.8 10.9596 44.955 10.8546 46.215V46.32C10.8546 47.895 10.3296 49.47 10.3296 51.15C10.3296 51.675 10.3296 52.2 10.3296 52.725C10.5396 54.3 10.0146 55.77 10.2246 57.345C10.3296 58.08 10.2246 58.815 10.5396 59.445C10.6446 59.76 10.6446 60.18 10.6446 60.6C10.7496 62.385 10.7496 64.17 10.9596 65.955C10.9596 66.27 11.0646 66.585 11.1696 66.9C11.3796 67.32 11.3796 67.845 11.1696 68.265C10.9596 68.895 11.1696 69.42 11.2746 70.05C11.2746 70.155 11.3796 70.365 11.3796 70.47C11.3796 70.575 11.4846 70.785 11.3796 70.89C11.1696 70.995 11.1696 70.785 11.0646 70.68C10.8546 70.365 10.4346 70.26 10.1196 70.05C9.80464 69.945 9.59464 69.63 9.38463 69.42C8.85964 68.79 8.33463 68.055 7.80963 67.32C7.07464 66.375 6.54963 65.43 6.75963 64.17C6.86463 63.75 6.33963 63.645 6.23463 63.33C6.12963 63.12 6.02463 62.805 5.91963 62.595C5.91963 61.335 5.60463 60.18 5.60463 59.025ZM19.6746 92.835C19.3596 92.835 19.3596 92.52 19.2546 92.31C18.8346 91.89 18.5196 91.47 17.9946 91.155C17.4696 90.84 17.1546 90.21 16.6296 89.79C16.5246 89.685 16.4196 89.58 16.2096 89.685C15.7896 89.79 15.6846 89.265 15.4746 88.95C14.9496 88.425 14.6346 87.585 14.2146 86.955C13.8996 86.325 13.4796 85.695 13.2696 85.065C12.7446 83.805 12.2196 82.545 11.3796 81.495C11.2746 81.39 11.1696 81.285 11.3796 81.075C11.4846 80.97 11.6946 80.97 11.7996 81.075C12.2196 81.18 12.5346 81.495 12.8496 81.6C13.5846 81.915 14.3196 82.02 15.0546 82.23C15.5796 82.335 15.6846 82.65 15.7896 83.07C16.2096 84.54 16.4196 86.115 17.1546 87.48C17.4696 88.005 17.6796 88.74 17.8896 89.37C18.3096 90.525 18.9396 91.575 19.6746 92.52C19.6746 92.52 19.7796 92.625 19.6746 92.835ZM29.2296 97.56C27.9696 97.56 26.9196 96.93 25.8696 96.51C25.2396 96.3 24.6096 96.09 24.0846 95.775C23.8746 95.67 23.6646 95.46 23.6646 95.145C23.5596 94.83 23.3496 94.515 23.0346 94.305C22.6146 93.99 22.4046 93.465 22.0896 93.045C20.9346 91.575 20.6196 89.685 20.0946 87.9C19.6746 86.535 18.9396 85.17 18.5196 83.805C18.5196 83.595 18.3096 83.49 18.4146 83.28C18.5196 83.175 18.7296 83.175 18.9396 83.28C20.3046 83.805 21.8796 83.91 23.2446 84.435C23.4546 84.54 23.7696 84.435 23.9796 84.435C24.3996 84.54 24.8196 84.435 25.2396 84.645C25.6596 84.855 26.1846 84.75 26.7096 84.75C27.0246 84.75 27.2346 84.855 27.2346 85.17C27.3396 85.905 27.3396 86.745 27.5496 87.48C27.6546 88.005 28.0746 88.53 27.9696 89.055C28.2846 89.895 28.0746 90.84 28.1796 91.785C28.1796 92.415 28.2846 93.045 28.3896 93.78C28.3896 94.095 28.3896 94.515 28.9146 94.515L29.0196 94.62C29.0196 95.46 29.6496 96.195 29.6496 97.035C29.5446 97.455 29.7546 97.56 29.2296 97.56ZM43.6146 86.01C43.7196 87.375 43.5096 88.635 43.4046 90C43.4046 91.05 43.5096 92.205 43.4046 93.255C43.4046 93.99 43.2996 94.62 43.1946 95.25C43.0896 95.775 43.1946 96.3 42.9846 96.72C42.8796 96.93 42.8796 97.14 42.6696 97.35C42.4596 97.455 42.4596 97.77 42.5646 98.085C42.6696 98.505 42.5646 98.505 42.1446 98.505C40.7796 98.4 39.3096 98.19 37.9446 98.295C37.8396 98.295 37.6296 98.19 37.5246 98.19C36.7896 97.875 36.0546 97.77 35.4246 98.085C35.0046 98.19 34.5846 98.4 34.2696 98.295C33.6396 98.19 33.1146 98.295 32.4846 98.19C32.1696 98.19 31.9596 97.875 31.9596 97.56C31.9596 96.51 31.7496 95.46 31.5396 94.41C31.1196 92.31 30.9096 90.21 30.6996 88.11C30.5946 87.165 30.2796 86.325 30.0696 85.38C29.9646 84.855 29.9646 84.645 30.5946 84.855C30.9096 85.065 31.3296 84.96 31.6446 84.855C31.8546 84.75 32.1696 84.96 32.4846 84.96C33.7446 85.17 35.0046 85.275 36.2646 85.275C37.4196 85.275 38.5746 85.17 39.7296 85.17C40.6746 85.17 41.7246 85.065 42.6696 85.17C43.1946 85.38 43.8246 85.38 43.6146 86.01ZM56.8446 89.58C56.6346 90.105 56.4246 90.735 56.6346 91.365C56.6346 91.575 56.5296 91.68 56.4246 91.68C56.0046 91.89 56.0046 92.31 56.3196 92.73C56.6346 93.045 56.6346 93.465 56.4246 93.675C55.8996 94.305 55.7946 95.145 55.3746 95.67C55.1646 95.88 55.0596 96.195 54.7446 96.195C54.6396 96.195 54.5346 96.3 54.5346 96.3C54.3246 96.825 53.7996 97.035 53.2746 97.035C52.8546 97.14 52.4346 97.14 52.0146 97.245C51.6996 97.35 51.5946 97.245 51.2796 97.14C50.8596 96.93 50.3346 97.14 50.2296 97.56C50.1246 97.77 50.1246 97.98 49.8096 97.665H49.5996C49.0746 97.98 48.4446 97.875 47.9196 97.98C47.1846 98.19 46.5546 97.77 45.9246 97.875C45.3996 97.98 45.3996 97.56 45.5046 97.245C45.9246 95.145 46.0296 92.94 45.8196 90.735C45.8196 90.42 45.9246 90.105 45.9246 89.79C46.0296 88.74 45.8196 87.585 45.7146 86.535C45.7146 86.22 45.8196 85.8 45.7146 85.485C45.6096 84.96 46.3446 85.065 46.5546 85.065C47.1846 84.96 47.7096 84.855 48.3396 84.75C48.7596 84.645 49.2846 84.54 49.7046 84.54C50.9646 84.435 52.2246 84.12 53.5896 84.015C54.8496 83.91 56.1096 83.805 57.2646 83.595C57.5796 83.595 57.6846 83.595 57.5796 83.91C57.4746 84.96 57.4746 85.905 57.2646 86.955C57.1596 87.795 57.1596 88.635 56.8446 89.58ZM65.0346 86.535C64.9296 86.745 64.8246 86.955 64.6146 87.165C64.1946 87.585 63.8796 88.11 63.6696 88.74C63.5646 89.475 63.0396 90.105 62.8296 90.84C62.7246 91.26 62.5146 91.575 62.7246 91.995C62.8296 92.31 62.4096 92.835 61.9896 92.94C61.7796 92.94 61.6746 93.045 61.5696 93.255C61.4646 93.675 60.9396 93.57 60.7296 93.78C60.4146 93.885 59.9946 93.99 59.8896 94.095C59.4696 94.41 58.9446 94.62 58.5246 94.83C58.4196 94.935 58.2096 95.04 58.1046 94.935C57.8946 94.83 58.1046 94.62 58.1046 94.515C58.3146 92.73 59.1546 91.05 59.3646 89.265C59.6796 87.27 60.3096 85.275 60.6246 83.28C60.6246 83.07 60.6246 82.86 60.9396 82.86C61.7796 82.86 62.4096 82.44 63.1446 82.125C64.0896 81.705 65.0346 81.285 66.0846 80.97C66.2946 80.865 66.5046 80.865 66.5046 81.075C66.1896 82.125 66.1896 83.07 65.7696 84.015C65.5596 84.855 65.3496 85.695 65.0346 86.535ZM71.4396 79.71C70.7046 81.285 70.0746 82.965 69.2346 84.54C68.7096 85.485 68.2896 86.43 67.8696 87.27C67.4496 88.11 66.6096 88.53 66.1896 89.475C66.1896 88.635 66.5046 87.795 66.8196 86.955C67.5546 85.065 68.1846 83.175 68.4996 81.18C68.4996 80.97 68.4996 80.76 68.4996 80.55C68.4996 80.235 68.3946 79.92 68.9196 79.815C69.3396 79.71 69.5496 79.185 70.0746 79.08C70.5996 78.975 70.9146 78.45 71.4396 78.24C71.6496 78.135 71.7546 78.24 71.7546 78.45C71.7546 78.87 71.5446 79.29 71.4396 79.71ZM73.8546 71.52C73.8546 71.835 73.7496 72.15 73.6446 72.465C73.5396 72.99 73.5396 73.515 72.9096 73.725C72.4896 73.83 72.2796 74.355 71.9646 74.67C71.6496 74.88 71.3346 75.195 71.0196 75.3C70.9146 75.3 70.8096 75.405 70.8096 75.51C70.5996 76.14 69.9696 76.245 69.6546 76.77C69.4446 77.085 69.2346 76.77 68.9196 76.98C67.8696 77.82 66.5046 77.61 65.3496 78.24C64.6146 78.66 63.7746 78.66 62.9346 78.975C62.6196 79.08 62.0946 79.185 61.6746 79.185C60.9396 79.29 60.2046 79.605 59.5746 79.815C58.5246 80.13 57.3696 80.34 56.2146 80.445C56.0046 80.445 55.7946 80.34 55.5846 80.655C55.5846 80.76 55.4796 80.76 55.3746 80.655C55.2696 80.445 55.1646 80.34 55.0596 80.34C54.9546 80.34 54.9546 80.34 54.8496 80.445C54.7446 80.55 54.6396 80.655 54.6396 80.76C54.4296 80.97 54.1146 80.97 53.7996 81.075C53.9046 80.97 53.7996 80.97 53.5896 80.97C52.7496 81.39 51.9096 81.705 50.9646 81.81C49.8096 82.02 48.5496 81.81 47.2896 81.81C47.2896 81.915 47.1846 81.915 47.0796 81.81C47.0796 81.81 46.9746 81.81 46.9746 81.705C46.5546 81.705 46.1346 81.705 45.6096 81.705C44.1396 81.81 42.6696 81.81 41.1996 81.915C38.3646 82.02 35.6346 82.02 32.7996 81.915C31.8546 81.915 30.9096 81.81 29.9646 81.705C29.6496 81.915 29.3346 81.915 28.9146 81.705C28.8096 81.6 28.7046 81.6 28.5996 81.6C28.5996 81.6 28.5996 81.6 28.4946 81.6C28.3896 81.6 28.2846 81.6 28.1796 81.705C28.0746 81.81 27.9696 81.81 27.8646 81.81C26.8146 81.6 25.7646 81.81 24.8196 81.075C24.5046 80.865 23.9796 80.97 23.8746 81.18C23.4546 81.6 23.1396 81.495 22.8246 81.285C22.4046 80.97 21.9846 80.865 21.4596 81.075C21.0396 81.285 20.6196 80.97 20.1996 80.865C19.3596 80.76 18.5196 80.445 17.6796 80.235C17.5746 80.235 17.5746 80.235 17.4696 80.13C16.3146 80.025 15.2646 79.71 14.4246 79.185C14.2146 79.08 14.1096 79.08 13.8996 78.975C12.4296 78.345 10.9596 77.61 9.59464 76.77C9.38464 76.665 9.27963 76.455 9.27963 76.245C9.17463 75.825 8.96463 75.51 8.43963 75.72C8.22963 75.825 8.01963 75.51 7.91463 75.3C7.80963 75.09 7.49463 74.88 7.49463 74.565C7.38963 73.83 6.75963 73.2 6.86463 72.36C6.86463 71.94 6.44463 71.73 6.54963 71.31C6.96963 71.94 7.59964 71.94 8.01964 72.465C8.43964 72.885 9.06963 72.99 9.48963 73.41C9.59463 73.62 10.1196 73.725 10.4346 73.83C11.2746 74.145 11.9046 74.775 12.7446 75.09C13.6896 75.405 14.5296 75.93 15.5796 76.035C16.1046 76.035 16.5246 76.455 17.0496 76.56C17.5746 76.665 18.0996 76.56 18.5196 76.98C19.3596 76.77 20.0946 77.4 20.8296 77.4C21.3546 77.4 21.9846 77.715 22.6146 77.4C22.9296 77.295 23.3496 77.61 23.7696 77.61C24.7146 77.715 25.6596 77.82 26.4996 77.925C27.4446 78.03 28.2846 78.135 29.2296 78.135C30.8046 78.24 32.4846 78.24 34.0596 78.345C34.6896 78.345 35.4246 78.345 36.0546 78.45C36.7896 78.555 37.6296 78.555 38.3646 78.45C38.8896 78.345 39.4146 78.45 39.9396 78.45C40.5696 78.345 41.1996 78.555 41.7246 78.24C42.0396 78.135 42.5646 78.135 42.9846 78.135C43.7196 78.03 44.3496 77.82 45.0846 77.925C45.7146 78.03 46.4496 77.82 47.0796 77.925C47.6046 78.03 48.2346 77.82 48.7596 77.82C49.1796 77.82 49.5996 77.505 50.1246 77.715C50.4396 77.82 50.7546 77.505 51.0696 77.505C52.1196 77.4 53.2746 77.295 54.3246 77.19C55.6896 77.085 56.9496 76.77 58.2096 76.245C59.1546 75.825 60.2046 75.615 61.2546 75.51C62.3046 75.3 63.1446 74.985 64.1946 74.67C64.7196 74.46 65.2446 74.355 65.7696 74.25C65.8746 74.25 65.9796 74.25 66.0846 74.145C66.0846 74.04 66.1896 73.935 66.3996 73.83C67.3446 73.515 68.2896 73.2 69.2346 72.885C69.3396 72.78 69.5496 72.675 69.7596 72.675C69.9696 72.57 70.2846 72.465 70.4946 72.465C71.1246 71.835 71.9646 71.73 72.6996 71.31C73.2246 70.995 73.8546 70.68 74.3796 70.26C74.3796 70.68 73.8546 70.995 73.8546 71.52ZM74.0646 47.265C74.0646 48.42 73.8546 49.68 74.0646 50.835C74.3796 52.725 74.2746 54.72 74.6946 56.715C74.7996 57.135 74.5896 57.66 74.6946 58.08C74.9046 58.71 74.4846 59.34 74.7996 59.97C74.9046 60.18 74.5896 60.39 74.6946 60.705C74.7996 61.545 74.7996 62.385 74.6946 63.225C74.6946 63.33 74.6946 63.54 74.7996 63.54C75.3246 63.645 75.1146 64.065 75.1146 64.275C75.1146 64.59 74.9046 64.905 75.0096 65.22C75.1146 65.43 74.9046 65.535 74.7996 65.745C74.6946 65.535 74.4846 65.325 74.2746 65.01C74.2746 65.85 73.8546 66.375 73.3296 67.005C73.1196 67.005 73.3296 66.69 73.1196 66.69C72.6996 67.11 72.6996 67.635 72.1746 68.055C71.6496 68.37 71.1246 68.58 70.5996 69C70.7046 68.37 70.7046 67.845 70.9146 67.425C71.4396 65.85 71.5446 64.275 71.6496 62.7C71.7546 61.02 71.6496 59.235 71.5446 57.555C71.4396 55.875 71.6496 54.09 71.3346 52.41C71.3346 52.2 71.1246 51.885 71.4396 51.78C71.4396 51.78 71.5446 51.675 71.4396 51.675C70.8096 50.73 71.0196 49.575 70.8096 48.525C70.7046 48.21 70.5996 47.895 70.4946 47.475C70.3896 46.635 70.1796 45.9 70.2846 45.06C70.2846 44.745 70.1796 44.43 70.0746 44.115C69.9696 43.8 69.7596 43.485 69.9696 43.065C69.9696 43.065 69.9696 43.065 69.9696 42.96C69.3396 42.225 69.6546 41.28 69.2346 40.545C68.8146 39.6 68.6046 38.55 68.7096 37.5C68.7096 37.29 68.9196 37.29 69.0246 37.185C69.5496 36.66 70.2846 36.45 70.9146 35.925C71.1246 35.715 71.5446 35.61 71.5446 35.085C72.0696 36.135 72.4896 37.185 72.6996 38.235C73.0146 39.81 73.2246 41.28 73.5396 42.855C73.6446 44.22 73.9596 45.69 74.0646 47.265Z" fill="#010F14"/>
<path d="M41.3051 71.625C40.9901 69.63 40.8851 67.635 40.3601 65.745C40.3601 65.64 40.1501 65.64 40.1501 65.745C40.0451 67.74 40.2551 69.735 40.0451 71.73C39.8351 73.2 39.7301 74.565 39.8351 76.035C39.9401 77.4 42.0401 77.19 42.0401 75.825C41.9351 74.46 41.5151 72.99 41.3051 71.625Z" fill="#010F14"/>
<path d="M41.3047 83.7C41.0947 83.28 40.4647 83.385 40.3597 83.805C39.5197 85.8 40.4647 88.425 40.9897 90.315C40.9897 90.42 41.0947 90.42 41.1997 90.315C41.5147 89.16 41.5147 88.005 41.5147 86.745C41.4097 85.695 41.6197 84.54 41.3047 83.7Z" fill="#010F14"/>
<path d="M31.225 49.0501C30.91 47.3701 30.91 45.5851 30.385 43.9051C30.28 43.6951 29.965 43.6951 29.965 43.9051C29.755 45.9001 29.44 47.6851 28.915 49.5751C28.495 50.8351 28.915 52.0951 29.23 53.2501C29.755 55.4551 29.44 57.7651 30.07 59.9701C30.175 60.2851 30.49 60.1801 30.49 59.8651C30.595 58.2901 30.49 56.5051 30.805 54.9301C31.015 54.1951 31.435 53.8801 31.645 52.8301C31.855 51.3601 31.435 50.3101 31.225 49.0501Z" fill="#010F14"/>
<path d="M30.3846 32.0401C29.8596 32.4601 29.7546 33.5101 29.6496 34.1401C29.5446 34.7701 29.4396 35.5051 29.6496 36.1351C29.7546 36.4501 30.1746 36.4501 30.2796 36.2401C30.4896 36.0301 30.4896 35.8201 30.4896 35.6101C30.4896 35.1901 30.4896 34.7701 30.5946 34.3501C30.6996 33.6151 30.4896 32.8801 30.5946 32.1451C30.6996 32.0401 30.4896 31.9351 30.3846 32.0401Z" fill="#010F14"/>
<path d="M71.0199 37.605C70.9149 36.765 70.7049 35.82 70.2849 35.085C70.0749 34.77 69.5499 34.665 69.4449 35.085C69.2349 35.925 69.6549 36.87 69.8649 37.71C70.0749 38.655 70.4949 39.6 70.9149 40.44C71.0199 40.545 71.1249 40.545 71.2299 40.44C71.2299 39.6 71.1249 38.55 71.0199 37.605Z" fill="#010F14"/>
<path d="M72.1749 47.055C72.0699 46.95 71.9649 47.055 72.0699 47.16C73.1199 49.785 71.7549 52.62 72.0699 55.245C72.2799 57.24 72.5949 59.235 72.8049 61.335C72.8049 61.44 73.0149 61.44 73.0149 61.335C73.9599 57.24 74.4849 50.73 72.1749 47.055Z" fill="#010F14"/>
<path d="M64.9294 42.75C64.8244 42.54 64.4044 42.645 64.4044 42.855C64.2994 44.115 64.8244 45.375 65.0344 46.53C65.2444 48.105 65.3494 49.68 65.8744 51.15C65.8744 51.255 66.0844 51.255 66.0844 51.15C66.5044 48.42 65.9794 45.375 64.9294 42.75Z" fill="#010F14"/>
<path d="M56.74 55.77C56.74 55.56 56.32 55.35 56.215 55.56C55.06 57.135 55.375 60.285 55.48 62.175C55.585 64.38 54.85 66.375 55.165 68.685C55.27 69.105 55.795 69.105 55.795 68.685C55.69 66.375 57.16 64.8 57.58 62.7C58 60.39 57.16 57.975 56.74 55.77Z" fill="#010F14"/>
<path d="M53.5895 88.53C52.9595 90.42 52.8545 92.415 51.9095 94.305C51.2795 95.565 50.2295 96.93 50.3345 98.4C50.3345 98.715 50.6495 99.135 50.9645 99.24C51.1745 99.24 51.2795 99.345 51.4895 99.24C52.7495 98.61 53.2745 96.195 53.4845 94.935C53.9045 92.835 53.7995 90.735 53.7995 88.53C53.9045 88.425 53.6945 88.425 53.5895 88.53Z" fill="#010F14"/>
<path d="M60.7299 92.1C60.6249 92.415 60.3099 92.73 60.2049 93.045C60.0999 93.36 59.9949 93.78 59.7849 94.095C59.5749 94.725 59.0499 95.46 59.4699 96.195C59.5749 96.405 59.8899 96.405 59.9949 96.195C60.2049 95.88 60.2049 95.46 60.3099 95.145C60.4149 94.725 60.6249 94.41 60.8349 93.99C61.0449 93.465 61.3599 92.73 61.1499 92.1C61.0449 91.995 60.7299 91.89 60.7299 92.1Z" fill="#010F14"/>
<path d="M25.7645 95.46C25.4495 94.41 24.9245 93.255 24.2945 92.205C24.1895 91.995 23.8745 91.995 23.8745 92.205C23.5595 93.15 23.7695 94.305 23.9795 95.25C24.0845 96.09 24.2945 97.455 25.0295 98.085C25.1345 98.295 25.3445 98.4 25.6595 98.505C25.9745 98.61 26.3945 98.4 26.3945 98.085C26.4995 97.245 26.0795 96.195 25.7645 95.46Z" fill="#010F14"/>
<path d="M13.9001 83.595C13.7951 83.385 13.7951 83.07 13.7951 82.86C13.6901 82.545 13.5851 82.23 13.5851 81.915C13.4801 81.6 13.3751 81.39 13.3751 81.075C13.2701 80.76 13.3751 80.55 13.2701 80.235C13.0601 79.815 12.4301 79.92 12.5351 80.445C12.6401 80.76 12.6401 81.075 12.6401 81.39C12.7451 81.705 12.8501 82.125 12.9551 82.44C13.1651 82.86 13.3751 83.49 13.7951 83.7C13.7951 83.91 14.0051 83.7 13.9001 83.595Z" fill="#010F14"/>
<path d="M8.75468 56.715C8.75468 56.61 8.54468 56.505 8.43969 56.715C7.80969 58.815 7.38969 61.545 7.80969 63.75C7.91469 64.17 9.27968 70.47 9.80468 70.68C9.69968 70.68 9.69968 70.785 9.69968 70.89L9.80468 71.1C9.90968 71.205 10.1197 71.205 10.1197 71.1C10.5397 69.21 9.69968 67.11 9.80468 65.22C10.0147 62.385 9.27968 59.445 8.75468 56.715Z" fill="#010F14"/>
<path d="M9.59504 37.08C9.59504 36.975 9.38504 36.87 9.28004 36.87C8.23004 36.87 8.23004 38.55 8.12504 39.18C8.02004 39.81 7.91504 40.44 7.91504 41.175C7.91504 41.91 8.02004 42.54 8.02004 43.275C8.02004 43.695 8.65004 43.8 8.65004 43.38C8.86004 42.225 8.96504 41.175 9.17504 40.02C9.28004 39.075 9.91004 37.92 9.59504 37.08Z" fill="#010F14"/>
<path d="M10.645 26.685C10.645 26.475 10.435 26.475 10.33 26.685C9.80499 27.525 9.80499 28.26 10.015 29.205C10.12 29.52 10.645 29.52 10.645 29.205C10.645 28.785 10.645 28.365 10.75 27.84C10.645 27.42 10.75 27 10.645 26.685Z" fill="#010F14"/>
<path d="M21.2498 53.6701C21.0398 52.7251 20.7248 51.8851 20.7248 50.8351C20.7248 49.9951 20.8298 49.0501 20.7248 48.1051C20.7248 47.8951 20.3048 47.7901 20.3048 48.1051C20.0948 49.8901 19.9898 51.5701 20.4098 53.2501C20.8298 54.9301 20.8298 56.6101 21.3548 58.2901C21.3548 58.3951 21.5648 58.3951 21.5648 58.2901C21.4598 56.8201 21.5648 55.1401 21.2498 53.6701Z" fill="#010F14"/>
<path d="M21.6698 23.7451C21.3548 23.3251 20.8298 23.1151 20.3048 23.3251C19.6748 23.5351 19.2548 23.9551 19.1498 24.4801C19.0448 24.7951 19.0448 25.0051 19.0448 25.3201V25.4251C19.0448 25.5301 18.9398 25.7401 18.9398 25.8451C18.8348 26.4751 18.9398 27.4201 19.2548 28.0501C19.2548 28.1551 19.2548 28.3651 19.3598 28.4701C19.5698 28.7851 20.1998 28.9951 20.4098 28.5751C20.5148 28.2601 20.6198 27.9451 20.8298 27.7351C21.1448 27.3151 21.4598 27.1051 21.6698 26.5801C22.0898 25.8451 22.2998 24.4801 21.6698 23.7451Z" fill="#010F14"/>
<path d="M36.79 27C36.685 26.475 36.16 26.265 35.635 26.58C36.16 26.265 35.53 26.58 35.425 26.58C35.215 26.685 35.11 26.895 35.005 27.105C34.795 27.63 34.9 28.155 35.005 28.68C35.32 29.73 35.53 31.095 36.055 31.935C36.16 32.04 36.475 32.145 36.475 31.83C36.58 30.99 36.58 30.045 36.685 29.205C36.895 28.575 36.895 27.735 36.79 27Z" fill="#010F14"/>
<path d="M50.0194 27.42C49.9144 26.895 49.8094 26.16 49.3894 25.845C49.2844 25.74 49.0744 25.845 48.9694 25.95C48.9694 25.95 48.9694 26.055 48.8644 26.055C48.6544 26.37 48.7594 26.475 48.8644 26.895C48.9694 27.315 49.0744 27.735 49.1794 28.155C49.2844 28.575 49.3894 29.1 49.8094 29.31C50.0194 29.415 50.2294 29.1 50.1244 28.995C50.0194 28.785 50.1244 28.575 50.1244 28.365C50.1244 28.05 50.1244 27.735 50.0194 27.42Z" fill="#010F14"/>
<path d="M37.1047 97.0349C36.8947 95.8799 36.3697 94.6199 36.4747 93.4649C36.4747 93.3599 36.2647 93.1499 36.1597 93.2549C35.5297 93.8849 35.3197 95.2499 35.2147 96.0899C35.0047 97.6649 35.0047 99.4499 35.3197 100.92C35.5297 101.76 36.5797 101.55 36.7897 100.92C37.4197 99.7649 37.4197 98.2949 37.1047 97.0349Z" fill="#010F14"/>
<path d="M50.0198 11.67C48.6548 9.98997 47.1848 11.985 46.0298 12.72C45.2948 13.14 44.7698 13.665 44.1398 14.19C43.4048 14.82 42.6698 15.87 41.7248 16.29C41.5148 16.395 41.6198 16.71 41.8298 16.71C43.0898 16.815 44.3498 15.135 45.3998 14.61C46.1348 14.19 46.8698 14.295 47.6048 13.875C48.3398 13.455 49.4948 13.035 49.9148 12.3C50.1248 12.09 50.1248 11.88 50.0198 11.67Z" fill="#010F14"/>
<path d="M30.6999 7.26004C29.0199 6.42004 26.3949 7.26004 24.7149 7.47004C23.0349 7.68004 21.0399 9.04504 19.5699 9.78004C19.4649 9.78004 19.5699 9.99004 19.6749 9.99004C20.7249 9.67504 21.6699 9.25504 22.8249 9.25504C23.5599 9.25504 24.0849 9.36004 24.8199 9.15004C25.5549 8.94004 26.1849 8.62504 26.9199 8.31004C28.0749 7.78504 29.4399 7.89004 30.8049 7.78504C30.8049 7.68004 30.8049 7.36504 30.6999 7.26004Z" fill="#010F14"/>
<path d="M56.0043 8.20501C55.3743 7.89001 54.6393 7.47001 53.9043 7.36501C52.4343 7.05001 50.6493 6.63001 49.1793 7.05001C49.0743 7.05001 49.0743 7.36501 49.1793 7.36501C50.7543 7.36501 51.6993 8.41501 53.0643 8.73001C54.3243 8.94001 56.0043 8.83501 57.1593 9.46501C57.2643 9.46501 57.2643 9.36001 57.2643 9.36001C57.0543 8.62501 56.6343 8.52001 56.0043 8.20501Z" fill="#010F14"/>
</svg>
