<svg width="128" height="64" viewBox="0 0 128 64" fill="none" xmlns="http://www.w3.org/2000/svg">
<g clip-path="url(#clip0)">
<path d="M75.7423 45.8762C76.1293 46.9343 76.4582 48.0129 76.7277 49.1069C76.7275 49.3867 76.6491 49.6608 76.5015 49.8985C76.3492 50.1287 76.137 50.3129 75.8877 50.4315C75.1608 50.7708 74.8862 50.6415 73.8362 49.85L65.3069 43.6954C64.7901 43.2649 64.138 43.0304 63.4654 43.0331C62.828 43.0714 62.2234 43.3281 61.7531 43.76L60.59 44.6L53.4985 49.5431C53.05 49.973 52.4906 50.2694 51.8831 50.3992C51.5109 50.3854 51.1582 50.2293 50.8977 49.9631C50.6295 49.7139 50.4627 49.3745 50.4292 49.01C50.4724 48.6091 50.5759 48.217 50.7362 47.8469C50.7362 47.8469 53.4823 39.5762 53.5469 39.4146C53.6727 39.1963 53.7704 38.9629 53.8377 38.72H50.72L48.0062 46.7969C47.7273 47.4638 47.5687 48.1748 47.5377 48.8969C47.5497 49.4556 47.673 50.0062 47.9004 50.5166C48.1279 51.027 48.4549 51.4868 48.8623 51.8692C49.6648 52.6477 50.733 53.0923 51.8508 53.1131C53.1065 53.03 54.2968 52.5231 55.2269 51.6754L63.4815 45.8762H63.5785L72.4308 52.3377C73.2333 52.9911 74.224 53.3703 75.2577 53.42C75.8957 53.4081 76.5237 53.2593 77.0992 52.9838C77.8562 52.641 78.4923 52.0781 78.9246 51.3685C79.3615 50.6946 79.5969 49.91 79.6031 49.1069C79.4049 47.7066 79.0248 46.3381 78.4723 45.0362L77.2931 41.4338C76.9377 40.3192 75.9361 37.2985 75.8877 37.1854C76.1138 37.0077 83.9646 31.4508 83.9646 31.4508C84.8526 30.9318 85.6272 30.2396 86.2423 29.4154C86.7977 28.5052 86.9801 27.4156 86.7513 26.3741C86.5226 25.3327 85.9004 24.4198 85.0146 23.8262C84.3416 23.3667 83.5514 23.1089 82.7369 23.0831H71.2354C71.2354 22.9215 67.8592 12.6962 67.8592 12.6962C67.7252 12.1578 67.4834 11.6522 67.1485 11.21C66.7728 10.7138 66.2931 10.3058 65.7431 10.0146C65.4437 9.84816 65.1231 9.72316 64.79 9.64308C63.8761 9.39568 62.9065 9.45238 62.0277 9.80462C61.1258 10.1707 60.3744 10.8311 59.8954 11.6785C59.7115 12.0055 59.5652 12.3523 59.4592 12.7123L56.3577 22.0169H59.3785C59.3785 22.0169 62.2215 13.4715 62.2215 13.3423C62.258 13.1937 62.318 13.052 62.3992 12.9223C62.5569 12.6273 62.8147 12.3982 63.1262 12.2762C63.4198 12.1788 63.7371 12.1788 64.0308 12.2762L64.3538 12.4054C64.5403 12.4999 64.7053 12.6319 64.8385 12.7931C64.9665 12.9852 65.0595 13.1985 65.1131 13.4231L68.3438 23.2608C68.4517 23.6846 68.6033 24.096 68.7962 24.4885C69.5069 25.8938 71.1061 25.8454 72.1723 25.8131H72.7054H81.8162C82.3654 25.8071 82.9116 25.8945 83.4315 26.0715C83.7238 26.2656 83.9271 26.5677 83.9969 26.9115C84.07 27.2662 84.0066 27.6354 83.8192 27.9454C83.3918 28.3839 82.9084 28.7641 82.3815 29.0762L75.0315 34.2454C74.363 34.615 73.7753 35.1148 73.3031 35.7154C73.0865 36.132 72.9734 36.5947 72.9734 37.0642C72.9734 37.5338 73.0865 37.9965 73.3031 38.4131L75.7423 45.8762Z" fill="#010F14"/>
<path d="M57.1654 23.8261H45.68C45.4731 23.795 45.262 23.809 45.061 23.8669C44.86 23.9249 44.6739 24.0256 44.5153 24.162C44.3568 24.2985 44.2296 24.4676 44.1424 24.6578C44.0552 24.8479 44.01 25.0546 44.01 25.2638C44.01 25.473 44.0552 25.6798 44.1424 25.8699C44.2296 26.06 44.3568 26.2291 44.5153 26.3656C44.6739 26.5021 44.86 26.6028 45.061 26.6607C45.262 26.7187 45.4731 26.7326 45.68 26.7015H57.1654C57.3722 26.7326 57.5834 26.7187 57.7844 26.6607C57.9854 26.6028 58.1715 26.5021 58.33 26.3656C58.4886 26.2291 58.6158 26.06 58.703 25.8699C58.7902 25.6798 58.8354 25.473 58.8354 25.2638C58.8354 25.0546 58.7902 24.8479 58.703 24.6578C58.6158 24.4676 58.4886 24.2985 58.33 24.162C58.1715 24.0256 57.9854 23.9249 57.7844 23.8669C57.5834 23.809 57.3722 23.795 57.1654 23.8261Z" fill="#010F14"/>
<path fill-rule="evenodd" clip-rule="evenodd" d="M48.7654 16.6861C48.6846 17.3323 48.6361 17.8169 48.5715 18.3015C48.5639 19.4114 48.3389 20.509 47.9092 21.5323C47.57 21.9685 47.0369 21.8554 46.0192 21.5323L44.8723 21.29C44.8723 21.29 45.0661 17.9623 45.4054 16.0561C45.6315 14.78 45.9223 13.7461 46.2777 13.5846C46.4112 13.5604 46.548 13.5604 46.6815 13.5846C47.0236 13.6483 47.3495 13.7796 47.6402 13.9707C47.9309 14.1619 48.1806 14.4091 48.3746 14.6979C48.5687 14.9867 48.7032 15.3113 48.7702 15.6527C48.8373 15.9941 48.8357 16.3454 48.7654 16.6861Z" fill="#010F14"/>
<path d="M57.1654 28.5108H45.68C45.4731 28.4797 45.262 28.4936 45.061 28.5516C44.86 28.6095 44.6739 28.7102 44.5153 28.8467C44.3568 28.9832 44.2296 29.1522 44.1424 29.3424C44.0552 29.5325 44.01 29.7393 44.01 29.9485C44.01 30.1577 44.0552 30.3644 44.1424 30.5545C44.2296 30.7447 44.3568 30.9138 44.5153 31.0503C44.6739 31.1867 44.86 31.2874 45.061 31.3454C45.262 31.4033 45.4731 31.4173 45.68 31.3862H57.1654C57.3722 31.4173 57.5834 31.4033 57.7844 31.3454C57.9854 31.2874 58.1715 31.1867 58.33 31.0503C58.4886 30.9138 58.6158 30.7447 58.703 30.5545C58.7902 30.3644 58.8354 30.1577 58.8354 29.9485C58.8354 29.7393 58.7902 29.5325 58.703 29.3424C58.6158 29.1522 58.4886 28.9832 58.33 28.8467C58.1715 28.7102 57.9854 28.6095 57.7844 28.5516C57.5834 28.4936 57.3722 28.4797 57.1654 28.5108Z" fill="#010F14"/>
<path d="M57.1654 33.1954H45.68C45.4731 33.1643 45.262 33.1782 45.061 33.2362C44.86 33.2941 44.6739 33.3948 44.5153 33.5313C44.3568 33.6678 44.2296 33.8369 44.1424 34.027C44.0552 34.2172 44.01 34.4239 44.01 34.6331C44.01 34.8423 44.0552 35.049 44.1424 35.2391C44.2296 35.4293 44.3568 35.5984 44.5153 35.7349C44.6739 35.8713 44.86 35.972 45.061 36.03C45.262 36.0879 45.4731 36.1019 45.68 36.0708H57.1654C57.3722 36.1019 57.5834 36.0879 57.7844 36.03C57.9854 35.972 58.1715 35.8713 58.33 35.7349C58.4886 35.5984 58.6158 35.4293 58.703 35.2391C58.7902 35.049 58.8354 34.8423 58.8354 34.6331C58.8354 34.4239 58.7902 34.2172 58.703 34.027C58.6158 33.8369 58.4886 33.6678 58.33 33.5313C58.1715 33.3948 57.9854 33.2941 57.7844 33.2362C57.5834 33.1782 57.3722 33.1643 57.1654 33.1954Z" fill="#010F14"/>
</g>
<defs>
<clipPath id="clip0">
<rect width="128" height="64" fill="white"/>
</clipPath>
</defs>
</svg>
