<svg width="128" height="65" viewBox="0 0 128 65" fill="none" xmlns="http://www.w3.org/2000/svg">
<g clip-path="url(#clip0)">
<g clip-path="url(#clip1)">
<path d="M70.2461 34.3805H67.5276C63.258 34.3805 59.1174 31.8206 59.1174 25.4202C59.1174 18.7525 62.9988 16.0331 66.9452 16.0331H70.246V34.3805H70.2461ZM74.5157 12.62H67.1394C59.8943 12.62 53.7476 17.1534 53.7476 25.9537C53.7476 31.2338 56.7248 35.1268 62.0282 37.0469L52.1314 51.7672C51.8082 52.2475 52.1314 52.62 52.6474 52.62H57.2408C57.629 52.62 57.8881 52.5135 58.0172 52.2475L67.0098 37.7932H70.246V52.2475C70.246 52.407 70.4401 52.62 70.697 52.62H74.7098C75.098 52.62 75.2276 52.4601 75.2276 52.1945V13.1538C75.2276 12.7795 74.9684 12.62 74.5157 12.62" fill="#010F14"/>
</g>
</g>
<defs>
<clipPath id="clip0">
<rect width="128" height="64" fill="white" transform="translate(0 0.619995)"/>
</clipPath>
<clipPath id="clip1">
<rect width="23.23" height="40" fill="white" transform="translate(52 12.62)"/>
</clipPath>
</defs>
</svg>
