<svg width="701" height="37" viewBox="0 0 701 37" fill="none" xmlns="http://www.w3.org/2000/svg">
<g clip-path="url(#clip0)">
<path fill-rule="evenodd" clip-rule="evenodd" d="M0.303207 8.62088C0.347901 8.62029 0.392667 8.62 0.4375 8.62C5.96035 8.62 10.4375 13.0971 10.4375 18.62C10.4375 24.1428 5.96035 28.62 0.4375 28.62C0.350545 28.62 0.26385 28.6189 0.177427 28.6167L0.303207 8.62088Z" fill="white"/>
<path fill-rule="evenodd" clip-rule="evenodd" d="M37.0718 8.62088C37.0271 8.62029 36.9823 8.62 36.9375 8.62C31.4147 8.62 26.9375 13.0971 26.9375 18.62C26.9375 24.1428 31.4147 28.62 36.9375 28.62C37.0245 28.62 37.1111 28.6189 37.1976 28.6167L37.0718 8.62088Z" fill="white"/>
<path fill-rule="evenodd" clip-rule="evenodd" d="M37.3237 8.62088C37.3684 8.62029 37.4132 8.62 37.458 8.62C42.9809 8.62 47.458 13.0971 47.458 18.62C47.458 24.1428 42.9809 28.62 37.458 28.62C37.3711 28.62 37.2844 28.6189 37.1979 28.6167L37.3237 8.62088Z" fill="white"/>
<path fill-rule="evenodd" clip-rule="evenodd" d="M74.0913 8.62088C74.0466 8.62029 74.0019 8.62 73.957 8.62C68.4342 8.62 63.957 13.0971 63.957 18.62C63.957 24.1428 68.4342 28.62 73.957 28.62C74.044 28.62 74.1307 28.6189 74.2171 28.6167L74.0913 8.62088Z" fill="white"/>
<path fill-rule="evenodd" clip-rule="evenodd" d="M74.3432 8.62088C74.3879 8.62029 74.4327 8.62 74.4775 8.62C80.0004 8.62 84.4775 13.0971 84.4775 18.62C84.4775 24.1428 80.0004 28.62 74.4775 28.62C74.3906 28.62 74.3039 28.6189 74.2175 28.6167L74.3432 8.62088Z" fill="white"/>
<path fill-rule="evenodd" clip-rule="evenodd" d="M111.112 8.62088C111.067 8.62029 111.022 8.62 110.978 8.62C105.455 8.62 100.978 13.0971 100.978 18.62C100.978 24.1428 105.455 28.62 110.978 28.62C111.064 28.62 111.151 28.6189 111.238 28.6167L111.112 8.62088Z" fill="white"/>
<path fill-rule="evenodd" clip-rule="evenodd" d="M111.364 8.62088C111.408 8.62029 111.453 8.62 111.498 8.62C117.021 8.62 121.498 13.0971 121.498 18.62C121.498 24.1428 117.021 28.62 111.498 28.62C111.411 28.62 111.324 28.6189 111.238 28.6167L111.364 8.62088Z" fill="white"/>
<path fill-rule="evenodd" clip-rule="evenodd" d="M148.132 8.62088C148.088 8.62029 148.043 8.62 147.998 8.62C142.475 8.62 137.998 13.0971 137.998 18.62C137.998 24.1428 142.475 28.62 147.998 28.62C148.085 28.62 148.172 28.6189 148.258 28.6167L148.132 8.62088Z" fill="white"/>
<path fill-rule="evenodd" clip-rule="evenodd" d="M148.384 8.62088C148.429 8.62029 148.474 8.62 148.519 8.62C154.041 8.62 158.519 13.0971 158.519 18.62C158.519 24.1428 154.041 28.62 148.519 28.62C148.432 28.62 148.345 28.6189 148.258 28.6167L148.384 8.62088Z" fill="white"/>
<path fill-rule="evenodd" clip-rule="evenodd" d="M185.152 8.62088C185.107 8.62029 185.062 8.62 185.018 8.62C179.495 8.62 175.018 13.0971 175.018 18.62C175.018 24.1428 179.495 28.62 185.018 28.62C185.105 28.62 185.191 28.6189 185.278 28.6167L185.152 8.62088Z" fill="white"/>
<path fill-rule="evenodd" clip-rule="evenodd" d="M185.404 8.62088C185.448 8.62029 185.493 8.62 185.538 8.62C191.061 8.62 195.538 13.0971 195.538 18.62C195.538 24.1428 191.061 28.62 185.538 28.62C185.451 28.62 185.364 28.6189 185.278 28.6167L185.404 8.62088Z" fill="white"/>
<path fill-rule="evenodd" clip-rule="evenodd" d="M222.172 8.62088C222.128 8.62029 222.083 8.62 222.038 8.62C216.515 8.62 212.038 13.0971 212.038 18.62C212.038 24.1428 216.515 28.62 222.038 28.62C222.125 28.62 222.212 28.6189 222.298 28.6167L222.172 8.62088Z" fill="white"/>
<path fill-rule="evenodd" clip-rule="evenodd" d="M222.424 8.62088C222.469 8.62029 222.514 8.62 222.559 8.62C228.081 8.62 232.559 13.0971 232.559 18.62C232.559 24.1428 228.081 28.62 222.559 28.62C222.472 28.62 222.385 28.6189 222.299 28.6167L222.424 8.62088Z" fill="white"/>
<path fill-rule="evenodd" clip-rule="evenodd" d="M259.192 8.62088C259.147 8.62029 259.102 8.62 259.058 8.62C253.535 8.62 249.058 13.0971 249.058 18.62C249.058 24.1428 253.535 28.62 259.058 28.62C259.145 28.62 259.231 28.6189 259.318 28.6167L259.192 8.62088Z" fill="white"/>
<path fill-rule="evenodd" clip-rule="evenodd" d="M259.444 8.62088C259.489 8.62029 259.533 8.62 259.578 8.62C265.101 8.62 269.578 13.0971 269.578 18.62C269.578 24.1428 265.101 28.62 259.578 28.62C259.491 28.62 259.404 28.6189 259.318 28.6167L259.444 8.62088Z" fill="white"/>
<path fill-rule="evenodd" clip-rule="evenodd" d="M296.212 8.62088C296.168 8.62029 296.123 8.62 296.078 8.62C290.555 8.62 286.078 13.0971 286.078 18.62C286.078 24.1428 290.555 28.62 296.078 28.62C296.165 28.62 296.252 28.6189 296.338 28.6167L296.212 8.62088Z" fill="white"/>
<path fill-rule="evenodd" clip-rule="evenodd" d="M296.464 8.62088C296.509 8.62029 296.554 8.62 296.599 8.62C302.121 8.62 306.599 13.0971 306.599 18.62C306.599 24.1428 302.121 28.62 296.599 28.62C296.512 28.62 296.425 28.6189 296.339 28.6167L296.464 8.62088Z" fill="white"/>
<path fill-rule="evenodd" clip-rule="evenodd" d="M333.233 8.62088C333.188 8.62029 333.143 8.62 333.099 8.62C327.576 8.62 323.099 13.0971 323.099 18.62C323.099 24.1428 327.576 28.62 333.099 28.62C333.186 28.62 333.272 28.6189 333.359 28.6167L333.233 8.62088Z" fill="white"/>
<path fill-rule="evenodd" clip-rule="evenodd" d="M333.485 8.62088C333.53 8.62029 333.574 8.62 333.619 8.62C339.142 8.62 343.619 13.0971 343.619 18.62C343.619 24.1428 339.142 28.62 333.619 28.62C333.532 28.62 333.445 28.6189 333.359 28.6167L333.485 8.62088Z" fill="white"/>
<path fill-rule="evenodd" clip-rule="evenodd" d="M370.252 8.62088C370.208 8.62029 370.163 8.62 370.118 8.62C364.595 8.62 360.118 13.0971 360.118 18.62C360.118 24.1428 364.595 28.62 370.118 28.62C370.205 28.62 370.292 28.6189 370.378 28.6167L370.252 8.62088Z" fill="white"/>
<path fill-rule="evenodd" clip-rule="evenodd" d="M370.504 8.62088C370.549 8.62029 370.594 8.62 370.639 8.62C376.162 8.62 380.639 13.0971 380.639 18.62C380.639 24.1428 376.162 28.62 370.639 28.62C370.552 28.62 370.465 28.6189 370.379 28.6167L370.504 8.62088Z" fill="white"/>
<path fill-rule="evenodd" clip-rule="evenodd" d="M407.273 8.62088C407.228 8.62029 407.184 8.62 407.139 8.62C401.616 8.62 397.139 13.0971 397.139 18.62C397.139 24.1428 401.616 28.62 407.139 28.62C407.226 28.62 407.312 28.6189 407.399 28.6167L407.273 8.62088Z" fill="white"/>
<path fill-rule="evenodd" clip-rule="evenodd" d="M407.525 8.62088C407.57 8.62029 407.614 8.62 407.659 8.62C413.182 8.62 417.659 13.0971 417.659 18.62C417.659 24.1428 413.182 28.62 407.659 28.62C407.572 28.62 407.486 28.6189 407.399 28.6167L407.525 8.62088Z" fill="white"/>
<path fill-rule="evenodd" clip-rule="evenodd" d="M444.292 8.62088C444.248 8.62029 444.203 8.62 444.158 8.62C438.635 8.62 434.158 13.0971 434.158 18.62C434.158 24.1428 438.635 28.62 444.158 28.62C444.245 28.62 444.332 28.6189 444.418 28.6167L444.292 8.62088Z" fill="white"/>
<path fill-rule="evenodd" clip-rule="evenodd" d="M444.544 8.62088C444.589 8.62029 444.634 8.62 444.679 8.62C450.202 8.62 454.679 13.0971 454.679 18.62C454.679 24.1428 450.202 28.62 444.679 28.62C444.592 28.62 444.505 28.6189 444.419 28.6167L444.544 8.62088Z" fill="white"/>
<path fill-rule="evenodd" clip-rule="evenodd" d="M481.313 8.62088C481.268 8.62029 481.224 8.62 481.179 8.62C475.656 8.62 471.179 13.0971 471.179 18.62C471.179 24.1428 475.656 28.62 481.179 28.62C481.266 28.62 481.352 28.6189 481.439 28.6167L481.313 8.62088Z" fill="white"/>
<path fill-rule="evenodd" clip-rule="evenodd" d="M481.565 8.62088C481.61 8.62029 481.654 8.62 481.699 8.62C487.222 8.62 491.699 13.0971 491.699 18.62C491.699 24.1428 487.222 28.62 481.699 28.62C481.612 28.62 481.526 28.6189 481.439 28.6167L481.565 8.62088Z" fill="white"/>
<path fill-rule="evenodd" clip-rule="evenodd" d="M518.334 8.62088C518.289 8.62029 518.244 8.62 518.199 8.62C512.676 8.62 508.199 13.0971 508.199 18.62C508.199 24.1428 512.676 28.62 518.199 28.62C518.286 28.62 518.373 28.6189 518.459 28.6167L518.334 8.62088Z" fill="white"/>
<path fill-rule="evenodd" clip-rule="evenodd" d="M518.585 8.62088C518.63 8.62029 518.675 8.62 518.72 8.62C524.243 8.62 528.72 13.0971 528.72 18.62C528.72 24.1428 524.243 28.62 518.72 28.62C518.633 28.62 518.546 28.6189 518.46 28.6167L518.585 8.62088Z" fill="white"/>
<path fill-rule="evenodd" clip-rule="evenodd" d="M555.353 8.62088C555.308 8.62029 555.264 8.62 555.219 8.62C549.696 8.62 545.219 13.0971 545.219 18.62C545.219 24.1428 549.696 28.62 555.219 28.62C555.306 28.62 555.392 28.6189 555.479 28.6167L555.353 8.62088Z" fill="white"/>
<path fill-rule="evenodd" clip-rule="evenodd" d="M555.604 8.62088C555.649 8.62029 555.694 8.62 555.739 8.62C561.262 8.62 565.739 13.0971 565.739 18.62C565.739 24.1428 561.262 28.62 555.739 28.62C555.652 28.62 555.565 28.6189 555.479 28.6167L555.604 8.62088Z" fill="white"/>
<path fill-rule="evenodd" clip-rule="evenodd" d="M592.374 8.62088C592.329 8.62029 592.284 8.62 592.239 8.62C586.716 8.62 582.239 13.0971 582.239 18.62C582.239 24.1428 586.716 28.62 592.239 28.62C592.326 28.62 592.413 28.6189 592.499 28.6167L592.374 8.62088Z" fill="white"/>
<path fill-rule="evenodd" clip-rule="evenodd" d="M592.625 8.62088C592.67 8.62029 592.714 8.62 592.759 8.62C598.282 8.62 602.759 13.0971 602.759 18.62C602.759 24.1428 598.282 28.62 592.759 28.62C592.672 28.62 592.586 28.6189 592.499 28.6167L592.625 8.62088Z" fill="white"/>
<path fill-rule="evenodd" clip-rule="evenodd" d="M629.394 8.62088C629.349 8.62029 629.304 8.62 629.259 8.62C623.736 8.62 619.259 13.0971 619.259 18.62C619.259 24.1428 623.736 28.62 629.259 28.62C629.346 28.62 629.433 28.6189 629.519 28.6167L629.394 8.62088Z" fill="white"/>
<path fill-rule="evenodd" clip-rule="evenodd" d="M629.645 8.62088C629.69 8.62029 629.734 8.62 629.779 8.62C635.302 8.62 639.779 13.0971 639.779 18.62C639.779 24.1428 635.302 28.62 629.779 28.62C629.692 28.62 629.606 28.6189 629.519 28.6167L629.645 8.62088Z" fill="white"/>
<path fill-rule="evenodd" clip-rule="evenodd" d="M666.414 8.62088C666.369 8.62029 666.324 8.62 666.279 8.62C660.756 8.62 656.279 13.0971 656.279 18.62C656.279 24.1428 660.756 28.62 666.279 28.62C666.366 28.62 666.453 28.6189 666.539 28.6167L666.414 8.62088Z" fill="white"/>
<path fill-rule="evenodd" clip-rule="evenodd" d="M666.665 8.62088C666.71 8.62029 666.754 8.62 666.799 8.62C672.322 8.62 676.799 13.0971 676.799 18.62C676.799 24.1428 672.322 28.62 666.799 28.62C666.712 28.62 666.626 28.6189 666.539 28.6167L666.665 8.62088Z" fill="white"/>
<path fill-rule="evenodd" clip-rule="evenodd" d="M703.434 8.62088C703.389 8.62029 703.345 8.62 703.3 8.62C697.777 8.62 693.3 13.0971 693.3 18.62C693.3 24.1428 697.777 28.62 703.3 28.62C703.387 28.62 703.473 28.6189 703.56 28.6167L703.434 8.62088Z" fill="white"/>
</g>
<defs>
<clipPath id="clip0">
<rect width="700" height="36" fill="white" transform="translate(0.901367 0.619995)"/>
</clipPath>
</defs>
</svg>
