<svg width="128" height="65" viewBox="0 0 128 65" fill="none" xmlns="http://www.w3.org/2000/svg">
<g clip-path="url(#clip0)">
<path fill-rule="evenodd" clip-rule="evenodd" d="M19.7067 28.1754C19.7067 26.1772 18.0943 25.3307 16.2838 25.3307H1.57051L1.56894 28.1447H12.7508C13.6136 28.1447 14.3177 28.4775 14.3177 29.5081L14.3224 30.0315H3.66859C1.80939 30.0315 0.726562 31.4159 0.726562 32.9392V36.3105C0.726562 37.6739 1.74024 39.3086 3.66859 39.3086H19.6973L19.7067 28.1754ZM6.09827 34.2929C6.09827 33.5466 6.49903 32.9069 7.65572 32.9069H14.3224V36.2782H7.68715C6.38116 36.2782 6.09827 35.4592 6.09827 35.0295V34.2929Z" fill="#010F14"/>
<path fill-rule="evenodd" clip-rule="evenodd" d="M128.465 28.1754C128.465 26.1772 126.851 25.3307 125.042 25.3307H110.327V28.1447H121.509C122.372 28.1447 123.075 28.4775 123.075 29.5081L123.081 30.0315H112.427C110.566 30.0315 109.483 31.4159 109.483 32.9392V36.3105C109.483 37.6739 110.499 39.3086 112.427 39.3086H128.456L128.465 28.1754ZM114.858 34.2929C114.858 33.5466 115.257 32.9069 116.414 32.9069H123.081V36.2782H116.446C115.138 36.2782 114.858 35.4592 114.858 35.0295V34.2929Z" fill="#010F14"/>
<path fill-rule="evenodd" clip-rule="evenodd" d="M68.7254 32.236V39.3114L74.325 39.3065V25.3674H68.7254L60.6883 34.4733C60.6883 34.4733 60.7134 33.7464 60.7134 32.8434V25.3674H55.1201V39.3114H60.7134L68.7647 30.1037C68.7647 30.1037 68.7254 31.5074 68.7254 32.236Z" fill="#010F14"/>
<path fill-rule="evenodd" clip-rule="evenodd" d="M106.942 25.3674H101.361V36.2777H94.8326V25.3674H89.2361V36.2777H82.7109V25.3674H77.0908V39.3114H106.942V25.3674Z" fill="#010F14"/>
<path fill-rule="evenodd" clip-rule="evenodd" d="M47.1791 34.861C47.1791 35.8948 46.475 36.3568 45.6091 36.3568H40.2421V28.1168H45.6091C46.475 28.1168 47.1791 28.5771 47.1791 29.611V34.861ZM34.6629 36.3568H29.2944C28.4284 36.3568 27.7259 35.8948 27.7259 34.861V29.611C27.7259 28.5771 28.4284 28.1168 29.2944 28.1168H34.6629V36.3568ZM49.1436 25.2995H40.2468V17.62H34.6582V25.2995H25.7614C23.9509 25.2995 22.3369 26.146 22.3369 28.1458V36.3245C22.3369 38.326 23.9509 39.3711 25.7614 39.3711H34.6582V47.0507H40.2468V39.3711H49.1436C50.9525 39.3711 52.5681 38.326 52.5681 36.3245V28.1458C52.5681 26.146 50.9525 25.2995 49.1436 25.2995Z" fill="#010F14"/>
</g>
<defs>
<clipPath id="clip0">
<rect width="128" height="64" fill="white" transform="translate(0 0.619995)"/>
</clipPath>
</defs>
</svg>
