<svg width="128" height="65" viewBox="0 0 128 65" fill="none" xmlns="http://www.w3.org/2000/svg">
<g clip-path="url(#clip0)">
<path d="M83.125 33.0887C83.125 31.8387 82.9688 30.9012 82.8125 29.8856H64.375V36.5262H75.3125C74.9219 39.4169 72.0312 44.8856 64.375 44.8856C57.7344 44.8856 52.3438 39.4169 52.3438 32.62C52.3438 21.7606 65.1562 16.7606 72.0312 23.4012L77.3438 18.3231C73.9844 15.1981 69.5312 13.245 64.375 13.245C53.5938 13.245 45 21.9169 45 32.62C45 43.4012 53.5938 51.995 64.375 51.995C75.5469 51.995 83.125 44.1825 83.125 33.0887Z" fill="#010F14"/>
</g>
<defs>
<clipPath id="clip0">
<rect width="128" height="64" fill="white" transform="translate(0 0.619995)"/>
</clipPath>
</defs>
</svg>
