<svg width="128" height="65" viewBox="0 0 128 65" fill="none" xmlns="http://www.w3.org/2000/svg">
<g clip-path="url(#clip0)">
<g clip-path="url(#clip1)">
<path d="M49.2539 28.4965C45.1224 28.4965 41.7822 31.8344 41.7822 35.9515C41.7822 40.0685 45.1224 43.4064 49.2422 43.4064C53.3621 43.4064 56.7023 40.0685 56.7023 35.9515C56.7139 31.8344 53.3738 28.4965 49.2539 28.4965ZM49.2539 41.2897C46.3094 41.2897 43.912 38.9055 43.912 35.9515C43.912 32.9974 46.2978 30.6132 49.2539 30.6132C52.21 30.6132 54.5841 33.009 54.5841 35.9515C54.5841 38.8939 52.1983 41.2897 49.2539 41.2897Z" fill="#010F14"/>
<path d="M49.277 39.6499C51.3274 39.6499 52.9896 37.9889 52.9896 35.9399C52.9896 33.8909 51.3274 32.2299 49.277 32.2299C47.2266 32.2299 45.5645 33.8909 45.5645 35.9399C45.5645 37.9889 47.2266 39.6499 49.277 39.6499Z" fill="#010F14"/>
<path d="M79.0479 28.4965C74.928 28.4965 71.5879 31.8344 71.5879 35.9515C71.5879 40.0685 74.928 43.4064 79.0479 43.4064C83.1678 43.4064 86.5079 40.0685 86.5079 35.9515C86.5079 31.8344 83.1678 28.4965 79.0479 28.4965ZM79.0479 41.2897C76.1035 41.2897 73.706 38.9055 73.706 35.9515C73.706 32.9974 76.0918 30.6132 79.0479 30.6132C82.004 30.6132 84.3781 33.009 84.3781 35.9515C84.3781 38.8939 81.9923 41.2897 79.0479 41.2897Z" fill="#010F14"/>
<path d="M79.071 39.6499C81.1213 39.6499 82.7835 37.9889 82.7835 35.9399C82.7835 33.8909 81.1213 32.2299 79.071 32.2299C77.0206 32.2299 75.3584 33.8909 75.3584 35.9399C75.3584 37.9889 77.0206 39.6499 79.071 39.6499Z" fill="#010F14"/>
<path d="M89.5451 25.3907L93.9326 21.041H85.0411C80.06 16.9937 71.7853 13.621 64.1158 13.621C56.4347 13.621 48.2299 16.9937 43.2488 21.041H34.334L38.7215 25.3907C36.0099 28.0889 34.334 31.8222 34.334 35.9509C34.334 44.1851 41.0142 50.8608 49.254 50.8608C53.0364 50.8608 56.4929 49.4535 59.1231 47.1275L64.174 50.8375L69.1668 47.2089L69.1086 47.0693C71.7504 49.4186 75.2186 50.8492 79.0359 50.8492C87.2756 50.8492 93.9559 44.1734 93.9559 35.9393C93.9443 31.8222 92.2567 28.0889 89.5451 25.3907ZM77.1621 21.1573C70.0978 22.0412 64.5581 27.8563 64.1391 35.0554C63.7085 27.8447 58.1571 22.018 51.0696 21.1573C54.6308 18.5987 59.1697 17.3427 64.1158 17.3427C69.062 17.3427 73.6009 18.5987 77.1621 21.1573ZM49.254 47.1391C43.0625 47.1391 38.0582 42.1265 38.0582 35.9509C38.0582 29.7753 43.0742 24.7627 49.254 24.7627C55.4338 24.7627 60.4498 29.7753 60.4498 35.9509C60.4382 42.1265 55.4338 47.1391 49.254 47.1391ZM79.0475 47.1391C72.8677 47.1391 67.8517 42.1265 67.8517 35.9509C67.8517 29.7753 72.8677 24.7627 79.0475 24.7627C85.2273 24.7627 90.2433 29.7753 90.2433 35.9509C90.2317 42.1265 85.2273 47.1391 79.0475 47.1391Z" fill="#010F14"/>
</g>
</g>
<defs>
<clipPath id="clip0">
<rect width="128" height="64" fill="white" transform="translate(0 0.619995)"/>
</clipPath>
<clipPath id="clip1">
<rect width="59.6103" height="37.243" fill="white" transform="translate(34.334 13.62)"/>
</clipPath>
</defs>
</svg>
