<svg width="105" height="117" viewBox="0 0 105 117" fill="none" xmlns="http://www.w3.org/2000/svg">
<path d="M11.467 12.7266C12.427 11.0199 13.8137 9.63326 15.4137 8.5666C17.0137 7.49993 18.827 6.85993 20.747 6.85993C22.8804 6.75326 24.907 7.39326 26.827 8.45993C27.0404 8.5666 27.3604 8.8866 27.467 8.45993C27.787 7.49993 28.5337 6.9666 29.067 6.21993C30.2404 4.51326 31.5204 3.01993 33.3337 2.05993C34.507 1.5266 35.6804 0.886597 37.067 0.886597C39.0937 0.886597 41.0137 1.2066 42.9337 1.95326C46.1337 3.01993 48.6937 5.0466 51.147 7.07326C51.6804 7.49993 52.107 7.9266 52.9604 7.81993C55.4137 7.49993 57.7604 8.13993 60.2137 8.5666C62.987 8.99326 65.4404 9.95326 67.787 11.5533C69.6004 12.7266 71.2004 14.0066 72.6937 15.4999C73.227 16.0333 73.547 16.8866 74.507 16.9933C76.107 17.0999 77.6004 17.8466 78.987 18.4866C81.9737 19.8733 84.5337 21.7933 86.667 24.3533C88.587 26.5933 90.2937 28.9399 91.5737 31.4999C92.5337 32.8866 93.1737 34.4866 94.8804 35.0199C94.987 35.1266 95.2004 35.2333 95.307 35.3399C97.4404 36.8333 99.467 38.5399 100.96 40.6733C103.094 43.6599 104.054 47.1799 104.054 50.8066C104.054 53.3666 103.84 56.0333 102.347 58.2733C101.174 60.1933 99.8937 62.0066 97.3337 62.6466C95.307 63.1799 93.387 63.2866 91.3604 62.9666C91.147 62.9666 91.0404 62.9666 90.827 62.9666C89.7604 63.2866 88.907 64.1399 87.947 64.6733C87.0937 65.0999 86.347 65.9533 85.4937 66.4866C83.3604 67.8733 81.4404 69.4733 79.4137 70.9666C77.1737 72.6733 75.0404 74.3799 73.0137 76.2999C69.707 79.3933 66.2937 82.4866 63.627 86.2199C62.8804 87.1799 62.1337 88.1399 61.8137 89.4199C61.6004 90.2733 61.387 91.1266 61.067 91.9799C60.5337 93.8999 60.0004 95.9266 59.3604 97.8466C58.7204 99.6599 58.2937 101.473 57.4404 103.18C57.0137 104.14 56.3737 104.993 55.8404 105.953C54.7737 107.98 53.8137 110.007 52.9604 112.033C52.5337 112.887 52.0004 113.74 51.467 114.487C50.507 115.873 49.1204 116.3 47.627 116.3C46.1337 116.3 44.747 115.873 43.3604 115.447C41.7604 114.913 40.267 114.167 38.667 113.633C36.3204 112.78 34.0804 111.927 31.7337 110.967C29.387 110.007 27.147 108.833 24.8004 107.767C23.7337 107.34 22.7737 106.7 21.707 106.38C20.107 105.847 18.6137 104.887 17.1204 104.247C15.627 103.607 14.1337 102.753 12.6404 102.007C9.44037 100.407 6.34704 98.8066 3.46703 96.6733C1.54704 95.1799 1.0137 93.5799 1.76037 91.3399C2.2937 89.8466 2.6137 88.3533 2.9337 86.7533C3.46703 84.2999 4.64037 82.2733 6.13371 80.2466C6.88037 79.2866 7.62704 78.4333 8.3737 77.4733C9.44037 76.1933 9.65371 74.4866 10.187 72.9933C10.7204 71.6066 10.9337 70.2199 11.6804 68.9399C12.3204 67.7666 12.747 66.4866 13.6004 65.4199C14.1337 64.5666 14.2404 63.6066 14.667 62.6466C15.2004 61.1533 15.8404 59.7666 16.267 58.2733C16.6937 56.4599 17.0137 54.5399 17.3337 52.6199C17.6537 50.3799 18.0804 48.2466 18.187 45.8999C18.2937 44.4066 18.2937 42.9133 18.4004 41.4199C18.507 38.8599 18.4004 36.1933 18.187 33.6333C18.0804 32.1399 17.7604 30.7533 17.547 29.3666C17.3337 28.0866 17.4404 26.6999 15.8404 25.9533C13.9204 25.0999 12.747 23.1799 11.6804 21.3666C9.6537 18.5933 9.86703 15.6066 11.467 12.7266ZM68.747 13.1533C68.9604 13.7933 69.6004 14.3266 69.707 15.1799C68.6404 13.8999 68.0004 12.5133 66.6137 11.7666C66.9337 12.2999 67.2537 12.6199 67.5737 13.0466C67.8937 13.5799 68.2137 14.0066 68.427 14.6466C68.5337 14.7533 68.747 14.8599 68.5337 15.0733C68.3204 15.2866 68.2137 15.0733 68.107 14.8599C67.8937 14.1133 67.3604 13.5799 66.9337 12.9399C66.4004 12.1933 65.9737 11.3399 65.0137 11.0199C64.907 11.0199 64.8004 10.8066 64.587 11.0199C65.227 11.7666 65.9737 12.6199 66.2937 13.5799C65.0137 12.2999 64.267 10.3799 62.1337 9.95326C62.8804 10.9133 63.7337 11.5533 63.947 12.6199C62.667 11.4466 62.1337 9.41993 59.8937 9.31326C60.6404 10.1666 61.1737 11.0199 61.6004 11.9799C60.427 11.1266 60.107 9.31326 58.2937 8.99326C58.827 9.73993 59.3604 10.2733 59.6804 11.1266C59.0404 10.6999 58.7204 10.1666 58.4004 9.73993C57.9737 9.09993 57.547 8.8866 56.8004 9.09993C57.547 9.95326 58.2937 11.0199 58.7204 12.0866C58.0804 11.5533 57.7604 10.6999 57.227 10.1666C57.1204 10.0599 56.907 9.8466 56.8004 9.63326C56.3737 8.8866 55.7337 8.8866 54.987 9.09993C55.8404 10.2733 56.8004 11.3399 57.547 12.6199C56.907 12.6199 56.8004 12.0866 56.587 11.7666C55.947 10.8066 55.0937 10.1666 54.5604 9.2066C54.4537 8.99326 54.1337 8.99326 53.8137 8.99326C53.4937 8.99326 53.1737 9.09993 52.747 9.2066C53.4937 10.0599 54.2404 10.8066 54.8804 11.6599C56.0537 13.1533 57.3337 14.6466 58.507 16.1399C58.6137 16.3533 58.7204 16.4599 59.0404 16.4599C61.707 16.3533 64.4804 16.4599 67.147 16.4599C68.8537 16.4599 70.5604 16.5666 72.3737 16.7799C71.5204 15.1799 70.1337 14.1133 68.747 13.1533ZM18.2937 72.0333C16.4804 71.0733 14.7737 70.1133 13.067 69.0466C12.747 68.8333 12.6404 68.9399 12.427 69.2599C12.0004 70.5399 11.467 71.8199 11.0404 73.0999C10.7204 74.1666 10.6137 75.0199 11.467 75.9799C12.9604 77.5799 14.347 79.1799 16.1604 80.5666C17.867 81.8466 19.8937 82.8066 21.707 83.9799C23.8404 85.3666 26.187 86.4333 28.2137 87.9266C30.1337 89.2066 32.267 90.3799 34.2937 91.5533C35.8937 92.4066 37.387 93.3666 39.0937 93.8999C39.2004 93.8999 39.307 94.0066 39.307 94.1133C39.307 94.3266 39.0937 94.2199 38.987 94.3266C38.7737 94.4333 38.5604 94.3266 38.4537 94.2199C36.747 93.4733 35.0404 92.7266 33.4404 91.8733C31.7337 90.9133 30.1337 89.9533 28.3204 88.9933C25.4404 87.4999 22.7737 85.4733 19.8937 84.0866C19.0404 83.6599 18.4004 83.0199 17.547 82.5933C15.627 81.5266 13.8137 80.3533 11.8937 79.2866C11.3604 78.9666 10.827 78.7533 10.2937 78.4333C9.6537 77.8999 9.0137 78.0066 8.48037 78.6466C7.52036 79.7133 6.7737 80.7799 5.92037 81.9533C5.60037 82.3799 5.70704 82.6999 6.13371 83.1266C7.4137 84.1933 8.80037 85.1533 10.2937 86.0066C13.6004 88.0333 17.0137 89.9533 20.5337 91.6599C20.8537 91.8733 21.1737 92.0866 21.4937 92.1933C20.9604 92.2999 20.5337 91.9799 20.107 91.7666C15.627 89.4199 11.147 87.1799 7.0937 84.1933C6.7737 83.9799 6.4537 83.6599 6.13371 83.4466C5.92037 83.3399 5.60037 82.9133 5.38704 83.3399C5.17371 83.6599 4.64037 84.0866 5.1737 84.6199C6.02703 85.4733 6.98703 86.1133 7.94703 86.7533C11.467 89.0999 15.4137 91.0199 19.147 93.0466C18.6137 92.8333 18.0804 92.6199 17.6537 92.4066C17.1204 92.1933 16.587 91.8733 16.0537 91.6599C13.1737 90.1666 10.2937 88.6733 7.52037 86.8599C6.7737 86.3266 6.02703 85.7933 5.28036 85.2599C5.06703 85.1533 4.8537 84.6199 4.64037 85.0466C4.42703 85.3666 4.2137 85.7933 4.64037 86.1133C5.28036 86.6466 5.81371 87.0733 6.4537 87.4999C9.97371 89.8466 13.707 91.8733 17.4404 93.6866C18.2937 94.1133 19.2537 94.5399 20.107 94.9666C19.0404 94.8599 18.0804 94.2199 17.0137 93.7933C15.5204 93.1533 14.027 92.1933 12.5337 91.4466C9.9737 90.1666 7.52037 88.5666 5.06704 87.1799C4.96037 87.1799 4.96037 87.0733 4.85371 87.0733C3.89371 86.3266 3.8937 86.3266 3.5737 87.4999C3.2537 88.6733 3.04037 89.9533 2.72038 91.2333C2.72038 91.4466 2.6137 91.6599 2.82703 91.8733C3.89371 93.0466 4.5337 94.4333 5.8137 95.4999C6.56036 96.1399 7.4137 96.5666 8.26704 96.9933C11.0404 98.5933 14.027 99.8733 16.907 101.26C17.1204 101.367 17.4404 101.367 17.6537 101.58C16.4804 101.58 15.627 100.94 14.5604 100.62C13.4937 100.193 12.5337 99.6599 11.467 99.2333C10.4004 98.8066 9.54704 98.1666 8.48037 97.7399C7.4137 97.3133 6.4537 96.6733 5.49371 96.1399C4.53371 95.6066 3.5737 95.0733 2.6137 94.4333C3.04037 95.2866 3.5737 96.0333 4.2137 96.6733C6.24036 98.5933 8.6937 99.7666 11.147 101.047C12.427 101.793 13.8137 102.327 15.2004 102.86C17.3337 103.713 19.3604 104.673 21.4937 105.633C25.1204 107.233 28.6404 108.833 32.267 110.433C34.827 111.607 37.4937 112.46 40.0537 113.313C42.0804 113.953 44.0004 114.807 46.027 115.447C47.7337 115.98 49.0137 115.767 50.2937 114.273C45.707 112.993 41.6537 110.86 37.4937 108.94C38.8804 109.26 40.0537 109.9 41.3337 110.433C43.5737 111.5 45.8137 112.46 48.1604 113.207C48.907 113.527 49.7604 113.633 50.6137 113.847C50.7204 113.847 50.7204 113.953 50.827 113.74C51.3604 112.887 52.0004 112.14 52.3204 111.287C52.5337 110.86 52.427 110.647 52.0004 110.54C49.867 109.9 47.7337 109.153 45.707 108.193C43.2537 107.02 40.6937 105.847 38.2404 104.673C37.9204 104.567 37.6004 104.567 37.387 104.14C38.4537 104.46 39.4137 104.993 40.3737 105.42C42.7204 106.487 44.9604 107.553 47.307 108.513C49.0137 109.153 50.7204 109.793 52.427 110.22C53.2804 110.433 53.067 109.58 53.387 109.26C53.707 108.833 53.1737 108.94 52.9604 108.833C50.0804 107.873 47.307 106.593 44.5337 105.313C42.827 104.46 41.227 103.607 39.627 102.753C39.5204 102.753 39.4137 102.647 39.5204 102.433C40.6937 102.967 41.7604 103.607 42.9337 104.14C46.2404 105.74 49.547 107.447 53.1737 108.407C53.4937 108.513 53.8137 108.62 54.027 108.193C54.347 107.553 54.347 107.447 53.4937 107.127C50.4004 106.06 47.4137 104.78 44.427 103.287C43.6804 102.967 42.9337 102.54 42.187 102.113C42.507 101.793 42.7204 102.113 42.9337 102.113C45.9204 103.5 48.8004 104.887 51.8937 106.06C52.6404 106.38 53.4937 106.593 54.2404 106.807C54.5604 106.913 54.667 106.807 54.8804 106.487C55.307 105.847 54.987 105.633 54.4537 105.42C52.9604 104.887 51.3604 104.247 49.9737 103.5C49.867 103.393 49.6537 103.393 49.7604 103.073C50.7204 103.5 51.6804 104.033 52.747 104.353C53.4937 104.673 54.347 104.887 55.0937 105.207C55.5204 105.42 55.627 104.993 55.8404 104.78C56.0537 104.46 55.7337 104.353 55.5204 104.247C53.8137 103.607 52.2137 102.967 50.507 102.327C50.4004 102.327 50.2937 102.327 50.2937 102.113C51.0404 102.113 51.5737 102.54 52.3204 102.753C53.4937 103.073 54.667 103.5 55.7337 103.927C56.1604 104.033 56.267 104.033 56.4804 103.607C57.1204 102.647 57.547 101.687 57.9737 100.727C58.4004 99.6599 58.7204 98.4866 59.0404 97.3133C59.147 96.8866 59.0404 96.6733 58.6137 96.4599C55.8404 95.0733 53.067 93.6866 50.2937 92.2999C49.0137 91.6599 47.7337 90.8066 46.4537 90.0599C46.347 90.0599 46.347 89.9533 46.347 89.7399C46.987 90.0599 47.627 90.3799 48.267 90.6999C50.0804 91.6599 51.787 92.6199 53.707 93.2599C55.4137 93.8999 57.227 94.6466 59.0404 94.8599C59.3604 94.8599 59.5737 94.9666 59.6804 94.5399C60.107 92.9399 60.5337 91.3399 60.9604 89.7399C61.1737 88.7799 60.8537 88.1399 60.0004 87.6066C59.2537 87.0733 59.147 87.0733 58.7204 87.9266C58.6137 88.0333 58.6137 88.1399 58.507 88.1399C58.2937 88.0333 58.2937 87.9266 58.4004 87.8199C58.9337 87.0733 58.4004 86.7533 57.7604 86.5399C57.3337 86.3266 56.907 86.2199 56.587 86.0066C56.267 85.7933 56.1604 86.1133 56.0537 86.3266C55.7337 86.9666 55.5204 87.6066 55.2004 88.2466C55.0937 88.3533 55.2004 88.5666 54.8804 88.6733C55.0937 87.8199 55.307 87.0733 55.627 86.3266C55.8404 85.7933 55.7337 85.6866 55.307 85.5799C53.1737 84.7266 51.147 83.6599 48.907 82.9133C48.1604 82.6999 47.4137 82.4866 46.667 82.2733C46.1337 82.0599 46.2404 82.8066 46.027 83.0199C45.8137 83.0199 45.8137 82.8066 45.9204 82.6999C46.2404 82.2733 46.027 82.0599 45.6004 81.8466C45.067 81.6333 44.5337 81.4199 44.0004 81.2066C43.787 81.0999 43.787 81.0999 43.6804 81.3133C43.467 81.8466 43.147 82.3799 43.0404 82.9133C42.9337 83.4466 42.2937 83.7666 42.4004 84.5133L42.187 84.4066C42.4004 83.7666 42.7204 83.0199 42.9337 82.3799C43.0404 82.2733 43.0404 82.0599 43.147 81.9533C43.5737 80.9933 43.5737 80.9933 42.507 80.6733C41.9737 80.5666 41.867 80.6733 41.6537 81.0999C41.1204 82.3799 40.6937 83.6599 39.947 84.8333C40.267 83.4466 40.907 82.1666 41.3337 80.7799C41.547 80.3533 41.547 80.1399 41.0137 80.0333C40.8004 80.0333 40.587 79.8199 40.267 79.8199C39.947 79.8199 39.627 79.1799 39.307 79.6066C39.0937 79.8199 38.8804 80.2466 38.8804 80.5666C38.8804 80.6733 38.7737 80.6733 38.667 80.8866C38.4537 80.3533 38.667 80.0333 38.7737 79.7133C38.987 79.3933 38.987 79.1799 38.5604 78.9666C35.6804 77.5799 32.8004 76.0866 30.027 74.6999C28.8537 74.0599 28.8537 74.0599 28.3204 75.3399C28.107 75.0199 28.3204 74.8066 28.427 74.5933C28.5337 74.1666 28.5337 73.8466 28.107 73.6333C27.8937 73.5266 27.6804 73.4199 27.467 73.3133C26.9337 72.9933 26.4004 72.7799 26.187 73.6333C26.187 73.7399 26.0804 73.9533 25.867 73.8466C25.7604 73.7399 25.7604 73.6333 25.867 73.4199C26.187 72.8866 26.187 72.4599 25.3337 72.3533C25.3337 72.3533 25.4404 72.5666 25.3337 72.5666C25.227 72.7799 25.227 73.0999 24.907 72.9933C24.587 72.8866 24.907 72.5666 25.0137 72.4599C25.1204 72.1399 25.0137 71.9266 24.6937 71.8199C24.1604 71.6066 23.7337 71.2866 23.2004 71.0733C22.667 70.7533 22.347 70.8599 22.1337 71.3933C22.027 71.7133 22.027 72.0333 21.707 72.3533C21.4937 71.8199 21.8137 71.3933 22.027 71.0733C22.2404 70.6466 22.1337 70.5399 21.8137 70.4333C20.2137 69.5799 18.6137 68.7266 17.0137 67.7666C16.1604 67.2333 15.2004 66.8066 14.2404 66.4866C14.027 66.4866 13.8137 66.2733 13.707 66.4866C13.6004 66.8066 13.8137 66.8066 14.027 66.9133C15.0937 67.5533 16.1604 68.1933 17.227 68.7266C17.547 68.8333 17.7604 69.0466 18.0804 69.1533C16.6937 68.7266 15.307 68.0866 14.027 67.2333C13.8137 67.0199 13.4937 66.5933 13.067 67.1266C12.747 67.5533 12.747 67.8733 13.2804 68.1933C14.7737 69.1533 16.267 70.1133 17.7604 70.9666C18.9337 71.6066 20.2137 72.2466 21.387 72.9933C20.3204 73.0999 19.2537 72.5666 18.2937 72.0333ZM17.9737 27.6599C18.507 30.5399 19.147 33.5266 19.3604 36.4066C19.5737 39.7133 19.467 43.0199 19.2537 46.3266C18.7204 52.6199 16.6937 58.5933 14.667 64.5666C14.347 65.4199 14.4537 65.7399 15.307 66.1666C16.4804 66.8066 17.547 67.3399 18.6137 67.9799C20.8537 69.2599 23.0937 70.5399 25.547 71.6066C29.4937 73.3133 33.3337 75.1266 37.067 77.1533C39.2004 78.2199 41.227 79.2866 43.467 80.1399C45.8137 80.9933 48.1604 81.6333 50.4004 82.6999C53.387 84.0866 56.8004 84.9399 59.5737 86.6466C60.0004 86.9666 60.8537 87.9266 61.2804 87.2866C62.027 86.3266 62.7737 85.3666 63.5204 84.2999C64.1604 83.5533 70.667 77.3666 71.8404 76.1933C73.227 75.0199 74.6137 73.8466 76.0004 72.6733C78.7737 70.4333 81.6537 68.2999 84.5337 66.0599C86.1337 64.7799 87.8404 63.6066 89.4404 62.3266C86.7737 60.9399 84.9604 58.8066 83.6804 56.2466C83.0404 55.0733 82.507 53.7933 82.0804 52.5133C81.9737 52.1933 81.867 51.9799 81.4404 52.1933C79.5204 53.0466 77.4937 52.7266 75.467 52.2999C73.6537 51.8733 71.947 51.2333 70.2404 50.4866C68.3204 49.6333 66.827 48.4599 65.4404 46.9666C64.587 46.1133 63.947 45.2599 63.307 44.2999C62.987 43.8733 62.667 43.4466 62.4537 42.9133C62.2404 42.3799 61.8137 42.0599 61.1737 42.2733C59.6804 42.6999 58.187 42.6999 56.6937 42.8066C56.0537 42.8066 55.307 42.6999 54.667 42.4866C53.6004 42.1666 52.5337 41.8466 51.467 41.2066C50.187 40.3533 49.1204 39.2866 48.3737 38.0066C47.947 37.2599 47.5204 36.4066 47.2004 35.5533C46.987 35.1266 46.667 35.3399 46.347 35.5533C44.8537 36.2999 43.2537 36.9399 41.547 36.9399C38.2404 36.9399 34.9337 36.7266 31.8404 35.1266C30.2404 34.3799 28.9604 33.2066 27.6804 32.0333C26.187 30.6466 25.0137 28.8333 23.8404 27.2333C23.627 27.0199 23.5204 26.9133 23.2004 26.9133C21.707 27.0199 20.107 27.2333 18.6137 27.1266C17.867 26.9133 17.9737 27.2333 17.9737 27.6599ZM11.8937 15.9266C11.787 16.4599 11.787 17.0999 11.6804 17.6333C11.467 20.1933 12.427 22.3266 14.1337 24.1399C15.627 25.8466 17.6537 26.2733 19.787 26.2733C20.8537 26.2733 21.9204 26.1666 23.0937 26.0599C22.2404 24.8866 21.707 23.7133 21.387 22.5399C21.387 22.4333 21.067 22.1133 21.387 22.0066C21.707 21.8999 21.707 22.2199 21.8137 22.4333C22.027 22.9666 22.2404 23.3933 22.4537 23.9266C22.7737 24.5666 23.0937 24.9933 23.947 24.8866C24.1604 24.8866 24.4804 24.7799 24.6937 24.9933C24.267 25.2066 23.7337 25.0999 23.307 25.2066C23.627 26.2733 23.947 26.4866 25.0137 26.4866C25.9737 26.4866 26.9337 26.3799 28.0004 26.4866C27.2537 26.9133 26.4004 26.8066 25.547 26.9133C25.4404 26.9133 25.227 26.9133 25.227 26.9133C25.0137 27.0199 24.4804 26.6999 24.4804 27.1266C24.4804 27.4466 24.8004 27.7666 25.3337 27.8733C26.4004 27.9799 27.5737 27.9799 28.6404 27.9799C27.5737 28.4066 26.507 28.2999 25.3337 28.2999C25.6537 29.1533 26.187 29.6866 27.2537 29.4733C28.107 29.3666 29.067 29.3666 29.9204 29.3666C28.8537 29.7933 27.6804 29.7933 26.507 29.7933C26.7204 30.5399 27.147 30.7533 27.8937 30.6466C29.067 30.5399 30.347 30.5399 31.5204 30.4333C31.8404 30.4333 32.1604 30.2199 32.4804 30.1133C32.267 30.5399 32.267 30.4333 30.1337 30.8599C29.2804 30.9666 28.427 30.8599 27.5737 30.9666C28.0004 31.7133 28.6404 31.9266 29.387 31.9266C31.627 32.0333 33.7604 32.0333 35.8937 31.2866C36.0004 31.2866 36.107 31.2866 36.3204 31.3933C33.9737 32.3533 31.627 32.2466 29.1737 32.2466C30.027 33.2066 30.987 33.0999 31.947 33.0999C33.547 33.2066 35.147 32.9933 36.8537 32.7799C36.9604 32.7799 37.067 32.7799 37.1737 32.7799C36.2137 33.3133 33.7604 33.5266 30.7737 33.4199C31.7337 34.2733 31.947 34.1666 33.9737 34.1666C36.2137 34.1666 38.4537 33.9533 40.587 33.4199C38.1337 34.4866 35.467 34.4866 32.907 34.6999C36.2137 35.4466 39.5204 35.1266 42.827 34.5933C41.7604 35.0199 40.587 35.2333 39.5204 35.3399C38.347 35.4466 37.1737 35.5533 36.107 35.6599C37.1737 35.9799 38.2404 36.0866 39.4137 36.0866C41.4404 35.9799 43.467 35.6599 45.4937 34.9133C46.8804 34.3799 46.8804 34.4866 46.347 33.0999C45.6004 31.3933 45.1737 29.5799 44.0004 28.0866C43.147 27.0199 42.2937 25.8466 41.227 24.7799C41.0137 24.5666 40.8004 24.3533 41.0137 24.0333C41.227 23.7133 41.547 24.0333 41.7604 24.1399C43.787 25.8466 45.4937 27.8733 46.347 30.4333C46.667 31.3933 46.987 32.4599 47.5204 33.4199C47.5204 34.0599 47.8404 34.4866 48.0537 35.0199C48.267 35.4466 48.8004 35.4466 49.227 35.4466C50.507 35.6599 51.6804 35.6599 52.9604 35.5533C53.1737 35.5533 53.387 35.4466 53.6004 35.6599C53.067 35.9799 50.4004 36.0866 48.4804 35.7666C48.4804 36.5133 48.907 36.8333 49.547 36.9399C51.147 37.1533 53.067 37.5799 54.987 37.1533C55.0937 37.1533 55.2004 37.1533 55.307 37.1533C54.667 37.6866 52.5337 37.6866 51.467 37.5799C50.7204 37.4733 50.0804 37.3666 49.3337 37.3666C49.227 37.3666 49.0137 37.3666 48.907 37.4733C48.8004 37.5799 49.0137 37.6866 49.0137 37.7933C49.6537 38.7533 50.6137 38.7533 51.5737 38.8599C53.1737 39.0733 54.8804 38.9666 56.4804 38.9666C55.7337 39.2866 54.8804 39.2866 54.1337 39.2866C52.8537 39.2866 51.5737 39.2866 50.2937 38.9666C50.187 38.9666 49.867 38.8599 49.867 39.0733C49.867 39.2866 50.0804 39.2866 50.187 39.2866C52.5337 40.6733 54.987 40.7799 57.6537 40.4599C57.867 40.4599 57.9737 40.3533 58.187 40.6733C56.1604 40.9933 54.2404 40.8866 52.3204 40.5666C52.2137 40.7799 52.427 40.8866 52.5337 40.9933C55.2004 42.1666 57.867 42.2733 60.6404 41.5266C61.1737 41.4199 61.1737 41.2066 60.9604 40.7799C60.107 39.2866 59.467 37.7933 59.3604 36.0866C59.2537 35.2333 59.3604 34.2733 59.2537 33.3133C59.787 33.7399 59.8937 34.1666 59.8937 34.5933C60.0004 35.6599 60.3204 36.6199 60.5337 37.5799C60.6404 38.1133 61.067 38.0066 61.6004 38.2199C60.427 38.6466 61.2804 39.2866 61.387 39.8199C61.4937 40.4599 62.027 40.2466 62.4537 40.1399C63.0937 40.0333 63.7337 39.7133 64.3737 39.6066C63.947 40.1399 63.307 40.3533 62.667 40.5666C62.347 40.6733 61.8137 40.4599 61.9204 41.0999C62.027 41.6333 62.347 41.8466 62.987 41.6333C63.7337 41.4199 64.3737 41.3133 65.227 41.0999C65.0137 41.6333 64.587 41.5266 64.267 41.6333C63.947 41.8466 63.5204 41.8466 63.2004 41.9533C62.987 42.0599 62.5604 41.8466 62.5604 42.2733C62.667 42.5933 62.7737 43.1266 63.4137 43.0199C64.4804 42.9133 65.4404 42.8066 66.4004 42.3799C66.6137 42.2733 66.827 42.0599 66.9337 42.3799C67.0404 42.6999 66.7204 42.5933 66.507 42.5933C65.6537 42.9133 64.907 43.1266 64.0537 43.2333C63.8404 43.2333 63.307 43.1266 63.4137 43.5533C63.5204 43.8733 63.7337 44.2999 64.267 44.1933C65.4404 44.0866 66.507 43.7666 67.6804 43.3399C67.787 43.2333 67.8937 43.2333 68.107 43.1266C67.787 43.6599 67.787 43.6599 66.4004 44.0866C65.7604 44.2999 65.0137 44.4066 64.267 44.5133C64.6937 45.2599 65.227 45.6866 65.9737 45.4733C67.2537 45.2599 68.5337 45.0466 69.707 44.2999C69.707 44.7266 69.387 44.7266 69.1737 44.8333C68.2137 45.2599 67.147 45.4733 66.0804 45.6866C65.867 45.6866 65.4404 45.6866 65.4404 46.0066C65.4404 46.3266 65.7604 46.4333 66.187 46.4333C67.6804 46.4333 69.2804 46.1133 70.667 45.5799C70.987 45.4733 71.307 45.3666 71.8404 45.3666C70.027 46.3266 68.2137 46.5399 66.2937 46.8599C66.827 47.4999 67.3604 47.7133 68.107 47.6066C70.347 47.4999 72.587 47.0733 74.507 45.7933C74.9337 45.4733 75.3604 45.0466 75.787 44.8333C74.9337 46.1133 73.547 46.7533 72.1604 47.1799C70.7737 47.6066 69.2804 47.9266 67.6804 47.9266C68.0004 48.3533 68.427 48.4599 68.8537 48.5666C71.627 48.6733 74.0804 47.8199 76.427 46.6466C76.9604 46.3266 77.4937 46.0066 78.027 45.5799C77.387 46.9666 73.9737 48.3533 69.6004 48.9933C69.9204 49.4199 70.347 49.4199 70.7737 49.4199C73.7604 49.2066 76.6404 48.4599 79.0937 46.6466C79.8404 46.1133 80.4804 45.4733 81.0137 44.7266C80.6937 46.6466 76.107 48.8866 71.0937 49.7399C71.627 50.1666 72.1604 50.1666 72.6937 50.0599C75.2537 49.9533 77.6004 48.9933 79.8404 47.7133C80.6937 47.1799 81.547 46.6466 82.4004 46.0066C82.0804 46.6466 81.4404 47.0733 79.7337 48.0333C78.7737 48.5666 77.707 49.2066 76.6404 49.5266C75.5737 49.9533 74.507 50.2733 73.3337 50.3799C74.0804 50.6999 74.827 50.6999 75.5737 50.4866C79.0937 49.8466 82.187 48.3533 84.9604 46.1133C84.9604 46.1133 85.067 46.1133 85.1737 46.1133C82.7204 48.2466 80.0537 49.8466 76.8537 50.5933C77.9204 50.8066 79.947 50.1666 82.4004 49.0999C84.2137 48.2466 85.6004 46.9666 87.0937 45.7933C84.8537 48.2466 82.187 49.9533 78.987 50.9133C79.5204 51.1266 79.947 50.9133 80.3737 50.8066C82.827 50.2733 85.067 49.3133 86.7737 47.2866C87.7337 46.1133 88.4804 44.8333 88.907 43.4466C89.3337 42.0599 89.6537 40.5666 89.7604 39.1799C89.9737 36.2999 89.0137 33.6333 87.2004 31.3933C86.2404 30.2199 84.8537 29.3666 83.6804 28.5133C82.9337 27.9799 82.2937 27.3399 81.3337 27.0199C81.3337 26.9133 81.3337 26.9133 81.4404 26.8066C81.867 26.9133 82.187 27.0199 82.6137 27.1266C86.2404 28.5133 88.587 31.0733 90.0804 34.6999C91.3604 38.0066 90.827 41.0999 89.7604 44.1933C89.4404 45.0466 89.227 45.7933 88.8004 46.6466C88.1604 47.8199 87.307 48.7799 86.347 49.6333C86.2404 49.7399 85.9204 49.7399 85.9204 50.0599C87.947 49.7399 89.867 49.2066 91.5737 47.9266C91.467 48.4599 91.3604 48.5666 90.4004 48.9933C89.0137 49.6333 87.5204 50.1666 86.027 50.2733C85.1737 50.3799 84.2137 50.5933 83.467 51.0199C83.3604 51.1266 83.0404 51.0199 83.147 51.3399C83.2537 51.5533 83.2537 51.7666 83.5737 51.7666C84.3204 51.9799 85.067 51.8733 85.707 51.7666C87.8404 51.5533 89.9737 51.1266 92.0004 50.1666C92.747 49.7399 93.4937 49.3133 94.2404 48.7799C94.027 49.3133 93.6004 49.5266 93.067 49.8466C91.6804 50.6999 90.187 51.2333 88.6937 51.5533C87.2004 51.8733 85.707 52.0866 84.107 52.2999C83.8937 52.2999 83.467 52.1933 83.467 52.5133C83.467 52.8333 83.6804 53.2599 84.107 53.2599C85.067 53.2599 86.1337 53.3666 87.0937 53.2599C89.547 52.9399 91.8937 52.2999 94.027 50.9133C94.027 51.2333 93.9204 51.2333 93.8137 51.3399C91.0404 53.0466 87.947 53.7933 84.6404 53.6866C84.427 53.6866 84.0004 53.4733 83.8937 53.8999C83.8937 54.3266 84.2137 54.4333 84.6404 54.4333C87.8404 54.8599 90.9337 54.6466 93.9204 53.3666C93.9204 53.3666 94.027 53.3666 94.027 53.4733C91.0404 54.9666 87.7337 55.1799 84.427 54.8599C84.427 55.4999 84.8537 55.7133 85.387 55.8199C88.267 56.3533 91.147 56.0333 93.8137 54.8599C94.027 54.7533 94.1337 54.6466 94.347 54.7533V54.8599C92.427 55.8199 90.4004 56.2466 88.267 56.3533C87.2004 56.3533 86.1337 56.3533 85.067 56.2466C85.4937 57.3133 86.347 57.4199 87.2004 57.4199C89.6537 57.5266 92.0004 57.5266 94.2404 56.3533C94.2404 56.3533 94.347 56.3533 94.5604 56.3533C93.6004 56.9933 92.6404 57.2066 91.6804 57.4199C89.9737 57.7399 88.267 57.8466 86.667 57.6333C86.5604 57.6333 86.347 57.5266 86.2404 57.6333C86.1337 57.8466 86.347 57.9533 86.4537 58.0599C87.2004 58.9133 88.1604 58.8066 89.1204 58.9133C90.7204 59.0199 92.3204 58.8066 93.9204 58.4866C93.4937 59.1266 89.9737 59.5533 87.627 59.2333C88.0537 59.6599 89.4404 60.1933 90.2937 60.2999C92.8537 60.5133 95.4137 60.2999 97.7604 59.3399C97.867 59.3399 97.867 59.3399 97.9737 59.3399C97.6537 59.7666 95.627 60.4066 93.9204 60.6199C92.5337 60.8333 91.0404 60.7266 89.6537 60.7266C90.6137 61.3666 91.787 61.5799 92.9604 61.5799C94.4537 61.5799 95.947 61.4733 97.4404 61.0466C98.6137 60.7266 99.467 59.9799 100.32 59.1266C101.174 58.2733 101.6 57.2066 102.134 56.1399C103.094 54.0066 103.627 49.4199 102.88 47.0733C102.667 48.2466 102.774 49.2066 102.454 50.1666C102.24 51.1266 102.027 52.0866 101.494 52.9399C102.347 49.7399 102.88 46.5399 101.92 43.2333C101.92 45.7933 101.494 48.3533 100.534 50.6999C101.174 47.3933 102.24 44.0866 100.534 40.7799C100.427 42.3799 100.32 43.8733 100 45.3666C100 43.3399 100.64 41.2066 99.467 39.2866C99.3604 40.8866 99.2537 42.4866 98.9337 44.0866C98.7204 44.0866 98.7204 43.8733 98.7204 43.7666C99.0404 42.4866 99.0404 41.2066 99.0404 39.9266C99.0404 38.8599 98.7204 37.8999 97.7604 37.3666C97.867 38.8599 97.9737 40.2466 97.547 41.7399C97.6537 40.2466 97.4404 38.6466 97.4404 37.1533C97.4404 36.8333 96.907 36.5133 96.4804 36.1933C96.4804 37.4733 96.4804 38.7533 96.4804 40.0333C96.3737 40.0333 96.3737 40.0333 96.267 40.0333C96.267 39.2866 96.267 38.6466 96.1604 37.8999C96.1604 37.3666 96.0537 36.7266 96.0537 36.1933C96.0537 35.6599 95.4137 35.6599 95.0937 35.1266C95.307 36.8333 95.2004 38.3266 94.7737 39.2866C94.8804 38.3266 94.987 37.2599 94.7737 36.2999C94.667 35.5533 94.8804 34.5933 93.707 34.3799C93.8137 35.7666 93.707 37.1533 93.4937 38.4333C93.4937 37.5799 93.387 36.7266 93.4937 35.8733C93.4937 35.2333 93.2804 34.6999 93.2804 34.1666C93.2804 33.8466 93.067 33.8466 92.747 33.7399C92.427 33.7399 92.427 33.9533 92.5337 34.1666C92.5337 34.4866 92.427 34.8066 92.3204 35.1266C92.3204 34.8066 92.3204 34.3799 92.2137 34.0599C92.2137 33.7399 92.107 33.5266 91.787 33.3133C91.2537 32.9933 91.3604 32.3533 91.147 31.8199C89.547 27.9799 87.0937 24.5666 84.0004 21.7933C83.2537 21.1533 82.4004 20.7266 81.4404 20.0866C81.7604 20.8333 82.187 21.2599 82.2937 22.0066C81.3337 20.7266 80.587 19.3399 78.7737 18.6999C79.5204 19.7666 80.3737 20.6199 80.6937 21.7933C79.5204 20.2999 78.667 18.2733 76.5337 17.7399C77.8137 19.3399 78.8804 21.1533 79.7337 23.0733C79.2004 22.6466 78.987 21.8999 78.667 21.3666C77.9204 20.1933 77.1737 19.0199 76.3204 17.9533C75.8937 17.5266 75.5737 16.9933 74.827 17.2066C75.6804 18.2733 76.5337 19.2333 76.8537 20.5133C76.5337 20.0866 76.3204 19.6599 76.0004 19.2333C75.5737 18.6999 75.147 18.1666 74.7204 17.6333C74.2937 17.0999 73.867 16.7799 73.1204 16.6733C73.0137 16.6733 72.8004 16.4599 72.6937 16.6733C72.587 16.8866 72.8004 16.9933 72.907 17.0999C73.547 17.8466 74.187 18.5933 74.827 19.3399C75.0404 19.5533 75.2537 19.7666 75.2537 20.2999C74.6137 19.5533 74.0804 19.0199 73.6537 18.3799C73.1204 17.7399 72.587 17.2066 72.0537 16.6733C71.8404 16.3533 71.2004 16.3533 70.7737 16.4599H70.667C70.1337 16.3533 69.6004 16.2466 68.8537 16.4599C72.4804 19.8733 75.2537 23.7133 77.067 28.4066C76.5337 27.8733 76.2137 27.2333 76.0004 26.5933C74.4004 23.0733 72.0537 20.0866 69.387 17.4199C68.8537 16.8866 68.2137 16.0333 67.147 16.2466C69.387 18.4866 71.627 20.6199 72.907 23.8199C72.3737 23.3933 72.267 22.9666 72.0537 22.6466C70.7737 20.6199 69.2804 18.8066 67.5737 17.2066C66.507 16.2466 66.507 16.2466 65.1204 16.3533C66.7204 17.9533 68.2137 19.5533 69.387 21.6866C68.9604 21.3666 68.747 20.9399 68.5337 20.6199C68.3204 20.2999 68.0004 19.8733 67.787 19.5533C66.827 18.3799 65.867 17.3133 64.8004 16.3533C64.6937 16.2466 64.587 16.1399 64.4804 16.1399C62.987 16.1399 61.387 16.0333 59.787 16.0333C60.9604 17.9533 62.027 19.7666 63.2004 21.4733C63.307 21.6866 63.7337 21.8999 63.4137 22.1133C63.0937 22.3266 62.7737 22.1133 62.5604 21.7933C60.747 18.8066 58.7204 15.9266 56.587 13.2599C55.2004 11.5533 53.9204 9.8466 52.3204 8.2466C52.0004 7.9266 51.6804 7.6066 51.2537 7.39326C51.787 8.45993 52.107 9.5266 52.427 10.6999C51.787 8.8866 50.9337 7.17993 49.547 5.79326C49.867 7.2866 50.827 8.45993 50.827 10.0599C50.6137 9.41993 50.4004 8.67326 50.0804 8.03326C49.6537 7.07326 49.227 6.0066 48.587 5.15326C48.3737 4.83326 48.1604 4.61993 47.7337 4.51326C48.3737 5.47326 48.8004 6.53993 49.227 7.6066C49.1204 7.6066 49.1204 7.6066 49.0137 7.71326C48.587 6.85993 48.1604 6.0066 47.7337 5.15326C47.2004 4.29993 46.667 3.4466 45.4937 3.1266C46.2404 4.29993 46.8804 5.3666 47.0937 6.6466C46.667 5.79326 46.1337 4.93993 45.707 4.19326C45.2804 3.4466 44.8537 2.59326 43.8937 2.37993C43.6804 2.37993 43.5737 2.27326 43.467 2.37993C43.0404 1.95326 42.507 1.8466 41.7604 1.63326C43.2537 3.97993 44.2137 6.21993 44.9604 8.67326C44.5337 8.67326 44.6404 8.35326 44.5337 8.2466C43.8937 6.21993 43.0404 4.29993 41.867 2.59326C41.547 3.01993 41.3337 2.27326 40.4804 2.27326C40.3737 2.27326 40.1604 2.1666 40.0537 2.37993C40.0537 2.4866 40.1604 2.59326 40.1604 2.69993C41.547 5.25993 42.6137 8.03326 43.147 10.9133C43.147 10.9133 43.147 10.9133 43.147 11.0199C42.827 10.5933 42.827 10.0599 42.7204 9.63326C42.187 7.2866 41.1204 5.15326 40.0537 3.01993C39.627 2.27326 39.0937 1.95326 38.2404 2.1666C39.0937 3.1266 39.5204 4.29993 40.0537 5.47326C40.4804 6.6466 41.1204 7.81993 41.1204 9.09993C40.6937 7.9266 40.3737 6.75326 39.8404 5.6866C39.307 4.61993 38.8804 3.4466 38.027 2.4866C37.707 2.1666 37.387 2.05993 37.067 2.1666C36.5337 2.27326 35.787 2.1666 35.467 2.4866C35.147 2.91326 35.8937 3.33993 36.0004 3.7666C36.3204 4.61993 36.8537 5.3666 37.067 6.21993C37.067 6.3266 37.1737 6.43326 36.9604 6.6466C36.427 5.57993 36.107 4.51326 35.467 3.4466C35.2537 3.33993 35.147 3.1266 34.9337 3.01993C34.507 2.69993 34.2937 3.01993 33.9737 3.23326C33.547 3.4466 33.9737 3.65993 34.0804 3.7666C34.827 5.25993 35.467 6.6466 35.787 8.2466C35.3604 7.9266 35.3604 7.39326 35.147 6.9666C34.7204 5.89993 34.187 4.93993 33.6537 3.87326C33.4404 3.55326 33.227 3.4466 32.907 3.65993C32.587 3.87326 32.3737 4.0866 32.6937 4.51326C33.547 5.79326 33.9737 7.17993 34.507 8.5666C34.507 8.67326 34.6137 8.8866 34.4004 8.8866C34.187 8.99326 34.187 8.77993 34.187 8.67326C33.867 7.39326 33.3337 6.3266 32.6937 5.25993C32.267 4.4066 31.947 4.29993 31.307 5.0466C30.347 6.21993 29.1737 7.39326 28.5337 8.8866C28.3204 9.31326 28.427 9.5266 28.747 9.73993C30.8804 11.1266 32.6937 12.9399 34.2937 14.8599C34.7204 15.3933 35.147 15.9266 35.5737 16.5666C35.6804 16.7799 35.787 16.9933 35.787 17.2066C35.787 17.4199 35.787 17.5266 35.5737 17.6333C35.3604 17.7399 35.2537 17.5266 35.2537 17.4199C34.6137 15.9266 33.227 15.8199 31.947 15.3933C30.987 15.1799 29.9204 15.1799 28.8537 15.0733C29.707 14.9666 30.5604 14.8599 31.4137 14.9666C32.267 15.1799 33.1204 15.1799 33.9737 15.6066C33.6537 14.7533 32.907 14.7533 32.3737 14.5399C30.667 13.8999 28.8537 13.8999 27.0404 14.0066C26.9337 14.0066 26.7204 14.0066 26.6137 13.8999C28.6404 13.5799 30.667 13.6866 32.6937 14.2199C31.947 12.9399 30.7737 12.9399 29.707 12.8333C26.9337 12.7266 24.267 13.0466 21.6004 13.7933C24.587 12.6199 27.787 12.1933 30.987 12.5133C30.1337 11.2333 28.747 11.3399 27.5737 11.3399C25.3337 11.2333 23.2004 11.5533 21.1737 12.1933C21.067 12.1933 20.8537 12.2999 20.747 12.1933C21.387 11.7666 23.0937 11.3399 24.8004 11.2333C26.187 11.1266 27.6804 11.1266 29.1737 11.1266C28.9604 10.6999 28.5337 10.5933 28.2137 10.3799C26.507 9.31326 24.6937 8.45993 22.7737 8.03326C21.4937 7.71326 20.3204 7.71326 19.0404 8.13993C17.6537 8.67326 16.1604 9.09993 14.8804 10.0599C14.4537 10.3799 14.2404 10.8066 13.9204 11.2333C12.9604 12.5133 12.2137 14.1133 11.8937 15.9266Z" fill="#010F14" stroke="#010F14" stroke-miterlimit="10"/>
<path fill-rule="evenodd" clip-rule="evenodd" d="M70.6674 17.5266C70.7741 18.0599 71.4141 18.2733 71.7341 18.6999C72.4808 19.6599 73.3341 20.5133 73.9741 21.4733C74.1874 21.4733 74.0808 21.3666 74.0808 21.2599C73.2274 19.9799 72.3741 18.8066 71.2008 17.7399C71.0941 17.6333 70.8808 17.6333 70.6674 17.5266C70.7741 17.5266 70.6674 17.5266 70.6674 17.5266Z" fill="#010F14"/>
<path d="M70.6674 17.5266C70.7741 18.0599 71.4141 18.2733 71.7341 18.6999C72.4808 19.6599 73.3341 20.5133 73.9741 21.4733C74.1874 21.4733 74.0808 21.3666 74.0808 21.2599C73.2274 19.9799 72.3741 18.8066 71.2008 17.7399C71.0941 17.6333 70.8808 17.6333 70.6674 17.5266ZM70.6674 17.5266C70.7741 17.5266 70.6674 17.5266 70.6674 17.5266Z" stroke="#010F14" stroke-width="0.8" stroke-miterlimit="10"/>
<path fill-rule="evenodd" clip-rule="evenodd" d="M39.9466 17.3132C39.9466 17.7399 40.3733 17.6332 40.5866 17.8466C42.6133 19.3399 44.7466 20.7266 46.5599 22.5399C48.2666 24.2466 49.5466 26.2732 50.7199 28.4066C50.9333 28.7266 51.1466 29.3666 51.5733 29.1532C51.9999 28.9399 51.4666 28.5132 51.3599 28.1932C49.6533 24.3532 46.8799 21.4732 43.6799 18.8066C42.6133 17.9532 41.4399 17.3132 39.9466 17.3132Z" fill="#010F14" stroke="#010F14" stroke-width="0.8" stroke-miterlimit="10"/>
<path fill-rule="evenodd" clip-rule="evenodd" d="M18.2939 24.9933C16.8006 23.1799 15.5206 21.4733 14.8806 19.3399C14.2406 17.3133 14.1339 15.1799 14.3473 12.8333C12.8539 15.4999 15.5206 23.7133 18.2939 24.9933Z" fill="#010F14" stroke="#010F14" stroke-width="0.8" stroke-miterlimit="10"/>
<path fill-rule="evenodd" clip-rule="evenodd" d="M87.4137 42.1666C87.7338 40.9933 87.9471 39.7133 87.8404 38.54C87.7337 36.4066 87.2004 34.4866 86.4537 32.5666C86.3471 32.3533 86.3471 32.14 86.1337 32.2466C85.8137 32.3533 86.0271 32.5666 86.1337 32.78C87.5204 35.66 87.9471 38.6466 87.3071 41.74C87.3071 41.8466 87.2004 41.9533 87.4137 42.1666Z" fill="#010F14" stroke="#010F14" stroke-width="0.8" stroke-miterlimit="10"/>
<path fill-rule="evenodd" clip-rule="evenodd" d="M16.374 24.9932C15.6274 23.6066 14.454 22.5399 13.814 21.1532C13.174 19.7666 12.7474 18.2732 12.9607 16.6732C11.6807 17.9532 14.3474 24.1399 16.374 24.9932Z" fill="#010F14" stroke="#010F14" stroke-width="0.8" stroke-miterlimit="10"/>
<path fill-rule="evenodd" clip-rule="evenodd" d="M27.3604 9.84664C24.267 9.52664 21.2804 9.73997 18.4004 11.34C19.787 10.8066 21.2804 10.38 22.7737 10.1666C24.3737 10.06 25.867 10.06 27.3604 9.84664Z" fill="#010F14" stroke="#010F14" stroke-width="0.8" stroke-miterlimit="10"/>
<path fill-rule="evenodd" clip-rule="evenodd" d="M18.9336 23.2866C18.5069 22.4333 17.9736 21.8999 17.5469 21.2599C16.4803 19.2333 16.0536 17.2066 16.3736 14.9666C16.3736 14.8599 16.4803 14.6466 16.3736 14.5399C16.1603 14.4333 16.1603 14.6466 16.1603 14.7533C15.7336 17.8466 16.4803 20.6199 18.6136 22.9666C18.6136 23.0733 18.7203 23.0733 18.9336 23.2866Z" fill="#010F14" stroke="#010F14" stroke-width="0.8" stroke-miterlimit="10"/>
<path fill-rule="evenodd" clip-rule="evenodd" d="M85.3867 41.9533C86.2401 40.5666 86.4534 39.0733 86.3467 37.5799C86.3467 36.4066 86.3467 35.2333 85.7067 34.1666C85.6001 33.9533 85.6001 33.7399 85.3867 33.8466C85.0667 33.9533 85.3867 34.1666 85.4934 34.2733C86.4534 36.6199 86.2401 38.9666 85.3867 41.4199C85.3867 41.5266 85.2801 41.6333 85.3867 41.9533Z" fill="#010F14" stroke="#010F14" stroke-width="0.8" stroke-miterlimit="10"/>
<path fill-rule="evenodd" clip-rule="evenodd" d="M24.4805 8.7799C22.9871 8.1399 18.7205 8.7799 17.6538 9.95323C20.0005 8.88657 22.2405 8.99323 24.4805 8.7799Z" fill="#010F14" stroke="#010F14" stroke-width="0.8" stroke-miterlimit="10"/>
<path fill-rule="evenodd" clip-rule="evenodd" d="M50.5066 22.7533C51.3599 24.0333 52.1066 25.2066 52.7466 26.4866C52.8532 26.8066 53.0666 27.1266 53.1732 27.4466C53.2799 27.66 53.3866 27.7666 53.4932 27.66C53.5999 27.5533 53.5999 27.34 53.4932 27.2333C52.7466 25.9533 52.1066 24.46 51.1466 23.2866C51.0399 23.18 51.0399 22.7533 50.5066 22.7533Z" fill="#010F14" stroke="#010F14" stroke-width="0.8" stroke-miterlimit="10"/>
<path fill-rule="evenodd" clip-rule="evenodd" d="M61.0668 17.3132C62.0268 18.6999 63.2002 19.8732 64.1602 21.2599C63.4135 19.7666 62.4535 18.2732 61.0668 17.3132Z" fill="#010F14" stroke="#010F14" stroke-width="0.8" stroke-miterlimit="10"/>
<path fill-rule="evenodd" clip-rule="evenodd" d="M38.4536 6.64659C38.5602 5.47326 37.0669 2.8066 36.2136 2.59326C37.2802 3.76659 37.8136 5.15326 38.4536 6.64659Z" fill="#010F14" stroke="#010F14" stroke-width="0.8" stroke-miterlimit="10"/>
<path fill-rule="evenodd" clip-rule="evenodd" d="M47.2005 33.4199C47.5205 33.7399 47.9472 33.7399 48.4805 33.7399C49.5472 33.7399 50.7205 33.9532 51.7872 33.7399C52.0005 33.7399 52.2139 33.7399 52.2139 33.5266C52.1072 33.5266 52.1072 33.4199 52.0005 33.4199C50.4005 33.6332 48.9072 33.5266 47.4139 33.3132C47.4139 33.3132 47.3072 33.4199 47.2005 33.4199Z" fill="#010F14" stroke="#010F14" stroke-width="0.8" stroke-miterlimit="10"/>
<path fill-rule="evenodd" clip-rule="evenodd" d="M43.3607 3.33997C43.1473 3.65997 43.574 3.76663 43.6807 3.97997C44.3207 5.1533 45.0673 6.32663 45.494 7.60663C45.6007 7.81997 45.6007 8.0333 46.0273 8.24663C45.494 6.64663 44.7473 5.1533 43.894 3.76663C43.7873 3.5533 43.574 3.44663 43.3607 3.33997Z" fill="#010F14" stroke="#010F14" stroke-width="0.8" stroke-miterlimit="10"/>
<path fill-rule="evenodd" clip-rule="evenodd" d="M65.5469 20.4066C65.2269 19.6599 64.6935 19.1266 64.2669 18.4866C64.0535 18.1666 63.7335 17.8466 63.4135 17.6332C63.3069 17.5266 63.0935 17.5266 62.9869 17.6332C62.8802 17.7399 62.9869 17.8466 62.9869 17.8466C64.0535 18.4866 64.6935 19.5532 65.5469 20.4066Z" fill="#010F14" stroke="#010F14" stroke-width="0.8" stroke-miterlimit="10"/>
<path fill-rule="evenodd" clip-rule="evenodd" d="M18.6133 19.4466C18.2933 18.2733 18.0799 16.9933 17.9733 15.8199C17.5466 17.2066 18.1866 18.2733 18.6133 19.4466Z" fill="#010F14" stroke="#010F14" stroke-width="0.8" stroke-miterlimit="10"/>
<path fill-rule="evenodd" clip-rule="evenodd" d="M31.1999 5.36658C31.6266 6.11324 31.9466 6.85991 32.2666 7.49991C32.2666 7.60658 32.3732 7.60658 32.3732 7.60658L32.4799 7.49991C32.6932 7.17991 31.6266 5.47324 31.1999 5.36658Z" fill="#010F14" stroke="#010F14" stroke-width="0.8" stroke-miterlimit="10"/>
<path fill-rule="evenodd" clip-rule="evenodd" d="M84.5336 36.2999C84.427 37.3666 84.6403 38.3266 84.3203 39.3933C84.9603 38.4333 84.8536 37.3666 84.5336 36.2999Z" fill="#010F14" stroke="#010F14" stroke-width="0.8" stroke-miterlimit="10"/>
<path fill-rule="evenodd" clip-rule="evenodd" d="M54.2402 26.5933C54.2402 25.9533 53.4936 24.5666 52.7469 23.9266C53.2802 24.78 53.7069 25.6333 54.2402 26.5933Z" fill="#010F14" stroke="#010F14" stroke-width="0.8" stroke-miterlimit="10"/>
<path fill-rule="evenodd" clip-rule="evenodd" d="M30.987 8.13994C31.2003 8.24661 31.307 8.13994 31.2003 8.03327C31.0937 7.49994 30.8803 6.96661 30.5603 6.43327C30.4537 6.3266 30.2403 6.43327 30.2403 6.43327C30.5603 6.96661 30.8803 7.49994 30.987 8.13994Z" fill="#010F14" stroke="#010F14" stroke-width="0.8" stroke-miterlimit="10"/>
<path fill-rule="evenodd" clip-rule="evenodd" d="M47.3073 31.4999C47.9473 31.9266 48.694 31.9265 49.334 31.6065C48.694 31.6065 47.9473 31.6065 47.3073 31.4999Z" fill="#010F14" stroke="#010F14" stroke-width="0.8" stroke-miterlimit="10"/>
<path fill-rule="evenodd" clip-rule="evenodd" d="M29.707 7.71326C29.9203 8.24659 30.1337 8.77992 30.4537 9.31326C30.4537 9.41992 30.667 9.20659 30.667 9.09992C30.4537 8.67326 30.2403 8.13992 30.1337 7.71326C29.9203 7.49992 29.8137 7.60659 29.707 7.71326Z" fill="#010F14" stroke="#010F14" stroke-width="0.8" stroke-miterlimit="10"/>
<path fill-rule="evenodd" clip-rule="evenodd" d="M54.5605 24.9933C54.2405 24.3533 53.9205 23.7133 53.3872 23.1799C53.7072 23.8199 54.1339 24.4599 54.4539 25.0999C54.4539 25.0999 54.4539 25.0999 54.5605 24.9933Z" fill="#010F14" stroke="#010F14" stroke-width="0.8" stroke-miterlimit="10"/>
<path fill-rule="evenodd" clip-rule="evenodd" d="M62.7734 38.4332C62.2401 38.4332 62.0268 38.7532 61.6001 38.7532C61.4934 38.7532 61.3868 38.8599 61.3868 38.9666L61.4934 39.0732C61.9201 38.9666 62.5601 39.0732 62.7734 38.4332Z" fill="#010F14" stroke="#010F14" stroke-width="0.8" stroke-miterlimit="10"/>
<path fill-rule="evenodd" clip-rule="evenodd" d="M94.3475 55.4999C94.9875 55.3933 95.4142 54.9666 95.8408 54.6466C95.2008 54.7533 94.7742 55.0733 94.2408 55.3933C94.2408 55.4999 94.3475 55.4999 94.3475 55.4999Z" fill="#010F14" stroke="#010F14" stroke-width="0.8" stroke-miterlimit="10"/>
<path fill-rule="evenodd" clip-rule="evenodd" d="M58.4002 56.78C59.5735 55.9267 62.6669 48.6733 63.2002 45.7933C61.7069 49.42 60.4269 53.1533 58.4002 56.78Z" fill="#010F14" stroke="#010F14" stroke-width="0.8" stroke-miterlimit="10"/>
<path fill-rule="evenodd" clip-rule="evenodd" d="M20.4271 40.2466C20.7471 38.9666 20.4271 37.7932 20.4271 36.5132C20.4271 34.4866 20.3204 32.4599 19.8938 30.4333C19.7871 29.8999 19.6804 29.3666 19.4671 28.8333C20.0004 32.5666 20.0004 36.4066 20.3204 40.2466C20.4271 40.2466 20.4271 40.2466 20.4271 40.2466Z" fill="#010F14" stroke="#010F14" stroke-width="0.8" stroke-miterlimit="10"/>
<path fill-rule="evenodd" clip-rule="evenodd" d="M21.0672 37.5799C21.1738 34.4866 21.2805 31.2866 20.5338 28.2999C20.7471 31.3933 20.8538 34.4866 21.0672 37.5799Z" fill="#010F14" stroke="#010F14" stroke-width="0.8" stroke-miterlimit="10"/>
<path fill-rule="evenodd" clip-rule="evenodd" d="M28.0001 45.4733C28.5335 44.94 28.5335 44.0866 28.7468 43.4466C29.3868 41.3133 29.8135 39.0733 30.1335 36.94C30.1335 36.7266 30.1335 36.62 30.1335 36.4066C30.1335 36.1933 30.2402 35.98 30.0268 35.98C29.8135 35.98 29.9202 36.1933 29.8135 36.4066C29.4935 39.18 28.7468 41.8466 28.1068 44.5133C28.0001 44.8333 27.7868 45.1533 27.6801 45.3666C27.7868 45.3666 27.8935 45.4733 28.0001 45.4733Z" fill="#010F14" stroke="#010F14" stroke-width="0.8" stroke-miterlimit="10"/>
<path fill-rule="evenodd" clip-rule="evenodd" d="M74.3999 60.8333C76.4266 58.6999 78.2399 56.2466 80.2666 54.1133C77.9199 56.0333 76.2133 58.4866 74.3999 60.8333Z" fill="#010F14" stroke="#010F14" stroke-width="0.8" stroke-miterlimit="10"/>
<path fill-rule="evenodd" clip-rule="evenodd" d="M75.9999 60.6199C77.9199 58.9132 79.6266 56.9932 81.2266 54.9666C79.3066 56.6732 77.7066 58.6999 75.9999 60.6199Z" fill="#010F14" stroke="#010F14" stroke-width="0.8" stroke-miterlimit="10"/>
<path fill-rule="evenodd" clip-rule="evenodd" d="M37.8139 74.06C38.2406 73.1 38.6673 72.14 38.9873 71.2866C39.5206 69.9 40.0539 68.4066 40.5873 67.02C40.5873 66.9133 40.9073 66.7 40.5873 66.5933C40.3739 66.4866 40.3739 66.7 40.3739 66.9133C39.8406 68.5133 39.2006 70.0066 38.6673 71.6066C38.4539 72.2466 38.1339 72.78 37.9206 73.42C37.7073 73.5266 37.4939 73.74 37.8139 74.06Z" fill="#010F14" stroke="#010F14" stroke-width="0.8" stroke-miterlimit="10"/>
<path fill-rule="evenodd" clip-rule="evenodd" d="M42.0804 45.7933C42.8271 44.9399 44.5337 40.6733 44.7471 38.6466C43.6804 40.9933 43.2537 43.5533 42.0804 45.7933Z" fill="#010F14" stroke="#010F14" stroke-width="0.8" stroke-miterlimit="10"/>
<path fill-rule="evenodd" clip-rule="evenodd" d="M53.707 69.1533C54.5603 67.4467 55.4137 65.8467 56.267 64.14C56.4803 63.6067 56.907 63.18 57.0137 62.54C57.0137 62.4333 57.0137 62.3267 56.907 62.3267C56.8003 62.3267 56.6937 62.3267 56.6937 62.4333C55.7337 64.6733 54.4537 66.7 53.707 69.1533Z" fill="#010F14" stroke="#010F14" stroke-width="0.8" stroke-miterlimit="10"/>
<path fill-rule="evenodd" clip-rule="evenodd" d="M46.3472 37.58C45.3872 39.82 44.6405 42.1666 43.8939 44.5133C44.0005 44.5133 44.0005 44.5133 44.1072 44.62C44.9605 42.2733 45.7072 39.9266 46.5605 37.6866C46.4539 37.58 46.3472 37.58 46.3472 37.58Z" fill="#010F14" stroke="#010F14" stroke-width="0.8" stroke-miterlimit="10"/>
<path fill-rule="evenodd" clip-rule="evenodd" d="M79.3073 67.2332C81.2273 65.5266 82.8273 63.6066 84.6406 61.8999C82.5073 63.2866 81.014 65.4199 79.3073 67.2332Z" fill="#010F14" stroke="#010F14" stroke-width="0.8" stroke-miterlimit="10"/>
<path fill-rule="evenodd" clip-rule="evenodd" d="M54.3467 73.74C53.1733 75.7667 52.5333 78.0067 51.36 80.0333C52.64 78.1133 53.4933 75.98 54.3467 73.74Z" fill="#010F14" stroke="#010F14" stroke-width="0.8" stroke-miterlimit="10"/>
<path fill-rule="evenodd" clip-rule="evenodd" d="M40.3739 47.6066C41.2273 45.7932 41.8673 43.8732 42.2939 41.8466C41.4406 43.7666 41.0139 45.6866 40.3739 47.6066Z" fill="#010F14" stroke="#010F14" stroke-width="0.8" stroke-miterlimit="10"/>
<path fill-rule="evenodd" clip-rule="evenodd" d="M82.2939 55.4999C80.8006 56.1399 79.9473 57.6332 78.9873 58.8065C80.1606 57.8465 81.1206 56.5665 82.2939 55.4999Z" fill="#010F14" stroke="#010F14" stroke-width="0.8" stroke-miterlimit="10"/>
<path fill-rule="evenodd" clip-rule="evenodd" d="M22.2402 34.1666C22.2402 32.5666 22.2402 30.8599 22.0269 29.2599C21.9202 29.2599 21.8136 29.2599 21.8136 29.2599C21.9202 30.8599 21.9202 32.5666 22.0269 34.1666C22.0269 34.1666 22.1336 34.1666 22.2402 34.1666Z" fill="#010F14" stroke="#010F14" stroke-width="0.8" stroke-miterlimit="10"/>
<path fill-rule="evenodd" clip-rule="evenodd" d="M82.8275 64.9933C84.2142 63.9267 85.4942 62.86 86.8809 61.7933C85.2809 62.54 84.0009 63.7133 82.8275 64.9933Z" fill="#010F14" stroke="#010F14" stroke-width="0.8" stroke-miterlimit="10"/>
<path fill-rule="evenodd" clip-rule="evenodd" d="M71.0938 70.7533C69.3871 72.2466 68.5337 74.38 67.2537 76.1933C68.7471 74.4866 69.6004 72.3533 71.0938 70.7533Z" fill="#010F14" stroke="#010F14" stroke-width="0.8" stroke-miterlimit="10"/>
<path fill-rule="evenodd" clip-rule="evenodd" d="M18.4003 62.1133C18.507 61.4733 18.6137 60.94 18.7203 60.3C18.827 59.4466 18.9337 58.4866 19.147 57.6333C19.147 57.42 19.2537 57.2066 18.9337 57.1C18.6137 57.1 18.7203 57.42 18.7203 57.5266C18.7203 58.8066 18.4003 60.0866 18.2937 61.3667C18.2937 61.58 18.187 61.7933 18.187 62.0066C18.187 62.1133 18.2937 62.1133 18.4003 62.1133Z" fill="#010F14" stroke="#010F14" stroke-width="0.8" stroke-miterlimit="10"/>
<path fill-rule="evenodd" clip-rule="evenodd" d="M65.1199 51.9799C65.3333 51.4465 65.7599 50.9132 66.1866 50.3799C66.2933 50.2732 66.2933 50.1665 66.1866 50.1665C66.0799 50.0599 65.9733 50.0599 65.9733 50.1665C65.7599 50.3799 65.5466 50.5932 65.3333 50.9132C64.9066 51.5532 64.6933 52.2999 64.1599 52.9399C64.0533 53.0465 63.8399 53.2599 64.1599 53.3665C64.3733 53.4732 64.3733 53.2599 64.4799 53.1532C64.7999 52.7265 64.9066 52.2999 65.1199 51.9799Z" fill="#010F14" stroke="#010F14" stroke-width="0.8" stroke-miterlimit="10"/>
<path fill-rule="evenodd" clip-rule="evenodd" d="M63.0932 53.26C63.7332 52.0866 64.5866 50.9133 65.2266 49.74C65.1199 49.74 65.1199 49.6333 65.0132 49.6333C64.2666 50.8066 63.5199 51.98 62.8799 53.1533C62.8799 53.1533 62.9866 53.26 63.0932 53.26Z" fill="#010F14" stroke="#010F14" stroke-width="0.8" stroke-miterlimit="10"/>
<path fill-rule="evenodd" clip-rule="evenodd" d="M31.4133 36.8333C31.2 38.1133 30.7733 39.0733 30.6667 40.2466C31.0933 39.8199 31.6267 37.6866 31.4133 36.8333Z" fill="#010F14" stroke="#010F14" stroke-width="0.8" stroke-miterlimit="10"/>
<path fill-rule="evenodd" clip-rule="evenodd" d="M20.2139 50.1666C19.7872 51.1266 19.4672 52.0866 19.3605 53.1533C19.8939 52.1933 20.1072 51.2333 20.2139 50.1666Z" fill="#010F14" stroke="#010F14" stroke-width="0.8" stroke-miterlimit="10"/>
<path fill-rule="evenodd" clip-rule="evenodd" d="M53.7068 82.5933C54.1335 81.6333 54.6668 80.6733 55.0935 79.7133C55.2002 79.6066 55.0935 79.5 54.9868 79.3933C54.8802 79.2866 54.7735 79.3933 54.6668 79.5C54.2402 80.46 53.8135 81.3133 53.3868 82.2733C53.3868 82.2733 53.3868 82.38 53.3868 82.4866C53.6002 82.5933 53.7068 82.5933 53.7068 82.5933Z" fill="#010F14" stroke="#010F14" stroke-width="0.8" stroke-miterlimit="10"/>
<path fill-rule="evenodd" clip-rule="evenodd" d="M28.2134 65.3132C27.6801 66.6999 27.3601 68.0866 26.9334 69.4732C27.6801 68.1932 28.1068 66.6999 28.4268 65.3132C28.3201 65.3132 28.2134 65.3132 28.2134 65.3132Z" fill="#010F14" stroke="#010F14" stroke-width="0.8" stroke-miterlimit="10"/>
<path fill-rule="evenodd" clip-rule="evenodd" d="M50.9339 46.4333C51.4672 45.6866 51.5739 44.7266 52.1072 43.9799C52.2139 43.8733 52.1072 43.7666 52.0005 43.7666C51.8939 43.6599 51.7872 43.7666 51.7872 43.8733C51.3605 44.6199 51.0405 45.4733 50.9339 46.4333Z" fill="#010F14" stroke="#010F14" stroke-width="0.8" stroke-miterlimit="10"/>
<path fill-rule="evenodd" clip-rule="evenodd" d="M24.1608 30.86C24.0542 31.9267 24.0542 32.9933 23.9475 34.1667C24.0542 34.1667 24.0542 34.1667 24.1608 34.1667C24.3742 33.1 24.4808 32.0333 24.3742 30.86C24.2675 30.86 24.2675 30.86 24.1608 30.86Z" fill="#010F14" stroke="#010F14" stroke-width="0.8" stroke-miterlimit="10"/>
<path fill-rule="evenodd" clip-rule="evenodd" d="M23.9471 68.7266C24.0537 68.2999 24.2671 67.8732 24.3737 67.3399C24.3737 67.2332 24.4804 67.0199 24.2671 67.0199C24.0537 67.0199 24.0537 67.1266 24.0537 67.3399C23.9471 67.7666 23.8404 68.1932 23.7337 68.6199C23.7337 68.8332 23.4137 69.0466 23.6271 69.1532C23.9471 69.2599 23.8404 68.9399 23.9471 68.7266Z" fill="#010F14" stroke="#010F14" stroke-width="0.8" stroke-miterlimit="10"/>
<path fill-rule="evenodd" clip-rule="evenodd" d="M67.7871 73.6333C67.1471 73.9533 67.0404 74.5933 66.5071 75.1266C66.4004 75.2333 66.4004 75.34 66.5071 75.34C66.6138 75.34 66.7204 75.34 66.7204 75.34C67.0404 74.7 67.6804 74.2733 67.7871 73.6333Z" fill="#010F14" stroke="#010F14" stroke-width="0.8" stroke-miterlimit="10"/>
<path fill-rule="evenodd" clip-rule="evenodd" d="M22.4535 64.5667C23.0935 63.9267 22.8802 63.0733 23.2002 62.3267C22.6669 62.9667 22.7735 63.82 22.4535 64.5667Z" fill="#010F14" stroke="#010F14" stroke-width="0.8" stroke-miterlimit="10"/>
<path fill-rule="evenodd" clip-rule="evenodd" d="M20.3199 40.2466C20.2133 41.2066 20.3199 42.0599 20.5333 42.9132C20.4266 41.9532 20.7466 41.0999 20.5333 40.1399C20.4266 40.2466 20.4266 40.2466 20.3199 40.2466Z" fill="#010F14" stroke="#010F14" stroke-width="0.8" stroke-miterlimit="10"/>
<path fill-rule="evenodd" clip-rule="evenodd" d="M28.3205 65.3133C28.6405 64.46 29.1738 63.7133 29.1738 62.7533C28.8538 63.6066 28.4272 64.46 28.2138 65.3133H28.3205Z" fill="#010F14" stroke="#010F14" stroke-width="0.8" stroke-miterlimit="10"/>
<path fill-rule="evenodd" clip-rule="evenodd" d="M43.1467 78.6466L44 76.8333C44 77.6866 43.68 78.2199 43.1467 78.6466C43.2533 78.6466 43.1467 78.6466 43.1467 78.6466Z" fill="#010F14"/>
<path d="M43.1467 78.6466L44 76.8333C44 77.6866 43.68 78.2199 43.1467 78.6466ZM43.1467 78.6466C43.2533 78.6466 43.1467 78.6466 43.1467 78.6466Z" stroke="#010F14" stroke-width="0.8" stroke-miterlimit="10"/>
<path fill-rule="evenodd" clip-rule="evenodd" d="M21.6008 81.1C22.4541 82.2733 34.7208 88.8866 36.1074 88.9933C31.2008 86.3266 26.1874 84.0866 21.6008 81.1Z" fill="#010F14" stroke="#010F14" stroke-width="0.8" stroke-miterlimit="10"/>
<path fill-rule="evenodd" clip-rule="evenodd" d="M15.84 73.9532C20.32 77.2599 25.3333 79.7132 30.3467 82.2732C25.44 79.6066 20.5333 76.9399 15.84 73.9532Z" fill="#010F14" stroke="#010F14" stroke-width="0.8" stroke-miterlimit="10"/>
<path fill-rule="evenodd" clip-rule="evenodd" d="M33.0137 85.6867C28.427 83.66 23.947 81.42 19.8937 78.3267C20.3203 79.7133 30.027 85.1533 33.0137 85.6867Z" fill="#010F14" stroke="#010F14" stroke-width="0.8" stroke-miterlimit="10"/>
<path fill-rule="evenodd" clip-rule="evenodd" d="M32.9073 108.513C33.5473 108.833 34.294 109.26 34.934 109.473C36.9607 110.433 38.9873 111.287 41.014 112.247C41.8673 112.673 42.8274 112.887 43.7874 113.207C43.894 113.207 44.1073 113.313 44.214 113.1C44.3207 112.887 44.214 112.78 44.0007 112.673C43.574 112.567 43.1474 112.46 42.8274 112.353C40.054 111.607 37.494 110.22 34.934 109.153C34.1874 108.94 33.5473 108.62 32.9073 108.513C32.9073 108.407 32.9073 108.513 32.9073 108.513Z" fill="#010F14"/>
<path d="M32.9073 108.513C33.5473 108.833 34.294 109.26 34.934 109.473C36.9607 110.433 38.9873 111.287 41.014 112.247C41.8673 112.673 42.8274 112.887 43.7874 113.207C43.894 113.207 44.1073 113.313 44.214 113.1C44.3207 112.887 44.214 112.78 44.0007 112.673C43.574 112.567 43.1474 112.46 42.8274 112.353C40.054 111.607 37.494 110.22 34.934 109.153C34.1873 108.94 33.5473 108.62 32.9073 108.513ZM32.9073 108.513C32.9073 108.407 32.9073 108.513 32.9073 108.513Z" stroke="#010F14" stroke-width="0.8" stroke-miterlimit="10"/>
<path fill-rule="evenodd" clip-rule="evenodd" d="M11.8936 96.4599C11.2536 96.0333 10.4002 95.7133 9.65356 95.3933C8.16022 94.5399 6.56022 93.6866 5.28022 92.6199C5.17355 92.5133 4.96022 92.2999 4.74689 92.5133C4.53355 92.7266 4.85356 92.9399 4.96023 93.0466C6.24022 94.0066 7.73356 94.8599 9.22689 95.6066C10.0802 95.9266 10.9336 96.3533 11.8936 96.4599Z" fill="#010F14" stroke="#010F14" stroke-width="0.8" stroke-miterlimit="10"/>
<path fill-rule="evenodd" clip-rule="evenodd" d="M49.2272 95.8199C51.5739 97.3133 53.9205 98.38 56.3739 99.5533C56.4805 99.66 56.6939 99.66 56.8005 99.5533C56.9072 99.4466 56.8005 99.3399 56.6939 99.2333C54.2405 98.2733 51.8939 97.0999 49.6539 95.8199C49.4405 95.8199 49.3339 95.8199 49.2272 95.8199Z" fill="#010F14" stroke="#010F14" stroke-width="0.8" stroke-miterlimit="10"/>
<path fill-rule="evenodd" clip-rule="evenodd" d="M13.8135 85.2599C11.3601 84.0866 9.01348 82.6999 6.98682 80.7799C7.09348 81.8466 11.6801 84.7266 13.8135 85.2599Z" fill="#010F14" stroke="#010F14" stroke-width="0.8" stroke-miterlimit="10"/>
<path fill-rule="evenodd" clip-rule="evenodd" d="M50.6133 112.673C48.0533 111.82 45.5999 110.753 42.9333 109.793C43.5733 110.327 49.3333 112.673 50.6133 112.673Z" fill="#010F14" stroke="#010F14" stroke-width="0.8" stroke-miterlimit="10"/>
<path fill-rule="evenodd" clip-rule="evenodd" d="M27.8936 104.033C26.0802 103.287 24.2669 102.327 22.4536 101.58C24.1602 102.647 25.9736 103.393 27.8936 104.033Z" fill="#010F14" stroke="#010F14" stroke-width="0.8" stroke-miterlimit="10"/>
<path fill-rule="evenodd" clip-rule="evenodd" d="M26.5068 105.1C25.1202 104.567 23.7335 103.82 22.2402 103.073C22.6668 103.82 25.3335 104.993 26.5068 105.1Z" fill="#010F14" stroke="#010F14" stroke-width="0.8" stroke-miterlimit="10"/>
<path fill-rule="evenodd" clip-rule="evenodd" d="M16.8005 72.5665C18.0805 73.6332 19.5738 74.4865 21.1738 75.1265C19.6805 74.2732 18.2938 73.3132 16.8005 72.5665Z" fill="#010F14" stroke="#010F14" stroke-width="0.8" stroke-miterlimit="10"/>
<path fill-rule="evenodd" clip-rule="evenodd" d="M29.494 103.393C30.3474 103.82 31.3074 104.14 32.2674 104.353C32.2674 104.247 32.374 104.247 32.374 104.14C31.414 103.82 30.5607 103.5 29.6007 103.18C29.494 103.287 29.494 103.393 29.494 103.393Z" fill="#010F14" stroke="#010F14" stroke-width="0.8" stroke-miterlimit="10"/>
<path fill-rule="evenodd" clip-rule="evenodd" d="M12.8535 82.3799C11.8935 81.7399 10.9335 81.2065 9.97351 80.5665C10.8268 81.3132 11.6802 81.9532 12.8535 82.3799Z" fill="#010F14" stroke="#010F14" stroke-width="0.8" stroke-miterlimit="10"/>
<path fill-rule="evenodd" clip-rule="evenodd" d="M53.2803 86.3267C52.9603 87.18 52.7469 87.9267 52.4269 88.78C53.0669 88.14 53.2803 87.2867 53.2803 86.3267Z" fill="#010F14" stroke="#010F14" stroke-width="0.8" stroke-miterlimit="10"/>
<path fill-rule="evenodd" clip-rule="evenodd" d="M52.0005 95.7133C52.8539 96.1399 53.7072 96.5666 54.4539 96.9932C54.4539 96.8866 54.5605 96.8866 54.5605 96.7799C53.7072 96.3533 52.8539 96.0333 52.0005 95.7133Z" fill="#010F14" stroke="#010F14" stroke-width="0.8" stroke-miterlimit="10"/>
<path fill-rule="evenodd" clip-rule="evenodd" d="M59.5732 91.4466C59.1466 91.0199 58.5066 90.6999 57.8666 90.5933C58.2932 91.1266 58.9332 91.2333 59.5732 91.4466Z" fill="#010F14" stroke="#010F14" stroke-width="0.8" stroke-miterlimit="10"/>
<path fill-rule="evenodd" clip-rule="evenodd" d="M21.6005 75.2333C22.1338 75.7666 22.7738 75.9799 23.5205 76.1933C22.9872 75.6599 22.1338 75.6599 21.6005 75.2333Z" fill="#010F14" stroke="#010F14" stroke-width="0.8" stroke-miterlimit="10"/>
<path fill-rule="evenodd" clip-rule="evenodd" d="M56.6933 88.0333C56.9066 87.7133 57.0133 87.3933 57.2266 87.18C57.3333 87.0733 57.3333 86.86 57.2266 86.86C57.0133 86.7533 56.9066 86.86 56.9066 86.9666C56.6933 87.2866 56.5866 87.6066 56.6933 88.0333Z" fill="#010F14" stroke="#010F14" stroke-width="0.8" stroke-miterlimit="10"/>
<path fill-rule="evenodd" clip-rule="evenodd" d="M51.1468 86.22C50.9334 86.7533 50.7201 87.0733 50.5068 87.5C50.5068 87.6066 50.4001 87.7133 50.5068 87.82C50.6134 87.9266 50.7201 87.82 50.7201 87.7133C50.9334 87.2866 51.2534 86.86 51.1468 86.22Z" fill="#010F14" stroke="#010F14" stroke-width="0.8" stroke-miterlimit="10"/>
</svg>
