<svg width="126" height="103" viewBox="0 0 126 103" fill="none" xmlns="http://www.w3.org/2000/svg">
<path d="M127 27.62C126.28 28.1 121.84 31.34 119.92 31.58C119.8 31.82 119.56 31.94 119.32 32.06C119.08 32.18 118.96 32.3 118.84 31.94C118.12 30.98 117.04 30.26 116.08 29.66C115.48 29.3 114.76 29.3 114.28 28.94C113.8 28.7 113.2 28.46 112.72 28.22C112 27.98 111.4 27.62 110.8 28.1C110.68 28.22 110.56 28.1 110.44 28.1C109.84 28.22 109.36 28.46 108.76 28.34C108.04 28.22 107.44 28.22 106.84 28.58C106.6 28.7 106.36 28.82 106 28.82C105.4 28.82 104.8 29.18 104.2 28.94C103.96 29.42 103.48 29.3 103 29.54C102.52 29.78 101.92 30.02 101.44 30.02C101.08 30.02 100.6 30.14 100.36 30.26C99.88 30.5 99.88 30.26 99.88 29.9C99.88 29.78 99.88 29.66 99.88 29.54C100.24 27.86 100 26.06 100.36 24.38C100.36 24.26 100.36 24.14 100.36 24.02C100.24 23.42 100 22.94 100 22.34C99.88 21.38 99.64 20.66 99.04 19.94C98.92 19.82 98.8 19.7 99.04 19.46C99.52 18.98 99.88 18.26 100.24 17.66C100.6 17.18 100.96 16.94 101.32 16.58C102.28 15.86 103.36 15.14 104.32 14.54C105.64 13.58 106.96 12.62 108.28 11.66C108.64 11.42 108.88 11.06 109.12 10.82C109.72 10.34 110.32 9.97999 110.92 9.61998C111.64 9.13999 112.36 8.65999 113.08 8.05999C113.56 7.69999 114.04 7.33998 114.52 7.09998C115.24 6.73998 115.72 6.25998 116.44 5.77998C117.16 5.29998 118.12 4.81999 118.84 4.33999C119.8 3.61998 120.76 3.01998 121.84 2.53998C122.32 2.29998 122.68 1.93998 123.16 1.69998C123.52 1.57998 123.88 1.21998 124.24 1.09998C124.36 1.09998 124.48 0.979985 124.48 0.859985C120.88 2.05999 117.4 3.73998 114.16 5.53999C113.68 5.77998 113.2 6.13998 112.72 6.37998C111.64 7.21998 110.56 7.81998 109.48 8.53999C109.36 8.65999 109.12 8.77998 109 8.89998C108.88 9.01998 108.76 9.01999 108.64 9.13999C107.44 9.97999 106.24 10.94 104.92 11.54C104.56 11.78 104.08 12.02 103.84 12.38C103.36 12.86 102.64 13.1 102.16 13.46C101.8 13.7 101.32 13.7 100.96 13.94C100.24 14.66 99.28 15.02 98.56 15.62C98.32 15.74 97.96 15.74 97.72 15.98C97.36 16.34 96.88 16.7 96.4 16.94C95.8 17.3 95.08 17.54 94.6 18.26C94.6 18.38 94.48 18.38 94.36 18.38C93.64 18.74 92.68 18.74 92.08 19.46C91.6 19.94 90.88 20.18 90.28 20.66C89.2 21.38 88.72 21.5 87.64 21.74C87.64 21.74 87.52 21.74 87.52 21.86C87.4 22.22 87.04 22.34 86.92 22.7C86.68 23.06 86.32 23.3 86.08 23.54C85.6 24.02 85 24.26 84.52 24.74C84.04 25.22 83.56 25.7 83.08 26.18C82.6 26.66 82.12 27.26 81.88 27.98C81.76 28.58 81.52 28.82 81.04 29.18C80.92 28.7 80.8 28.34 80.68 27.98C80.44 27.14 80.44 26.3 79.96 25.58C79.72 25.22 79.48 24.98 79.24 24.62C78.64 23.66 77.8 22.94 76.84 22.34C76.12 21.98 76 21.62 76.72 21.14C77.2 20.78 77.56 20.3 77.92 19.82C78.28 19.46 78.52 19.1 78.28 18.5C78.28 18.38 78.28 18.26 78.4 18.14C78.76 17.66 79.24 17.3 79.6 16.82C80.2 16.22 80.8 15.62 81.4 15.14C82 14.66 82.72 14.3 82.84 13.34C82.84 13.22 82.96 12.98 82.84 12.86C82.72 12.74 82.6 12.98 82.36 12.98C82.24 12.98 82.12 13.34 82 12.98C81.88 12.74 81.76 12.74 81.64 12.98C81.4 13.34 81.16 13.7 80.68 13.7C80.2 13.7 79.96 14.06 79.72 14.3C79.36 14.66 79 15.02 78.64 15.38C78.16 15.98 77.56 16.58 77.08 17.06C76.36 17.9 75.64 18.62 74.8 19.34C74.2 19.94 73.72 20.66 73 21.26C72.64 21.5 72.04 21.74 71.8 22.1C70.96 23.06 70.24 24.14 69.76 25.22C69.64 25.46 69.52 25.7 69.28 25.94C68.92 26.42 68.44 26.78 68.2 27.38C68.08 27.74 68.08 28.1 67.84 28.34C67.36 29.06 66.88 29.66 66.52 30.38C66.16 30.98 66.04 31.58 65.8 32.18C65.56 32.18 65.56 31.94 65.44 31.82C64.96 31.34 64.36 31.1 63.88 30.62C63.64 30.38 63.4 30.02 63.04 29.9C62.8 29.9 62.92 29.66 62.92 29.54C63.04 29.18 63.04 28.82 63.16 28.58C63.64 27.86 64 27.02 64.6 26.3C64.84 26.06 64.72 25.7 64.84 25.34C64.84 25.22 64.72 25.22 64.6 25.22C64.12 25.34 63.52 25.22 63.04 25.7C62.44 26.3 61.96 27.14 61.36 27.74C61.24 27.86 61 27.86 60.76 28.1C60.4 28.7 60.04 29.18 59.56 29.66C59.08 30.14 58.72 30.74 58.72 31.46C58.72 31.7 58.72 31.82 58.48 31.94C57.88 32.3 57.52 32.9 57.16 33.5C56.92 33.98 56.8 34.46 56.56 34.82C55.96 35.78 55.36 36.74 54.52 37.58C54.4 37.82 54.28 38.06 54.16 38.3C53.92 38.9 54.04 39.62 54.04 40.22C53.92 41.54 53.44 42.62 53.2 43.94C52.72 43.22 52 42.86 51.76 42.26C51.28 41.3 50.44 40.7 49.84 39.86C49.48 39.38 49.36 39.02 49.6 38.42C49.6 38.3 49.72 38.18 49.72 38.06C49.96 37.46 50.08 36.86 50.44 36.26C51.4 35.06 52.12 33.74 52.84 32.42C53.2 31.82 53.56 31.22 53.92 30.62C54.04 30.38 54.04 30.26 53.92 30.02C53.68 29.66 53.44 29.9 53.32 29.9C52.72 29.78 52.48 30.14 52.24 30.5C51.88 31.1 51.64 31.7 51.16 32.3C50.8 32.66 50.68 33.14 50.2 33.62C49.84 33.98 49.48 34.22 49.24 34.7C48.76 35.9 47.56 36.5 46.72 37.46C46.48 37.7 46.36 37.82 46.12 38.06C45.88 38.3 45.76 38.54 45.52 38.66C45.28 38.9 44.92 39.02 45.04 39.38C45.16 39.74 44.92 39.98 44.68 40.22C44.2 40.7 43.84 41.18 43.6 41.78C43.48 42.14 43.24 42.5 43.12 42.86C42.76 43.58 42.04 44.06 41.68 44.78C41.44 45.62 40.84 46.22 40.72 47.18C40.6 47.78 40.24 48.5 40.12 49.1C39.88 49.94 39.64 50.66 39.4 51.5C39.28 52.1 39.16 52.7 38.8 53.3C38.32 52.82 37.96 52.34 37.48 51.98C37 51.5 36.52 51.14 36.16 50.54C36.04 50.3 35.8 50.06 35.56 50.06C35.2 49.94 34.96 49.7 34.72 49.58C34.36 49.46 34.36 49.1 34.48 48.86C35.08 48.14 35.08 47.06 35.56 46.34C35.92 45.74 36.16 45.02 36.52 44.3C37.12 43.1 37.6 41.9 38.08 40.7C38.32 40.1 38.56 39.5 38.92 39.02C39.16 38.66 39.04 38.54 38.56 38.54C38.32 38.54 38.08 38.54 37.84 38.54C37.6 38.54 37.48 38.66 37.48 38.78C37.24 39.26 37.12 39.86 36.76 40.22C36.28 40.7 36.04 41.3 35.68 41.9C35.56 42.14 35.32 42.26 35.2 42.5C34.96 43.22 34.48 43.82 34.12 44.54C33.4 45.98 32.44 47.42 31.6 48.86C31.48 49.1 31.24 49.46 30.88 49.58C30.28 49.7 29.8 49.82 29.32 49.94C29.08 49.94 28.96 50.06 28.96 50.18C28.6 50.9 27.88 51.26 27.64 51.98C27.64 52.1 27.52 52.22 27.4 52.34C26.92 52.58 26.92 53.06 26.8 53.42C26.8 53.54 26.68 53.66 26.68 53.66C26.08 54.5 25.72 55.46 25.36 56.42C24.76 57.86 24.64 59.42 24.04 60.86C23.8 61.46 23.56 62.18 23.92 62.9C23.56 63.98 24.16 64.94 24.04 66.02C24.04 66.38 24.04 66.62 24.16 66.98C24.4 67.7 24.76 68.18 25 68.9C25 69.14 25.12 69.26 25.24 69.38C25.84 70.22 26.56 71.06 26.92 72.02C27.04 72.26 27.16 72.62 27.4 72.74C28 73.1 28.12 73.7 28.36 74.3C28.48 74.54 28.36 74.78 28.12 74.9C27.4 75.38 26.56 75.86 25.84 76.46C25.24 76.82 24.76 77.3 24.28 77.66C23.68 78.02 23.08 78.5 22.48 78.86C21.88 79.22 21.28 79.82 20.8 80.3C19.96 81.02 19 81.74 18.04 82.34C17.44 82.7 17.08 83.42 16.48 83.66C16.24 83.78 16.24 83.42 16.12 83.66C15.88 84.02 15.52 84.14 15.16 84.38C14.44 84.86 13.72 85.46 13 85.94C12.4 86.42 11.8 86.9 11.2 87.38C10.84 87.62 10.6 88.1 10.24 88.34C9.64001 88.82 8.92001 89.3 8.32001 89.78C7.96001 90.02 7.60001 90.38 7.24001 90.62C6.64001 90.98 6.16001 91.34 5.56001 91.7C5.20001 91.94 4.96001 92.3 4.60001 92.42C4.48001 92.66 4.00001 92.9 4.00001 93.62C4.00001 93.74 3.88001 93.86 3.76001 93.98C3.16001 94.46 2.68001 95.06 2.44001 95.9C2.44001 96.14 2.20001 96.38 1.84001 96.26C1.48001 96.14 1.48001 96.38 1.36001 96.62C1.24001 97.1 1.24001 97.58 1.12001 97.94C0.880009 98.66 1.00001 99.26 1.12001 99.98C1.24001 100.34 1.36001 100.58 1.72001 100.7C2.08001 100.94 2.68001 101.06 2.92001 101.42C3.40001 101.9 4.12001 102.02 4.72001 102.14C5.32001 102.26 5.92001 102.26 6.52001 102.26C7.00001 102.14 7.48001 102.38 7.96001 102.02C8.32001 101.78 8.68001 101.66 9.16001 101.66C9.28001 101.66 9.40001 101.66 9.40001 101.42C9.40001 101.06 9.76001 101.06 10 100.94C10.12 100.94 10.36 100.94 10.48 100.7C10.84 100.22 11.32 99.98 11.8 99.62C12.52 99.14 13.12 98.42 13.72 97.82C14.68 96.86 15.88 95.9 16.84 94.94C17.44 94.34 18.28 93.86 18.88 93.26C19.24 92.78 19.84 92.54 20.2 92.06C20.8 91.34 21.52 90.74 22.36 90.26C23.2 89.66 24.04 88.94 24.88 88.34C25.48 87.98 25.84 87.38 26.44 87.02C27.04 86.66 27.28 86.18 28 85.94C28.24 85.82 28.48 85.46 28.84 85.22C29.8 84.62 30.76 83.9 31.72 83.3C32.44 82.82 32.92 82.22 33.76 81.98C34 81.86 34.24 81.5 34.6 81.38C34.96 81.14 35.2 80.78 35.68 80.54C36.04 80.42 36.4 80.18 36.52 80.06C37.36 79.22 38.56 79.7 39.52 79.46C39.52 79.46 39.52 79.46 39.64 79.46C39.88 79.7 40.24 79.7 40.6 79.82C40.72 79.82 40.84 79.82 40.96 79.82C41.08 79.7 41.2 79.34 41.56 79.58C41.68 79.7 41.92 79.82 42.04 80.06C42.88 81.14 43.6 82.46 44.68 83.42C45.16 83.9 45.64 84.38 46.36 84.5C46.96 84.62 47.44 84.98 48.16 84.86C48.76 84.74 49.36 84.98 49.84 85.1C50.68 85.34 51.52 84.86 52.36 85.34C52.84 85.58 53.44 85.1 53.92 85.58H54.04C54.52 85.46 55 85.46 55.36 85.1C55.48 84.98 55.6 84.86 55.72 84.98C56.32 85.1 57.04 84.86 57.64 84.74C58.24 84.62 58.84 84.62 59.44 84.14C60.16 83.66 60.88 83.18 61.72 82.82C62.44 82.58 63.16 82.1 63.88 82.1C64.6 81.98 65.32 81.5 66.04 81.62C66.28 81.62 66.52 81.38 66.76 81.5C67.6 81.62 68.32 81.38 69.16 81.14C69.88 81.02 70.72 80.78 71.44 80.66C72.52 80.42 73.6 80.54 74.68 80.3C74.92 80.3 75.04 80.06 75.28 80.18C75.76 80.42 76.12 79.94 76.6 80.06C76.96 80.18 77.44 79.82 77.8 79.82C78.16 79.82 78.52 79.7 78.76 79.7C79 79.7 79.12 79.58 79.12 79.34C79.12 79.1 79 78.62 79 78.62C78.64 78.62 78.28 78.26 77.92 78.26C76.72 78.26 75.64 78.26 74.44 78.5C73.84 78.62 73.36 78.86 72.76 78.86C72.04 78.98 71.44 78.98 70.72 78.98C69.64 78.98 68.56 78.98 67.48 78.86C66.64 78.74 65.8 78.74 65.08 79.1C64.84 79.22 64.96 79.1 64.84 78.98C64.48 78.5 64.24 77.9 63.76 77.42C63.52 77.18 63.64 76.7 63.16 76.46C62.8 76.34 62.68 75.74 62.32 75.5C62.2 75.38 62.2 75.26 62.32 75.26C62.44 75.14 62.44 75.26 62.56 75.38C63.16 75.74 63.88 75.98 64.6 76.1C65.08 76.22 65.68 76.1 66.16 76.58C66.28 76.7 66.4 76.7 66.52 76.7C66.88 76.34 67.36 76.46 67.72 76.7C67.96 76.82 68.2 76.7 68.44 76.82C69.04 77.06 69.76 76.94 70.24 76.7C70.84 76.34 71.68 76.46 72.28 76.1C72.28 76.1 72.28 76.1 72.4 76.22C72.76 76.58 72.88 76.34 73.12 75.98C73.24 76.22 73.36 76.34 73.72 76.34C74.08 76.34 74.44 76.1 74.8 75.98C75.16 75.98 75.4 76.1 75.76 75.74C76.12 75.38 76.6 75.5 76.96 75.26C77.32 75.02 77.8 75.26 78.16 74.9C78.88 74.42 79.72 74.3 80.56 74.3C81.28 74.3 81.88 74.06 82.6 74.18C82.72 74.18 82.84 74.18 82.84 74.18C83.32 74.06 83.68 73.94 84.16 73.82C84.4 73.82 84.52 73.7 84.64 73.46C84.64 73.34 84.76 73.34 84.76 73.34C85.24 73.46 85.72 73.34 86.08 73.46C86.44 73.46 86.68 73.46 86.8 73.1C86.8 72.86 86.8 72.38 86.32 72.38C86.2 72.38 86.08 72.26 86.08 72.26C85.96 72.02 85.72 72.02 85.48 72.02C84.64 72.14 83.8 72.14 82.96 72.14C82.12 72.14 81.16 72.26 80.32 72.26C79.6 72.26 78.88 72.14 78.16 72.14C77.92 72.14 77.8 72.14 77.8 71.78C77.8 71.06 77.68 70.34 77.32 69.74C76.72 68.78 76.72 67.58 76.12 66.74C76.12 66.74 76.12 66.62 76.12 66.5C76.12 66.38 76.24 66.26 76.36 66.38C76.96 66.74 77.56 66.62 78.28 66.62C78.88 66.74 79.48 66.5 80.08 66.62C80.32 66.62 80.56 66.74 80.92 66.62C81.64 66.38 82.48 66.38 83.2 66.38C84.52 66.38 85.84 65.9 87.16 65.78C88 65.78 88.84 65.18 89.68 65.06C90.52 65.06 91.24 64.46 91.72 63.74C91.96 63.38 92.32 63.26 92.56 63.5C92.8 63.74 93.04 63.5 93.28 63.5C93.52 63.38 94 63.5 94.12 63.38C94.48 63.02 94.84 63.02 95.2 62.9C95.92 62.9 96.4 62.42 97.12 62.3C97.72 62.18 98.2 62.06 98.8 62.06C99.04 62.06 99.28 61.82 99.28 61.58C99.28 61.46 99.28 61.34 99.28 61.1C99.28 60.86 99.16 60.62 98.92 60.62C98.68 60.62 98.44 60.62 98.32 60.38C98.32 60.26 98.2 60.26 98.08 60.38C97.36 60.74 96.64 60.62 95.8 60.74C94.72 60.86 93.76 60.74 92.68 60.62C92.44 60.62 91.96 60.74 91.84 60.38C91.6 59.78 91.48 59.18 91 58.7C90.88 58.58 90.88 58.34 91 58.34C91.24 58.34 91.6 58.1 91.84 58.58C91.96 58.82 92.32 58.82 92.32 58.7C92.68 58.22 93.28 58.34 93.76 58.1C94.36 57.74 95.08 58.22 95.68 57.86C95.92 57.74 96.28 57.62 96.64 57.62C96.88 57.62 96.88 57.86 97 57.74C97.72 57.26 98.56 57.26 99.28 57.38C100.12 57.5 100.84 57.26 101.56 57.26C101.92 57.26 102.16 57.02 102.4 57.02C103 57.02 103.36 56.78 103.48 56.18C103.48 55.94 103.6 55.82 103.84 55.82C104.8 55.82 105.52 55.1 106 54.5C106.36 54.14 106.6 53.66 106.84 53.3C107.44 52.58 108.04 51.86 108.52 51.14C108.64 51.02 108.76 50.78 109 50.78C109.72 50.9 110.32 50.42 110.92 50.18C112.36 49.46 113.92 48.74 115.36 47.9C116.2 47.42 116.92 46.94 117.64 46.34C117.76 46.22 118 45.98 118.12 45.98C118.96 45.86 119.56 45.26 120.28 45.02C121 44.78 121.6 44.42 122.32 44.06C122.92 43.7 123.64 43.46 124.24 42.98C124.6 42.74 124.96 42.62 125.2 42.38C125.44 42.14 125.44 41.78 125.32 41.54C125.2 41.3 124.96 41.3 124.72 41.42C124.6 41.54 124.36 41.54 124.24 41.42C124 41.3 123.76 41.42 123.64 41.42C122.44 41.9 121.48 42.74 120.28 43.34C119.8 43.58 119.2 43.82 118.72 44.18C118.12 44.54 117.4 44.9 116.68 45.26C115.84 45.74 115.12 46.1 114.28 46.46C113.92 46.58 113.56 46.58 113.32 46.82C112 47.66 110.68 48.26 109.48 48.86C108.76 48.62 108.64 48.02 108.52 47.42L108.4 47.3C107.68 46.94 107.2 46.46 106.6 45.86C106.48 45.74 106.36 45.74 106.36 45.62C106.36 45.5 106.48 45.5 106.6 45.5C107.68 45.26 108.52 44.78 109.48 44.3C110.56 43.7 111.64 42.98 112.72 42.26C113.8 41.54 114.88 40.94 115.48 39.74C115.48 39.62 115.6 39.62 115.6 39.62C116.56 39.26 117.04 38.42 117.88 37.82C118 37.7 118 37.58 118 37.46C117.76 36.62 118.48 36.38 118.84 35.9C119.2 35.42 119.8 35.06 120.04 34.34C120.16 34.1 120.4 33.86 120.64 33.98C120.76 33.98 120.76 33.98 120.76 33.98C121.24 33.5 121.84 33.26 122.2 32.66C122.56 32.06 123.16 31.82 123.64 31.46C124.72 30.74 125.8 30.14 126.88 29.54C129.76 27.26 132.76 25.34 135.52 22.94C137.08 21.74 138.52 20.42 139.84 19.1C135.64 21.86 131.32 24.86 127 27.62ZM83.08 37.34C82.96 36.38 83.56 35.54 83.44 34.7C83.44 34.22 83.56 33.62 82.96 33.38C82.84 33.26 82.96 33.14 82.96 33.02C83.32 32.42 83.44 31.82 83.92 31.22C84.52 30.5 84.76 29.54 85.36 28.82C85.48 28.7 85.48 28.58 85.6 28.58C86.2 28.7 86.32 28.22 86.56 27.98L86.68 27.86C87.4 27.5 87.88 26.9 88.48 26.3C89.2 25.7 89.8 24.86 90.64 24.38C91.6 23.9 92.32 23.18 93.04 22.46C93.64 21.98 94.36 21.5 95.08 21.02C95.32 20.9 95.68 20.78 96.04 20.78C96.28 20.66 96.28 20.9 96.28 21.02C96.52 21.74 96.76 22.34 96.88 23.06C96.88 23.42 97.24 23.78 97.12 24.14C97.12 24.5 97.24 24.86 96.88 24.98C96.76 24.98 96.88 25.34 96.88 25.46C96.88 26.9 96.64 28.22 96.64 29.66C96.64 30.14 96.64 30.62 96.52 31.1C96.4 31.94 95.92 32.42 95.32 32.9C95.2 33.02 95.08 33.26 95.08 33.38C95.2 33.86 94.72 34.1 94.84 34.58C94.84 34.58 94.84 34.7 94.72 34.7C93.64 35.18 92.92 36.26 92.2 37.22C91.84 37.82 91.48 38.3 91 38.78C90.88 38.9 90.88 38.9 90.88 39.02C90.88 39.38 90.64 39.5 90.4 39.5C90.16 39.62 89.92 39.62 89.92 39.98C89.92 40.1 89.92 40.1 89.8 40.1C89.44 39.98 89.32 40.22 89.2 40.46C88.96 41.06 88.84 41.18 88.24 40.94C87.76 40.82 87.28 40.7 87.04 40.34C86.56 39.86 85.84 40.1 85.36 39.98C85.36 39.98 85.24 39.98 85.12 39.98C84.76 39.5 84.28 39.86 83.8 39.74C83.68 39.74 83.44 39.74 83.32 39.74C82.96 39.74 82.96 39.62 82.96 39.38C82.96 38.66 83.2 38.06 83.08 37.34ZM69.28 33.62C69.4 33.14 69.52 32.54 70.12 32.3L70.24 32.18C70.12 31.34 70.72 30.5 71.08 29.78C71.56 28.82 71.92 27.86 72.52 26.9C72.88 26.42 73.12 25.94 73.24 25.34C73.24 24.98 73.6 24.62 73.96 24.5C74.2 24.38 74.2 24.02 74.32 23.78C74.56 23.54 74.68 23.42 74.8 23.66C75.16 24.02 75.4 24.26 75.64 24.62C76.12 25.34 76.48 26.06 76.84 26.78C77.2 27.5 77.68 28.34 78.04 29.06C78.28 29.54 78.28 30.14 78.52 30.62C78.76 31.34 79 32.18 79 33.02C79 34.1 79.24 35.3 79.48 36.38C79.6 36.74 79.36 37.1 79.24 37.58C79 38.42 78.76 39.14 78.28 39.86C77.8 40.7 77.32 41.54 77.08 42.5V42.62C76.6 42.74 76.48 43.22 76 43.34C75.76 43.46 75.52 43.7 75.4 43.94C74.92 44.54 74.44 45.02 73.72 45.38C73.48 45.5 73.12 45.62 73 45.86C72.88 45.98 72.76 45.86 72.76 45.74C72.64 45.62 72.52 45.5 72.4 45.26C72.16 44.78 71.8 44.42 71.56 43.94C71.44 43.58 71.08 43.34 70.96 42.98C70.84 42.74 70.72 42.5 70.84 42.26C70.84 41.78 70.84 41.54 70.48 41.42C70.48 41.42 70.36 41.3 70.36 41.18C70.36 40.58 70 40.1 69.76 39.5C69.52 38.9 69.52 38.3 69.28 37.7C68.8 36.5 68.92 35.06 69.28 33.62ZM56.56 42.38C56.56 42.14 56.68 42.02 56.68 41.78C57.04 41.06 57.4 40.22 57.64 39.5C57.76 39.02 58.24 38.54 58.36 38.06C58.48 37.34 59.08 36.86 59.44 36.26C59.56 36.02 59.8 35.78 59.8 35.42C59.8 34.82 60.16 34.46 60.52 34.1C60.88 33.62 61 33.02 61.48 32.66C62.2 32.3 62.56 32.42 62.92 33.02C63.28 33.62 63.28 34.34 63.64 34.82C64.12 35.66 64.24 36.5 64.36 37.46C64.48 38.06 64.72 38.54 64.84 39.02C64.96 40.22 65.44 41.3 65.32 42.5C65.2 43.22 65.56 43.94 65.2 44.54C64.6 45.62 64.48 46.82 64.12 48.02C63.88 48.74 63.88 49.46 63.52 50.06C63.64 51.02 62.8 51.26 62.2 51.74C61.36 52.34 60.4 52.82 59.56 53.54C59.2 53.78 58.72 53.9 58.36 54.14C58.24 54.26 58.24 54.02 58.12 54.02C58 54.02 58 53.42 57.76 53.06C57.52 52.22 57.16 51.26 56.8 50.42C56.68 49.94 56.56 49.58 56.68 49.1C56.8 48.62 56.56 48.02 56.56 47.54C56.56 45.74 56.56 44.06 56.56 42.38ZM42.64 53.06C42.64 52.58 42.64 51.98 42.88 51.5C43.12 50.9 43.24 50.18 43.36 49.58C43.48 49.1 43.6 48.62 43.84 48.26C44.44 47.66 44.44 46.82 44.8 46.1C44.92 45.86 45.04 45.62 45.28 45.5C45.88 45.26 46 44.66 46.36 44.3C46.48 44.18 46.48 44.06 46.72 44.06C46.96 44.06 46.96 43.7 47.08 43.58C47.2 43.34 47.32 43.22 47.56 43.34C47.56 43.34 47.68 43.34 47.8 43.34C48.04 43.34 48.04 42.86 48.16 42.98C48.52 43.1 48.76 43.46 49 43.7C49.36 44.06 49.72 44.54 49.96 44.9C50.32 45.26 50.56 45.62 50.68 46.22C50.92 47.3 51.4 48.38 51.52 49.58C51.64 49.94 51.64 50.3 51.64 50.78C51.4 51.62 51.64 52.46 51.64 53.3C51.64 53.42 51.64 53.66 51.76 53.78C51.76 54.02 51.88 54.26 51.76 54.38C51.52 54.74 51.4 55.22 51.28 55.58C51.16 56.42 50.56 56.9 50.2 57.5C49.36 58.82 48.4 60.02 47.56 61.34C47.32 61.7 46.84 61.82 46.6 62.06C46.48 62.18 46.48 61.94 46.36 61.94C46.12 61.34 45.76 60.62 45.28 60.02C44.92 59.54 44.68 59.06 44.08 58.82C43.6 58.58 43.36 58.22 43.24 57.74C43.24 57.62 43.36 57.14 42.88 57.26C42.88 57.26 42.76 57.14 42.76 57.02C42.76 56.78 42.64 56.66 42.52 56.54C42.16 55.94 42.16 55.34 42.28 54.62C42.64 54.02 42.52 53.54 42.64 53.06ZM27.88 65.42C27.64 64.82 27.4 64.22 27.28 63.62C27.28 63.5 27.28 63.14 27.28 63.02C27.76 62.18 27.64 61.34 28 60.5C28.24 59.78 28.36 59.06 28.6 58.34C28.84 57.5 29.08 56.66 29.56 55.82C30.04 54.98 30.4 54.14 30.88 53.3C31.24 52.7 31.84 52.34 32.56 52.46C32.8 52.46 33.16 52.46 33.52 52.46C34.24 52.34 34.6 52.82 35.08 53.18C36.04 53.9 36.88 54.74 37.72 55.58C37.72 55.58 37.84 55.7 37.84 55.82C38.2 56.78 38.8 57.62 39.16 58.58C39.4 59.3 39.16 59.78 39.04 60.38C38.8 60.62 38.8 60.98 38.8 61.22C39.04 62.06 38.92 62.9 38.56 63.62C37.96 65.06 37.48 66.5 37.24 68.06C37.24 68.42 37.12 68.66 36.88 69.02C36.76 69.14 36.76 69.38 36.64 69.5C36.64 69.62 35.68 70.7 35.56 70.82C34.84 71.3 34.12 71.9 33.4 72.38C33.28 72.38 33.28 72.5 33.16 72.5C32.68 72.02 32.08 71.78 31.72 71.18C31.48 70.7 31 70.34 30.64 69.98C29.92 69.38 29.44 68.54 29.08 67.58C28.84 66.86 28.24 66.14 27.88 65.42ZM41.56 72.02C40.96 71.54 40.72 71.66 40.48 72.38C40.24 72.98 39.88 73.58 39.4 73.82C39.04 73.94 38.8 74.3 38.44 74.42C38.32 74.42 38.08 74.54 37.96 74.66C37.36 75.14 36.76 75.74 36.16 76.22C35.8 76.58 35.56 76.82 35.08 77.06C34.48 77.3 34 77.9 33.4 78.26C32.92 78.5 32.44 78.74 31.96 79.1C30.88 79.94 29.68 80.9 28.48 81.62C27.88 81.98 27.4 82.58 26.8 82.94C26.56 83.18 26.08 83.42 25.96 83.78C25.96 84.02 25.6 84.02 25.36 84.26C24.52 84.74 23.8 85.34 23.08 85.94C22.12 86.78 21.04 87.38 19.96 88.22C19.36 88.7 18.76 89.18 18.28 89.66C17.8 90.14 17.32 90.5 16.84 90.98C16.48 91.1 16.36 91.22 16 91.22C15.88 91.22 15.88 91.22 15.76 91.34C14.92 92.3 13.96 93.14 13 93.98C12.88 94.1 12.76 94.22 12.64 94.22C11.8 94.7 11.32 95.3 10.72 95.9C10 96.62 9.28001 97.22 8.44001 97.94C8.20001 98.18 8.08001 98.42 7.84001 98.54C7.72001 98.66 7.84001 98.9 7.96001 99.02C8.08001 99.26 8.08001 99.38 7.84001 99.5C7.72001 99.62 7.60001 99.86 7.36001 99.5C7.00001 99.02 6.64001 99.14 6.40001 99.5C6.28001 99.38 6.28001 99.14 5.92001 99.02C5.56001 99.02 5.44001 98.06 5.68001 97.82C6.28001 96.98 7.24001 96.38 7.96001 95.54V95.42C9.28001 94.82 10.24 93.74 11.2 92.78C12.28 91.7 13.6 90.74 14.56 89.66C15.04 89.18 15.64 88.94 16 88.46C16.12 88.34 16.12 88.34 16.24 88.46C16.6 88.7 16.84 88.7 17.08 88.34C17.44 87.86 18.04 87.5 18.64 87.14C19.12 86.78 19.36 86.42 19.84 86.06C20.44 85.58 21.16 85.1 21.76 84.62C22.6 84.02 23.32 83.3 24.16 82.58C24.88 81.86 25.72 81.26 26.56 80.66C26.92 80.42 27.16 80.06 27.52 79.82C28.12 79.22 28.84 78.62 29.68 78.26C29.8 78.26 29.92 78.26 29.92 78.14C30.16 77.54 30.88 77.42 31.24 77.06C31.72 76.7 32.32 76.34 32.8 75.98C32.92 75.86 33.04 75.86 33.16 75.98C33.4 75.98 33.52 75.98 33.64 75.86C34 75.26 34.48 74.9 35.08 74.54C35.56 74.3 36.04 73.7 36.52 73.46C36.52 73.46 36.52 73.34 36.64 73.34C37.24 73.46 37.36 72.98 37.6 72.62C37.84 72.14 38.32 71.9 38.8 71.66C39.52 71.06 40.36 70.58 41.08 69.98C41.2 69.86 41.32 69.86 41.44 69.86C41.56 69.86 41.68 69.86 41.68 69.74C41.8 69.14 42.52 68.9 42.88 68.66C43.24 68.42 43.6 68.18 43.96 67.94C44.08 67.82 44.2 67.7 44.44 67.7C44.92 67.7 44.92 67.46 45.04 67.1C45.16 66.98 45.04 66.86 45.28 66.74C45.88 66.38 46.48 65.9 47.08 65.42C47.44 65.06 47.92 64.46 48.64 64.94C48.76 64.94 48.76 64.94 48.88 64.94C49.48 64.22 50.08 63.74 50.8 63.26C51.16 63.02 51.64 62.66 51.88 62.18C52.12 61.7 52.72 61.46 53.2 61.1C54.04 60.38 55 59.78 56.08 59.54C56.2 59.54 56.44 59.42 56.44 59.18C56.44 59.06 56.56 58.94 56.68 58.94C57.76 58.34 58.6 57.62 59.68 56.9C60.52 56.42 61.24 55.82 61.96 55.22C62.44 54.86 63.04 54.74 63.4 54.26C63.52 54.14 63.64 54.26 63.64 54.26C64 54.38 64.24 54.26 64.48 54.14C64.84 53.9 65.2 53.78 65.56 53.42C65.8 53.06 66.4 52.94 66.88 52.94C67.12 52.94 67.12 52.82 67.24 52.7C67.36 52.34 67.6 51.98 68.08 51.74C68.8 51.38 69.52 50.9 70.24 50.42C70.36 50.3 70.48 50.3 70.72 50.3C71.2 50.42 71.56 49.94 71.8 49.82C72.52 49.22 73.36 48.62 74.2 48.14C75.16 47.54 76.12 46.82 76.96 46.22C77.68 45.74 78.4 45.26 79.12 44.9C79.48 44.78 79.84 44.54 79.96 44.18C80.08 43.94 80.44 44.18 80.56 43.82C80.92 43.94 81.28 43.46 81.64 43.7H81.76C81.88 43.58 82.12 43.34 82.24 43.7C82.36 43.94 82 44.06 82 44.18C81.76 44.54 81.28 44.78 80.8 45.02C80.32 45.26 80.2 45.62 79.84 45.86C79.24 46.22 78.76 46.82 78.04 46.94C77.68 46.94 77.56 47.42 77.32 47.66C76.6 48.14 75.88 48.62 75.4 49.34C75.28 49.46 75.04 49.58 74.8 49.7C73.84 49.94 73.12 50.66 72.28 51.02C71.56 51.38 71.08 51.86 70.36 52.1C70.12 52.22 70 52.46 69.76 52.7C69.04 53.18 68.32 53.78 67.48 54.02C67.12 54.14 66.88 54.62 66.64 54.86C65.92 55.34 65.08 55.7 64.36 56.18C63.64 56.54 63.04 57.14 62.2 57.5C61.36 57.98 60.52 58.46 59.68 59.06C59.32 59.3 59.08 59.66 58.84 59.78C58.6 59.9 58.48 60.02 58.36 60.38C58.36 60.5 58.24 60.5 58.12 60.62C57.52 60.98 56.8 61.46 56.2 61.82C55.12 62.54 54.16 63.26 53.08 63.98C52.48 64.34 51.76 64.58 51.04 64.7C50.68 64.7 50.68 64.94 50.8 65.18C50.8 65.54 50.68 65.78 50.44 66.02C49.84 66.74 49 67.1 48.28 67.7C47.2 68.54 46 69.38 44.8 70.22C44.08 70.82 43.36 71.3 42.76 71.9C42.4 72.26 41.92 72.5 41.56 72.74C41.68 72.14 41.68 72.02 41.56 72.02ZM60.88 80.42C60.16 80.66 59.56 81.02 58.96 81.38C58.12 81.86 57.16 81.98 56.2 82.1C55.72 81.86 55 81.86 54.4 81.86C53.56 81.86 52.6 81.74 51.76 81.74C50.92 81.74 50.2 81.38 49.36 81.26C48.88 81.26 48.52 81.14 48.16 81.02C47.2 80.9 46.48 80.3 45.88 79.7C45.4 79.34 45.04 78.86 44.68 78.38C44.2 77.78 43.72 77.18 43.24 76.46C43 75.98 42.76 75.62 42.52 75.14C42.28 74.54 42.64 74.3 42.88 74.18C43.12 74.06 43.36 73.82 43.6 73.7C43.84 73.58 43.96 73.22 44.32 73.34C44.44 73.34 44.44 73.22 44.56 73.22C45.52 72.38 46.72 71.78 47.8 70.94L47.92 70.82C48.52 71.06 49.12 70.46 49.72 71.06C49.72 71.06 49.84 71.18 49.84 71.06C50.32 70.82 50.68 71.18 51.16 71.18C51.64 71.3 52 71.54 52.48 71.66C53.44 71.9 54.16 72.38 55.12 72.62C55.36 72.62 55.72 72.86 55.96 72.98C56.68 73.58 57.4 74.06 58.12 74.54C58.6 74.9 58.96 75.38 59.2 75.86C59.8 76.94 60.4 77.9 61.24 78.86C61.84 79.46 61.72 80.18 60.88 80.42ZM74.2 72.5C73.96 73.22 73.36 73.46 72.64 73.58C71.68 73.7 70.72 73.94 69.76 73.94C68.8 73.94 67.84 73.94 66.88 73.82C66.52 73.7 66.04 73.34 65.68 73.82C65.56 73.94 65.44 73.82 65.32 73.7C64.96 73.46 64.48 73.22 64.12 73.1C63.64 72.86 63.16 72.62 62.68 72.38C61.96 72.02 61.24 71.66 60.64 71.3H60.52C60.04 70.94 59.56 70.58 58.96 70.58C58.72 70.58 58.6 70.46 58.36 70.46C57.88 70.1 57.28 70.1 56.8 69.62C56.32 69.14 55.6 69.02 55.12 68.66C54.4 68.3 53.92 67.58 53.56 66.98C53.44 66.86 53.44 66.74 53.56 66.62C54.16 66.38 54.28 65.66 55 65.42C55.12 65.42 55.12 65.42 55.24 65.42C55.6 64.82 56.44 64.7 56.92 64.22C57.64 63.5 58.6 63.26 59.68 63.14C60.28 63.02 60.88 62.9 61.48 62.78C61.96 62.66 62.56 62.78 63.04 62.9C63.88 63.14 64.72 63.26 65.56 63.26C66.04 63.26 66.52 63.62 67 63.74C67.72 63.98 68.44 64.34 69.04 64.7C69.76 65.06 70.48 65.54 71.08 66.14C71.32 66.38 71.56 66.5 71.92 66.5C72.28 66.5 72.52 66.86 72.76 67.1C73 67.34 73.24 67.58 73.24 67.94C73.36 68.3 73.48 68.54 73.72 68.78C74.32 69.38 74.8 69.98 74.56 70.7C74.32 71.54 74.44 72.02 74.2 72.5ZM88.36 61.82C88 62.18 87.64 62.54 87.28 62.9C86.92 63.38 86.32 63.26 85.84 63.38C85.24 63.5 84.64 63.5 84.16 63.62C84.04 63.62 83.92 63.62 83.8 63.62C83.2 62.9 82.36 63.38 81.64 63.26C81.16 63.26 80.68 63.26 80.08 63.26C79.84 63.26 79.6 63.38 79.36 63.38C78.4 63.38 77.44 63.14 76.48 63.14C75.88 63.14 75.28 63.02 74.68 62.78C74.32 62.66 73.96 62.66 73.6 62.42C73.36 62.3 73.36 62.06 73.12 61.94C72.76 61.7 72.4 61.58 72.04 61.46C71.56 61.34 71.2 60.98 70.84 60.74C70.12 60.26 69.52 59.66 68.8 59.06C68.32 58.7 67.96 58.22 67.48 57.86C67.36 57.74 67.36 57.62 67.24 57.74C67.12 57.86 67.12 57.98 67 57.74C66.88 57.62 67 57.62 67 57.5C67.24 57.02 67.84 56.66 67.96 56.06C68.44 56.06 68.56 55.46 69.04 55.46C69.28 55.46 69.4 55.1 69.64 54.98C70.48 54.62 71.2 53.9 72.04 53.42C72.52 53.18 73 53.06 73.48 53.06C74.44 52.82 75.4 53.06 76.36 52.94C76.72 52.94 77.2 53.06 77.56 53.18C77.92 53.3 78.4 53.42 78.76 53.54C79.24 53.78 79.72 53.66 80.08 53.9C80.2 54.02 80.32 54.02 80.44 54.02C80.92 53.9 81.28 54.14 81.64 54.38C81.88 54.5 82.24 54.74 82.48 54.74C82.84 54.74 83.08 54.98 83.2 55.1C83.56 55.58 83.92 55.94 84.28 56.42C84.64 56.9 85.12 57.38 85.72 57.62C86.2 57.86 86.56 58.1 86.8 58.58C87.28 59.18 87.76 59.78 88.36 60.26C89.08 60.98 88.96 61.22 88.36 61.82ZM104.68 51.38C104.32 51.74 103.96 52.1 103.48 52.46C103.24 52.58 103.12 52.82 102.88 52.82C102.64 52.82 102.52 53.06 102.28 53.18C101.56 53.42 100.96 53.66 100.36 54.14C100 54.38 99.52 54.5 99.16 54.38C98.56 54.14 98.2 54.38 97.6 54.38C96.88 54.38 96.16 54.5 95.56 54.5C94.72 54.62 93.88 54.62 93.04 54.74C92.32 54.86 91.6 54.74 90.88 54.86C89.92 54.98 88.84 54.86 87.88 54.5C87.16 54.14 86.32 53.9 85.6 53.42C85.12 53.18 84.64 52.94 84.04 52.7C83.2 52.34 82.72 51.62 82 51.14C81.16 50.42 80.8 49.22 80.08 48.5C79.84 48.26 79.84 48.02 80.2 47.78C80.68 47.54 81.04 47.06 81.64 47.18C81.76 47.18 81.88 47.06 82 46.94C82.48 46.34 83.08 45.98 83.8 45.74C84.28 45.5 84.64 45.26 85.12 45.14C85.72 44.9 86.32 44.78 86.92 44.54C87.52 44.3 88.24 44.18 88.96 44.3C89.32 44.3 89.68 44.3 90.04 44.3C90.76 44.18 91.24 44.54 91.72 44.9C91.84 45.02 91.96 45.02 92.08 45.02C92.44 44.9 92.8 45.14 93.28 45.14C93.52 45.14 93.88 45.26 94.12 45.38C94.84 45.74 95.68 45.62 96.28 45.98C96.88 46.34 97.6 46.34 98.32 46.58C98.56 46.7 98.56 46.34 98.8 46.34C99.28 46.34 99.64 46.58 100.12 46.7C100.6 46.82 101.2 46.94 101.68 46.7C101.92 46.58 101.92 46.7 102.16 46.82C102.64 47.3 103.12 47.78 103.72 48.26C103.84 48.38 104.08 48.5 104.08 48.74C104.2 48.98 104.44 48.98 104.56 49.1C104.8 49.22 105.04 48.86 105.16 49.1C105.28 49.46 105.4 49.94 105.52 50.42C105.64 50.9 104.92 51.02 104.68 51.38ZM115.84 34.34C115.48 34.46 115.12 34.82 114.88 35.3C114.64 35.78 114.52 36.14 114.4 36.62C114.28 37.22 113.8 37.46 113.32 37.7C112.96 37.94 112.48 38.18 112.12 38.42C111.4 39.02 110.56 39.38 109.84 40.1C109.48 40.46 109 40.46 108.64 40.7C108.04 41.06 107.44 41.54 106.84 41.78C106.24 42.02 105.76 42.5 105.16 42.62C104.68 42.74 104.32 43.1 103.96 43.34C103.84 43.34 103.84 43.58 103.84 43.46C103.24 42.86 102.52 43.34 101.92 43.34C100.96 43.34 100 43.46 99.04 43.1C98.44 42.86 97.84 42.86 97.24 42.38C97.12 42.26 96.88 42.38 96.76 42.38C95.92 42.26 95.32 41.9 94.48 41.9C94 41.9 93.52 41.66 93.16 41.3C93.16 41.18 93.04 41.18 93.04 41.18C92.32 41.3 92.68 40.82 92.8 40.58C93.04 40.1 93.52 39.86 93.88 39.38C94.48 38.66 95.2 37.82 95.8 37.1C96.52 36.26 97.36 35.54 98.08 34.7C98.68 33.86 99.64 33.86 100.36 33.62C101.32 33.14 102.4 32.78 103.36 32.42C103.6 32.3 103.84 32.06 104.08 31.94C104.32 31.7 104.8 31.7 105.16 31.58C105.28 31.58 105.52 31.46 105.76 31.46C106.24 31.34 106.72 31.46 107.2 31.34C107.56 31.34 108.04 31.34 108.4 31.34C109.24 31.34 110.2 31.34 111.04 31.34C111.4 31.34 111.76 31.46 112.12 31.7C112.6 31.94 112.96 32.18 113.44 32.3C114.4 32.54 115.12 33.02 115.72 33.74C116.08 33.86 116.32 34.1 115.84 34.34Z" fill="#010F14"/>
<path d="M47.3198 28.94C45.3998 30.86 43.4798 32.78 41.5598 34.58C40.1198 36.02 38.7998 37.1 37.9598 39.02C37.7198 39.62 32.3198 48.74 33.0398 49.22C32.9198 49.1 32.7998 49.22 32.7998 49.34V49.46C32.7998 49.58 33.0398 49.7 33.1598 49.58C34.9598 46.58 37.2398 43.58 38.6798 40.34C40.7198 36.02 44.5598 32.9 47.4398 29.06C47.5598 29.06 47.4398 28.82 47.3198 28.94Z" fill="#010F14"/>
<path d="M58.7199 22.2199C56.4399 24.7399 54.3999 27.0199 52.5999 30.0199C51.7599 31.4599 50.9199 32.8999 50.1999 34.3399C49.7199 35.1799 49.2399 36.0199 48.9999 36.8599C48.7599 37.3399 48.7599 38.1799 48.3999 38.5399C48.2799 38.6599 48.5199 38.8999 48.6399 38.7799C49.2399 38.2999 49.3599 37.3399 49.7199 36.7399C50.6799 34.9399 51.8799 33.1399 52.9599 31.3399C54.0399 29.5399 54.9999 27.7399 56.1999 26.1799C57.1599 24.8599 58.3599 23.7799 59.1999 22.4599C58.9599 22.2199 58.8399 22.0999 58.7199 22.2199Z" fill="#010F14"/>
<path d="M68.6803 18.38C67.1203 20.3 65.5603 22.22 64.1203 24.26C63.5203 25.1 62.9203 25.94 62.4403 26.9C61.8403 27.86 61.6003 29.06 60.8803 30.02C60.7603 30.14 61.0003 30.26 61.0003 30.14C61.4803 29.54 61.7203 28.82 62.0803 28.22C62.8003 26.9 63.5203 25.7 64.3603 24.5C65.8003 22.46 67.3603 20.54 68.6803 18.5C68.9203 18.38 68.8003 18.26 68.6803 18.38Z" fill="#010F14"/>
<path d="M87.9996 7.09997C84.8796 9.01997 81.9996 11.42 79.7196 14.06C78.3996 15.5 77.1996 17.06 76.1196 18.62C75.5196 19.34 74.6796 20.42 74.5596 21.38C74.5596 21.5 74.7996 21.62 74.7996 21.5C75.0396 20.54 76.1196 19.46 76.7196 18.74C77.7996 17.42 78.9996 16.1 80.0796 14.9C82.4796 12.14 85.4796 9.73997 88.2396 7.33997C88.2396 7.21997 88.1196 6.97997 87.9996 7.09997Z" fill="#010F14"/>
<path d="M134.08 34.5801C132.04 35.7801 130.36 37.5801 128.32 38.9001C126.4 40.1001 124.6 41.5401 122.68 42.7401C120.4 44.0601 118.12 45.3801 115.84 46.5801C115.24 46.9401 109.72 49.2201 109.84 49.7001C109.84 49.5801 109.48 49.5801 109.6 49.7001V49.8201C109.6 49.9401 109.72 50.0601 109.84 49.9401C114.16 48.8601 118.48 46.4601 122.32 44.1801C124.6 42.8601 126.52 41.3001 128.56 39.7401C130.6 38.1801 132.28 36.2601 134.32 34.8201C134.32 34.7001 134.2 34.5801 134.08 34.5801Z" fill="#010F14"/>
<path d="M110.56 56.5399C104.56 59.1799 98.0796 59.7799 91.9596 61.9399C91.7196 62.0599 91.5996 62.5399 91.9596 62.5399C94.8396 62.7799 98.3196 61.5799 101.08 60.7399C104.44 59.7799 107.8 58.6999 110.68 56.7799C110.8 56.6599 110.68 56.5399 110.56 56.5399Z" fill="#010F14"/>
<path d="M96.5204 69.74C93.0404 70.82 89.3204 71.78 85.7204 72.02C83.0804 72.14 80.3204 72.38 77.8004 73.1C77.5604 73.1 77.5604 73.34 77.6804 73.46C78.2804 74.06 79.2404 73.82 80.0804 73.82C81.8804 73.82 83.6804 73.46 85.3604 73.34C89.2004 72.86 93.1604 71.78 96.6404 69.98C96.7604 69.86 96.6404 69.62 96.5204 69.74Z" fill="#010F14"/>
<path d="M85.5995 77.66C83.6795 77.66 81.6395 78.14 79.7195 78.38C78.0395 78.62 76.4795 78.74 74.7995 78.86C73.4795 78.98 72.1595 79.1 70.8395 79.34C70.5995 79.34 66.7595 80.06 66.7595 79.94C66.6395 79.94 66.6395 80.06 66.5195 80.06V80.18C66.9995 80.9 68.3195 80.54 68.9195 80.42C70.3595 80.3 71.7995 80.18 73.2395 79.94C75.0395 79.58 76.8395 79.7 78.5195 79.46C80.9195 78.98 83.1995 78.26 85.5995 77.78C85.8395 77.9 85.8395 77.66 85.5995 77.66Z" fill="#010F14"/>
<path d="M109.84 3.97998C106 6.73998 102.04 9.49998 98.44 12.74C96.76 14.3 95.44 16.34 93.88 17.9C93.52 18.26 91.12 20.54 91.24 20.78C91.24 20.66 91 20.66 91 20.78C91 20.9 91 20.9 91 21.02C91 21.14 91.12 21.26 91.24 21.26C92.56 21.14 93.4 19.7 94.24 18.98C95.92 17.66 97.24 15.62 98.68 14.06C102.16 10.34 106.12 7.33998 109.96 4.09998C110.08 4.09998 109.96 3.97998 109.84 3.97998Z" fill="#010F14"/>
<path d="M132.04 27.14C132.04 27.02 132.04 27.14 132.04 27.14C130.48 28.34 128.8 29.42 127.24 30.5C127.36 30.86 126.88 31.1 126.64 30.86C125.56 31.58 124.48 32.18 123.4 32.78C122.08 33.5 120.52 33.98 119.2 34.7C118 35.3 116.92 36.38 115.6 36.98C115.48 36.98 115.48 37.22 115.48 37.22C115.6 37.34 115.6 37.34 115.72 37.46C115.84 37.58 115.96 37.58 116.2 37.58C117.64 37.1 118.96 36.26 120.16 35.54C121.48 34.82 122.8 34.1 124 33.38C126.76 31.58 129.76 29.66 132.16 27.38C132.16 27.26 132.16 27.14 132.04 27.14Z" fill="#010F14"/>
<path d="M118.36 44.0599C115.84 45.7399 112.24 46.9399 109.48 48.0199C109 48.2599 106.12 48.7399 106.48 49.8199C106.48 49.8199 106.48 49.9399 106.6 49.9399H106.72C106.72 49.9399 106.84 49.9399 107.08 49.9399C107.2 49.9399 108.16 49.6999 108.28 49.6999C109.36 49.4599 110.32 48.9799 111.28 48.4999C112.48 47.8999 113.68 47.2999 114.88 46.5799C116.2 45.8599 117.64 45.3799 118.72 44.2999C118.72 44.1799 118.48 44.0599 118.36 44.0599Z" fill="#010F14"/>
<path d="M67.3603 15.1399C64.9603 18.3799 62.5603 21.6199 60.6403 25.2199C59.8003 26.8999 59.0803 28.5799 58.4803 30.2599C58.0003 31.6999 57.2803 33.4999 57.2803 35.0599C57.2803 35.1799 57.5203 35.2999 57.5203 35.0599C58.0003 33.6199 58.7203 32.0599 59.2003 30.6199C59.9203 28.4599 60.7603 26.4199 61.9603 24.3799C63.7603 21.2599 65.6803 18.2599 67.4803 15.1399C67.6003 15.1399 67.4803 15.1399 67.3603 15.1399Z" fill="#010F14"/>
<path d="M34.84 67.22C33.52 66.98 32.32 63.86 32.08 62.78C31.6 60.86 31.72 58.82 31.6 56.78C31.6 56.54 31.24 56.54 31.24 56.78C30.52 59.78 28.84 71.54 34.84 70.34C36.52 69.86 36.52 67.58 34.84 67.22Z" fill="#010F14"/>
<path d="M48.5196 60.2599C47.3196 58.3399 46.1196 56.78 45.6396 54.5C45.1596 52.46 45.5196 50.42 45.3996 48.38C45.3996 48.14 45.0396 48.14 44.9196 48.38C43.8396 51.0199 44.0796 54.2599 44.1996 57.0199C44.3196 59.1799 44.6796 62.2999 47.3196 62.4199C48.5196 62.4199 49.1196 61.2199 48.5196 60.2599Z" fill="#010F14"/>
<path d="M61.9598 53.18C60.3998 51.74 60.1598 49.94 59.6798 48.02C58.5998 44.18 60.1598 40.58 60.3998 36.86C60.3998 36.74 60.1598 36.62 60.0398 36.74C58.5998 41.18 56.7998 45.26 56.9198 50.06C56.9198 51.86 57.2798 53.42 58.7198 54.62C59.9198 55.58 61.1198 55.7 61.9598 54.38C62.3198 53.9 62.1998 53.42 61.9598 53.18Z" fill="#010F14"/>
<path d="M59.6795 52.1C59.5595 51.74 59.3195 51.5 59.0795 51.38C58.8395 51.14 58.3595 51.02 57.9995 51.26C57.1595 51.86 57.3995 52.94 57.5195 53.78C57.6395 54.14 57.8795 54.38 58.1195 54.5C58.2395 54.74 58.4795 54.98 58.7195 54.98C58.8395 54.98 58.9595 54.98 59.0795 54.86C59.0795 54.86 59.0795 54.86 59.1995 54.74C59.3195 54.62 59.3195 54.62 59.4395 54.5C59.5595 54.14 59.6795 53.54 59.7995 53.18C59.6795 52.94 59.7995 52.46 59.6795 52.1Z" fill="#010F14"/>
<path d="M73.9599 44.7799C73.2399 43.0999 71.7999 41.7799 71.3199 39.9799C70.8399 37.9399 71.1999 35.8999 71.1999 33.7399C71.1999 33.6199 70.9599 33.4999 70.9599 33.7399C70.2399 36.0199 69.6399 38.4199 69.3999 40.8199C69.1599 43.2199 69.9999 44.7799 71.5599 46.5799C72.6399 47.7799 74.5599 46.2199 73.9599 44.7799Z" fill="#010F14"/>
<path d="M75.9999 44.66C75.3999 43.46 75.1599 41.9 75.0399 40.7C74.9199 39.74 74.6799 38.3 74.9199 37.34C74.9199 37.22 74.6799 37.1 74.6799 37.22C73.7199 38.3 73.8399 40.1 73.2399 41.3C72.8799 42.02 72.5199 42.5 72.3999 43.46C72.2799 44.54 72.6399 45.38 73.2399 46.34C74.0799 47.78 76.8399 46.22 75.9999 44.66Z" fill="#010F14"/>
<path d="M90.6397 28.46C88.7197 30.02 86.9197 32.06 85.2397 33.86C83.5597 35.66 81.3997 38.9 83.3197 41.3C83.7997 41.9 84.7597 41.6599 85.2397 41.1799C85.9597 40.3399 85.8397 39.2599 86.3197 38.1799C86.9197 36.9799 87.2797 35.78 87.7597 34.46C88.5997 32.3 89.9197 30.62 90.9997 28.7C90.9997 28.58 90.7597 28.34 90.6397 28.46Z" fill="#010F14"/>
<path d="M91.0001 35.54C90.0401 36.26 89.2001 37.22 88.2401 37.94C87.1601 38.66 85.9601 39.26 84.8801 39.98C84.0401 40.46 84.6401 41.78 85.3601 41.9C86.9201 42.14 88.3601 41.06 89.3201 39.98C89.9201 39.26 90.1601 38.54 90.5201 37.82C90.8801 37.22 91.2401 36.5 91.3601 35.78C91.3601 35.54 91.1201 35.42 91.0001 35.54Z" fill="#010F14"/>
<path d="M93.2802 38.0599C92.8002 38.1799 92.2002 38.4199 91.6002 38.5399C90.8802 38.8999 90.1602 39.3799 89.3202 39.6199C88.6002 39.8599 87.8802 39.8599 87.1602 40.0999C86.6802 40.2199 86.3202 40.5799 85.8402 40.8199C85.6002 40.9399 85.6002 41.1799 85.8402 41.2999C87.1602 41.7799 88.8402 41.8999 90.2802 41.2999C91.4802 40.8199 93.0402 39.6199 93.6402 38.2999C93.8802 38.1799 93.6402 37.9399 93.2802 38.0599Z" fill="#010F14"/>
<path d="M104.32 40.22C103.12 40.46 102.16 41.06 100.96 41.18C99.88 41.3 98.32 41.06 97.24 40.94C95.32 40.82 91.12 38.42 89.92 41.18C89.8 41.54 89.92 42.02 90.28 42.26C91.12 42.74 92.32 42.86 93.16 42.98C94.6 43.34 95.92 43.58 97.48 43.46C100.6 43.22 101.92 42.14 104.44 40.58C104.56 40.46 104.56 40.22 104.32 40.22Z" fill="#010F14"/>
<path d="M101.2 36.62C100.36 36.86 99.5204 37.46 98.6804 37.7C97.8404 37.94 96.8804 37.94 96.0404 38.06C94.1204 38.3 92.3204 38.9 90.8804 40.22C90.1604 40.94 90.8804 42.26 91.8404 42.14C95.6804 42.02 99.2804 39.74 101.56 36.86C101.68 36.86 101.44 36.62 101.2 36.62Z" fill="#010F14"/>
<path d="M91.8404 51.3799C89.4404 50.8999 88.0004 50.7799 85.9604 49.2199C84.5204 48.1399 82.9604 47.5399 81.5204 46.4599C80.3204 45.6199 78.5204 47.1799 79.3604 48.3799C80.5604 50.2999 83.2004 51.1399 85.2404 51.7399C87.5204 52.3399 89.4404 52.0999 91.8404 51.6199C91.9604 51.6199 91.9604 51.3799 91.8404 51.3799Z" fill="#010F14"/>
<path d="M66.2802 57.5C66.1602 57.74 66.1602 57.86 66.1602 58.1C66.2802 58.82 67.2402 58.82 67.3602 58.1C67.3602 57.98 67.3602 57.86 67.3602 57.74C67.3602 57.14 66.6402 56.9 66.2802 57.5Z" fill="#010F14"/>
<path d="M79.6 60.2599C78.28 60.1399 76.96 59.8999 75.64 59.5399C75.64 59.5399 75.64 59.5399 75.52 59.4199C75.16 59.2999 74.8 59.1799 74.44 58.9399C73.6 58.4599 72.88 57.6199 72.04 57.1399C70.96 56.5399 70 56.0599 68.92 55.2199C67.96 54.4999 66.4 55.4599 66.64 56.6599C67.24 59.4199 70.84 60.1399 73.12 60.7399C75.16 61.3399 77.68 61.0999 79.72 60.3799C79.84 60.4999 79.84 60.2599 79.6 60.2599Z" fill="#010F14"/>
<path d="M67.1197 70.94C64.4797 70.7 62.1997 69.74 59.9197 68.42C58.7197 67.7 57.5197 67.22 56.3197 66.38C55.4797 65.9 54.8797 65.3 53.9197 65.06C52.3597 64.58 51.3997 66.26 52.4797 67.34C54.5197 69.5 56.6797 69.98 59.4397 70.58C62.0797 71.18 64.3597 71.66 67.1197 71.18C67.3597 71.18 67.2397 70.94 67.1197 70.94Z" fill="#010F14"/>
<path d="M63.5196 65.2999C61.4796 64.6999 59.7996 63.8599 57.6396 63.9799C56.3196 64.0999 54.1596 64.3399 53.5596 65.6599C53.4396 66.0199 53.5596 66.3799 53.9196 66.4999C54.8796 67.0999 56.1996 66.4999 57.2796 66.2599C58.4796 66.0199 59.5596 65.7799 60.7596 65.7799C61.7196 65.7799 62.6796 65.7799 63.6396 65.6599C63.6396 65.6599 63.7596 65.4199 63.5196 65.2999Z" fill="#010F14"/>
<path d="M53.1999 79.6999C51.5199 79.0999 49.9599 78.6199 48.3999 77.6599C47.0799 76.8199 45.9999 75.9799 44.7999 74.8999C44.1999 74.4199 42.9999 73.3399 42.0399 73.6999C41.1999 73.9399 40.9599 74.8999 41.5599 75.6199C42.7599 77.1799 44.4399 78.7399 46.3599 79.3399C48.3999 79.9399 50.9199 79.8199 53.0799 79.9399C53.3199 79.9399 53.3199 79.8199 53.1999 79.6999Z" fill="#010F14"/>
<path d="M36.5204 68.9C36.0404 68.66 34.8404 68.78 34.3604 68.66C34.0004 68.54 33.6404 68.42 33.4004 68.3C32.6804 67.82 32.0804 66.98 31.4804 66.26C30.8804 65.54 30.2804 64.82 29.9204 63.86C29.6804 63.38 29.6804 63.02 29.2004 62.78C28.9604 62.66 28.7204 62.9 28.7204 63.14C28.7204 64.46 28.6004 65.66 28.9604 66.98C29.3204 68.06 29.8004 69.14 30.5204 69.98C32.0804 71.78 34.4804 72.14 36.7604 71.78C37.4804 71.66 37.9604 70.94 37.9604 70.22C37.8404 69.38 37.2404 69.38 36.5204 68.9Z" fill="#010F14"/>
<path d="M35.2005 70.58C34.8405 69.86 34.1205 69.74 33.6405 70.1C33.6405 69.98 33.5205 69.98 33.4005 69.86C33.1605 69.62 32.9205 69.5 32.5605 69.5C32.3205 69.26 31.9605 69.14 31.7205 69.38C31.3605 69.74 31.1205 70.34 31.0005 70.94C30.8805 71.66 30.8805 72.38 31.2405 73.1C31.3605 73.58 31.8405 73.94 32.2005 73.94C32.4405 75.26 34.7205 75.14 34.7205 73.7C34.7205 73.46 34.7205 73.34 34.7205 73.1C34.8405 73.1 34.9605 73.1 35.0805 73.1H35.2005C35.5605 72.98 35.8005 72.74 35.8005 72.26C35.8005 71.66 35.4405 71.06 35.2005 70.58Z" fill="#010F14"/>
<path d="M63.6402 52.82C63.5202 52.58 63.4002 52.34 63.2802 52.1C63.1602 51.62 63.0402 51.14 62.9202 50.78C62.8002 50.3 62.6802 49.82 62.5602 49.34C62.4402 49.1 62.2002 49.22 62.0802 49.34C61.4802 50.06 60.7602 51.26 60.6402 52.1C60.5202 53.18 61.1202 53.78 62.0802 54.14C62.4402 54.26 63.0402 54.14 63.2802 53.9C63.2802 53.9 63.2802 53.9 63.4002 53.9C63.5202 53.78 63.7602 53.18 63.6402 52.82Z" fill="#010F14"/>
<path d="M76.1201 54.1399C74.8001 53.6599 73.0001 53.7799 71.5601 53.7799C70.2401 53.7799 68.9201 54.2599 67.9601 55.2199C67.3601 55.6999 68.0801 56.6599 68.6801 56.6599C69.8801 56.5399 71.0801 55.9399 72.1601 55.4599C73.4801 54.8599 74.8001 54.8599 76.1201 54.6199C76.2401 54.4999 76.2401 54.1399 76.1201 54.1399Z" fill="#010F14"/>
<path d="M81.9998 47.54C81.8798 47.42 81.9998 47.42 81.8798 47.3H81.7598C81.7598 47.42 81.7598 47.42 81.8798 47.54C81.8798 47.78 81.9998 47.66 81.9998 47.54Z" fill="#010F14"/>
<path d="M88.1199 45.26C86.5599 44.66 85.2399 44.42 83.6799 44.9C82.7199 45.26 81.5198 45.74 80.9198 46.58C80.6798 46.94 80.9199 47.42 81.2799 47.54C82.1199 47.78 83.1998 47.54 84.0398 47.18C85.4798 46.7 86.7998 46.22 88.2398 45.62C88.3598 45.62 88.3599 45.26 88.1199 45.26Z" fill="#010F14"/>
<path d="M109.24 48.02C107.68 48.26 106.12 49.22 104.68 49.94C103.6 50.54 102.64 50.9 101.44 51.14C100.72 51.26 99.8804 51.38 99.1604 51.74C98.9204 51.86 98.9204 52.34 99.2804 52.34C101.32 52.34 103.36 52.82 105.4 52.22C107.32 51.62 109.12 50.54 109.6 48.5C109.72 48.26 109.48 48.02 109.24 48.02Z" fill="#010F14"/>
<path d="M75.1596 22.1001C74.4396 22.3401 73.8396 23.3001 73.5996 24.0201C73.2396 25.1001 73.4796 26.3001 73.7196 27.3801C73.8396 27.6201 74.0796 27.6201 74.1996 27.3801C74.3196 26.9001 74.4396 26.3001 74.5596 25.8201C74.6796 25.3401 74.9196 25.1001 75.1596 24.6201C75.5196 24.0201 75.8796 23.5401 75.9996 22.9401C76.1196 22.4601 75.6396 21.9801 75.1596 22.1001Z" fill="#010F14"/>
<path d="M116.68 32.6601C115.6 33.2601 114.76 34.2201 113.8 34.9401C112.48 35.7801 111.16 36.2601 109.84 36.7401C109.6 36.8601 109.6 37.2201 109.84 37.2201C112.84 37.4601 116.56 36.8601 118 33.8601C118.48 33.0201 117.52 32.1801 116.68 32.6601Z" fill="#010F14"/>
<path d="M62.8004 79.7C61.9604 78.98 60.7604 79.34 59.6804 79.1C58.6004 78.86 57.5204 78.38 56.4404 78.14C56.2004 78.02 56.0804 78.38 56.2004 78.5C56.8004 79.58 58.2404 80.3 59.3204 80.66C60.0404 80.78 60.5204 80.78 61.2404 80.78C61.8404 80.78 62.2004 80.9 62.8004 80.54C63.0404 80.42 63.0404 79.94 62.8004 79.7Z" fill="#010F14"/>
<path d="M33.2804 51.14C32.8004 51.02 32.4404 51.5 32.5604 51.98C32.6804 52.7 33.6404 53.06 34.1204 53.66C34.9604 54.5 35.9204 55.46 36.4004 56.66C36.4004 56.78 36.6404 56.78 36.6404 56.66C36.2804 54.62 35.5604 51.5 33.2804 51.14Z" fill="#010F14"/>
<path d="M111.52 24.14C111.4 22.94 110.92 21.62 110.44 20.54C110.2 19.82 109.84 19.22 109 18.98C108.88 18.98 108.64 18.98 108.64 19.22C108.64 19.82 108.88 20.3 109 20.78C109.12 21.5 108.88 22.34 108.64 23.06C108.16 24.86 107.56 26.66 107.44 28.46C107.44 29.42 108.16 30.02 109 30.02C108.76 30.14 108.76 30.14 109.12 30.02H109.24H109.36C109.36 30.02 109.48 30.02 109.48 29.9C109.6 29.9 109.6 29.9 109.72 29.78C109.72 29.78 109.72 29.78 109.84 29.78C110.32 29.42 110.44 28.82 110.68 28.34C111.04 27.14 111.64 25.46 111.52 24.14Z" fill="#010F14"/>
<path d="M110.08 19.0999C109.6 18.3799 108.76 18.3799 107.92 18.4999C106.72 18.6199 105.4 18.7399 104.2 18.8599C102.04 19.0999 97.6004 19.5799 97.8404 22.5799C97.9604 23.6599 99.2804 24.0199 100.12 23.5399C102.64 21.8599 106.36 20.4199 109.36 20.5399C110.08 20.5399 110.44 19.5799 110.08 19.0999Z" fill="#010F14"/>
<path d="M109 19.1C108.64 18.98 108.28 19.22 108.04 19.46C107.8 19.82 107.8 20.18 107.68 20.66C107.56 21.14 107.32 21.62 107.2 22.1C106.84 22.94 106.36 23.66 106 24.5C105.88 24.74 106.12 24.86 106.36 24.74C106.84 24.38 107.32 23.9 107.8 23.54C108.28 23.18 108.76 22.7 109.24 22.22C110.08 21.26 110.44 19.58 109 19.1Z" fill="#010F14"/>
<path d="M105.52 26.9C103.36 27.86 101.2 28.94 98.9205 29.66C97.9605 29.9 98.0805 31.46 99.1605 31.46C100.36 31.46 101.92 30.74 102.88 30.14C104.08 29.42 105.04 28.46 105.88 27.26C105.88 27.02 105.64 26.78 105.52 26.9Z" fill="#010F14"/>
<path d="M101.08 27.38C100.96 27.14 100.72 27.14 100.6 27.26C100.36 27.5 100 27.62 99.7604 27.86C99.4004 28.22 99.2804 28.58 99.0404 28.94C98.8004 29.54 98.2004 30.38 98.4404 31.1C98.5604 31.46 99.1604 31.46 99.2804 31.1C99.6404 30.5 99.8804 29.78 100.36 29.18C100.6 28.82 100.84 28.46 101.08 28.1C101.08 27.86 101.08 27.62 101.08 27.38Z" fill="#010F14"/>
</svg>
